%TF.GenerationSoftware,KiCad,Pcbnew,8.0.3*%
%TF.CreationDate,2024-06-22T14:52:27+02:00*%
%TF.ProjectId,dmx-box-rounded,646d782d-626f-4782-9d72-6f756e646564,rev?*%
%TF.SameCoordinates,Original*%
%TF.FileFunction,Drillmap*%
%TF.FilePolarity,Positive*%
%FSLAX45Y45*%
G04 Gerber Fmt 4.5, Leading zero omitted, Abs format (unit mm)*
G04 Created by KiCad (PCBNEW 8.0.3) date 2024-06-22 14:52:27*
%MOMM*%
%LPD*%
G01*
G04 APERTURE LIST*
%ADD10C,0.100000*%
%ADD11C,0.200000*%
%ADD12C,0.160000*%
%ADD13C,0.250000*%
G04 APERTURE END LIST*
D10*
X17462500Y-7112000D02*
X17653000Y-7112000D01*
X17653000Y-12060500D01*
X3810000Y-12060500D01*
X3810000Y-7112000D01*
X15938500Y-7112000D01*
X16129000Y-6917000D01*
X17272000Y-6917000D01*
X17462500Y-7112000D01*
D11*
D12*
X4858000Y-7398500D02*
X5018000Y-7558500D01*
X5018000Y-7398500D02*
X4858000Y-7558500D01*
X5620000Y-7906500D02*
X5780000Y-8066500D01*
X5780000Y-7906500D02*
X5620000Y-8066500D01*
X7906000Y-7398500D02*
X8066000Y-7558500D01*
X8066000Y-7398500D02*
X7906000Y-7558500D01*
X8668000Y-7906500D02*
X8828000Y-8066500D01*
X8828000Y-7906500D02*
X8668000Y-8066500D01*
X10954000Y-7413000D02*
X11114000Y-7573000D01*
X11114000Y-7413000D02*
X10954000Y-7573000D01*
X11716000Y-7921000D02*
X11876000Y-8081000D01*
X11876000Y-7921000D02*
X11716000Y-8081000D01*
X14002000Y-7398500D02*
X14162000Y-7558500D01*
X14162000Y-7398500D02*
X14002000Y-7558500D01*
X14764000Y-7906500D02*
X14924000Y-8066500D01*
X14924000Y-7906500D02*
X14764000Y-8066500D01*
D13*
X4443000Y-9398000D02*
G75*
G02*
X4193000Y-9398000I-125000J0D01*
G01*
X4193000Y-9398000D02*
G75*
G02*
X4443000Y-9398000I125000J0D01*
G01*
X4443000Y-11557000D02*
G75*
G02*
X4193000Y-11557000I-125000J0D01*
G01*
X4193000Y-11557000D02*
G75*
G02*
X4443000Y-11557000I125000J0D01*
G01*
X17270000Y-8128000D02*
G75*
G02*
X17020000Y-8128000I-125000J0D01*
G01*
X17020000Y-8128000D02*
G75*
G02*
X17270000Y-8128000I125000J0D01*
G01*
X17270000Y-11557000D02*
G75*
G02*
X17020000Y-11557000I-125000J0D01*
G01*
X17020000Y-11557000D02*
G75*
G02*
X17270000Y-11557000I125000J0D01*
G01*
D11*
X4065777Y-12376984D02*
X4065777Y-12176984D01*
X4065777Y-12176984D02*
X4113396Y-12176984D01*
X4113396Y-12176984D02*
X4141967Y-12186508D01*
X4141967Y-12186508D02*
X4161015Y-12205555D01*
X4161015Y-12205555D02*
X4170539Y-12224603D01*
X4170539Y-12224603D02*
X4180062Y-12262698D01*
X4180062Y-12262698D02*
X4180062Y-12291269D01*
X4180062Y-12291269D02*
X4170539Y-12329365D01*
X4170539Y-12329365D02*
X4161015Y-12348412D01*
X4161015Y-12348412D02*
X4141967Y-12367460D01*
X4141967Y-12367460D02*
X4113396Y-12376984D01*
X4113396Y-12376984D02*
X4065777Y-12376984D01*
X4265777Y-12376984D02*
X4265777Y-12243650D01*
X4265777Y-12281746D02*
X4275301Y-12262698D01*
X4275301Y-12262698D02*
X4284824Y-12253174D01*
X4284824Y-12253174D02*
X4303872Y-12243650D01*
X4303872Y-12243650D02*
X4322920Y-12243650D01*
X4389586Y-12376984D02*
X4389586Y-12243650D01*
X4389586Y-12176984D02*
X4380063Y-12186508D01*
X4380063Y-12186508D02*
X4389586Y-12196031D01*
X4389586Y-12196031D02*
X4399110Y-12186508D01*
X4399110Y-12186508D02*
X4389586Y-12176984D01*
X4389586Y-12176984D02*
X4389586Y-12196031D01*
X4513396Y-12376984D02*
X4494348Y-12367460D01*
X4494348Y-12367460D02*
X4484824Y-12348412D01*
X4484824Y-12348412D02*
X4484824Y-12176984D01*
X4618158Y-12376984D02*
X4599110Y-12367460D01*
X4599110Y-12367460D02*
X4589586Y-12348412D01*
X4589586Y-12348412D02*
X4589586Y-12176984D01*
X4846729Y-12376984D02*
X4846729Y-12176984D01*
X4846729Y-12176984D02*
X4913396Y-12319841D01*
X4913396Y-12319841D02*
X4980063Y-12176984D01*
X4980063Y-12176984D02*
X4980063Y-12376984D01*
X5161015Y-12376984D02*
X5161015Y-12272222D01*
X5161015Y-12272222D02*
X5151491Y-12253174D01*
X5151491Y-12253174D02*
X5132444Y-12243650D01*
X5132444Y-12243650D02*
X5094348Y-12243650D01*
X5094348Y-12243650D02*
X5075301Y-12253174D01*
X5161015Y-12367460D02*
X5141967Y-12376984D01*
X5141967Y-12376984D02*
X5094348Y-12376984D01*
X5094348Y-12376984D02*
X5075301Y-12367460D01*
X5075301Y-12367460D02*
X5065777Y-12348412D01*
X5065777Y-12348412D02*
X5065777Y-12329365D01*
X5065777Y-12329365D02*
X5075301Y-12310317D01*
X5075301Y-12310317D02*
X5094348Y-12300793D01*
X5094348Y-12300793D02*
X5141967Y-12300793D01*
X5141967Y-12300793D02*
X5161015Y-12291269D01*
X5256253Y-12243650D02*
X5256253Y-12443650D01*
X5256253Y-12253174D02*
X5275301Y-12243650D01*
X5275301Y-12243650D02*
X5313396Y-12243650D01*
X5313396Y-12243650D02*
X5332444Y-12253174D01*
X5332444Y-12253174D02*
X5341967Y-12262698D01*
X5341967Y-12262698D02*
X5351491Y-12281746D01*
X5351491Y-12281746D02*
X5351491Y-12338888D01*
X5351491Y-12338888D02*
X5341967Y-12357936D01*
X5341967Y-12357936D02*
X5332444Y-12367460D01*
X5332444Y-12367460D02*
X5313396Y-12376984D01*
X5313396Y-12376984D02*
X5275301Y-12376984D01*
X5275301Y-12376984D02*
X5256253Y-12367460D01*
X5437205Y-12357936D02*
X5446729Y-12367460D01*
X5446729Y-12367460D02*
X5437205Y-12376984D01*
X5437205Y-12376984D02*
X5427682Y-12367460D01*
X5427682Y-12367460D02*
X5437205Y-12357936D01*
X5437205Y-12357936D02*
X5437205Y-12376984D01*
X5437205Y-12253174D02*
X5446729Y-12262698D01*
X5446729Y-12262698D02*
X5437205Y-12272222D01*
X5437205Y-12272222D02*
X5427682Y-12262698D01*
X5427682Y-12262698D02*
X5437205Y-12253174D01*
X5437205Y-12253174D02*
X5437205Y-12272222D01*
D12*
X3645000Y-12625500D02*
X3805000Y-12785500D01*
X3805000Y-12625500D02*
X3645000Y-12785500D01*
D11*
X4170539Y-12796984D02*
X4056253Y-12796984D01*
X4113396Y-12796984D02*
X4113396Y-12596984D01*
X4113396Y-12596984D02*
X4094348Y-12625555D01*
X4094348Y-12625555D02*
X4075301Y-12644603D01*
X4075301Y-12644603D02*
X4056253Y-12654127D01*
X4256253Y-12777936D02*
X4265777Y-12787460D01*
X4265777Y-12787460D02*
X4256253Y-12796984D01*
X4256253Y-12796984D02*
X4246729Y-12787460D01*
X4246729Y-12787460D02*
X4256253Y-12777936D01*
X4256253Y-12777936D02*
X4256253Y-12796984D01*
X4437205Y-12596984D02*
X4399110Y-12596984D01*
X4399110Y-12596984D02*
X4380063Y-12606508D01*
X4380063Y-12606508D02*
X4370539Y-12616031D01*
X4370539Y-12616031D02*
X4351491Y-12644603D01*
X4351491Y-12644603D02*
X4341967Y-12682698D01*
X4341967Y-12682698D02*
X4341967Y-12758888D01*
X4341967Y-12758888D02*
X4351491Y-12777936D01*
X4351491Y-12777936D02*
X4361015Y-12787460D01*
X4361015Y-12787460D02*
X4380063Y-12796984D01*
X4380063Y-12796984D02*
X4418158Y-12796984D01*
X4418158Y-12796984D02*
X4437205Y-12787460D01*
X4437205Y-12787460D02*
X4446729Y-12777936D01*
X4446729Y-12777936D02*
X4456253Y-12758888D01*
X4456253Y-12758888D02*
X4456253Y-12711269D01*
X4456253Y-12711269D02*
X4446729Y-12692222D01*
X4446729Y-12692222D02*
X4437205Y-12682698D01*
X4437205Y-12682698D02*
X4418158Y-12673174D01*
X4418158Y-12673174D02*
X4380063Y-12673174D01*
X4380063Y-12673174D02*
X4361015Y-12682698D01*
X4361015Y-12682698D02*
X4351491Y-12692222D01*
X4351491Y-12692222D02*
X4341967Y-12711269D01*
X4580063Y-12596984D02*
X4599110Y-12596984D01*
X4599110Y-12596984D02*
X4618158Y-12606508D01*
X4618158Y-12606508D02*
X4627682Y-12616031D01*
X4627682Y-12616031D02*
X4637205Y-12635079D01*
X4637205Y-12635079D02*
X4646729Y-12673174D01*
X4646729Y-12673174D02*
X4646729Y-12720793D01*
X4646729Y-12720793D02*
X4637205Y-12758888D01*
X4637205Y-12758888D02*
X4627682Y-12777936D01*
X4627682Y-12777936D02*
X4618158Y-12787460D01*
X4618158Y-12787460D02*
X4599110Y-12796984D01*
X4599110Y-12796984D02*
X4580063Y-12796984D01*
X4580063Y-12796984D02*
X4561015Y-12787460D01*
X4561015Y-12787460D02*
X4551491Y-12777936D01*
X4551491Y-12777936D02*
X4541967Y-12758888D01*
X4541967Y-12758888D02*
X4532444Y-12720793D01*
X4532444Y-12720793D02*
X4532444Y-12673174D01*
X4532444Y-12673174D02*
X4541967Y-12635079D01*
X4541967Y-12635079D02*
X4551491Y-12616031D01*
X4551491Y-12616031D02*
X4561015Y-12606508D01*
X4561015Y-12606508D02*
X4580063Y-12596984D01*
X4770539Y-12596984D02*
X4789586Y-12596984D01*
X4789586Y-12596984D02*
X4808634Y-12606508D01*
X4808634Y-12606508D02*
X4818158Y-12616031D01*
X4818158Y-12616031D02*
X4827682Y-12635079D01*
X4827682Y-12635079D02*
X4837205Y-12673174D01*
X4837205Y-12673174D02*
X4837205Y-12720793D01*
X4837205Y-12720793D02*
X4827682Y-12758888D01*
X4827682Y-12758888D02*
X4818158Y-12777936D01*
X4818158Y-12777936D02*
X4808634Y-12787460D01*
X4808634Y-12787460D02*
X4789586Y-12796984D01*
X4789586Y-12796984D02*
X4770539Y-12796984D01*
X4770539Y-12796984D02*
X4751491Y-12787460D01*
X4751491Y-12787460D02*
X4741967Y-12777936D01*
X4741967Y-12777936D02*
X4732444Y-12758888D01*
X4732444Y-12758888D02*
X4722920Y-12720793D01*
X4722920Y-12720793D02*
X4722920Y-12673174D01*
X4722920Y-12673174D02*
X4732444Y-12635079D01*
X4732444Y-12635079D02*
X4741967Y-12616031D01*
X4741967Y-12616031D02*
X4751491Y-12606508D01*
X4751491Y-12606508D02*
X4770539Y-12596984D01*
X4922920Y-12796984D02*
X4922920Y-12663650D01*
X4922920Y-12682698D02*
X4932444Y-12673174D01*
X4932444Y-12673174D02*
X4951491Y-12663650D01*
X4951491Y-12663650D02*
X4980063Y-12663650D01*
X4980063Y-12663650D02*
X4999110Y-12673174D01*
X4999110Y-12673174D02*
X5008634Y-12692222D01*
X5008634Y-12692222D02*
X5008634Y-12796984D01*
X5008634Y-12692222D02*
X5018158Y-12673174D01*
X5018158Y-12673174D02*
X5037205Y-12663650D01*
X5037205Y-12663650D02*
X5065777Y-12663650D01*
X5065777Y-12663650D02*
X5084825Y-12673174D01*
X5084825Y-12673174D02*
X5094348Y-12692222D01*
X5094348Y-12692222D02*
X5094348Y-12796984D01*
X5189586Y-12796984D02*
X5189586Y-12663650D01*
X5189586Y-12682698D02*
X5199110Y-12673174D01*
X5199110Y-12673174D02*
X5218158Y-12663650D01*
X5218158Y-12663650D02*
X5246729Y-12663650D01*
X5246729Y-12663650D02*
X5265777Y-12673174D01*
X5265777Y-12673174D02*
X5275301Y-12692222D01*
X5275301Y-12692222D02*
X5275301Y-12796984D01*
X5275301Y-12692222D02*
X5284825Y-12673174D01*
X5284825Y-12673174D02*
X5303872Y-12663650D01*
X5303872Y-12663650D02*
X5332444Y-12663650D01*
X5332444Y-12663650D02*
X5351491Y-12673174D01*
X5351491Y-12673174D02*
X5361015Y-12692222D01*
X5361015Y-12692222D02*
X5361015Y-12796984D01*
X5751491Y-12587460D02*
X5580063Y-12844603D01*
X6008634Y-12596984D02*
X6027682Y-12596984D01*
X6027682Y-12596984D02*
X6046729Y-12606508D01*
X6046729Y-12606508D02*
X6056253Y-12616031D01*
X6056253Y-12616031D02*
X6065777Y-12635079D01*
X6065777Y-12635079D02*
X6075301Y-12673174D01*
X6075301Y-12673174D02*
X6075301Y-12720793D01*
X6075301Y-12720793D02*
X6065777Y-12758888D01*
X6065777Y-12758888D02*
X6056253Y-12777936D01*
X6056253Y-12777936D02*
X6046729Y-12787460D01*
X6046729Y-12787460D02*
X6027682Y-12796984D01*
X6027682Y-12796984D02*
X6008634Y-12796984D01*
X6008634Y-12796984D02*
X5989586Y-12787460D01*
X5989586Y-12787460D02*
X5980063Y-12777936D01*
X5980063Y-12777936D02*
X5970539Y-12758888D01*
X5970539Y-12758888D02*
X5961015Y-12720793D01*
X5961015Y-12720793D02*
X5961015Y-12673174D01*
X5961015Y-12673174D02*
X5970539Y-12635079D01*
X5970539Y-12635079D02*
X5980063Y-12616031D01*
X5980063Y-12616031D02*
X5989586Y-12606508D01*
X5989586Y-12606508D02*
X6008634Y-12596984D01*
X6161015Y-12777936D02*
X6170539Y-12787460D01*
X6170539Y-12787460D02*
X6161015Y-12796984D01*
X6161015Y-12796984D02*
X6151491Y-12787460D01*
X6151491Y-12787460D02*
X6161015Y-12777936D01*
X6161015Y-12777936D02*
X6161015Y-12796984D01*
X6294348Y-12596984D02*
X6313396Y-12596984D01*
X6313396Y-12596984D02*
X6332444Y-12606508D01*
X6332444Y-12606508D02*
X6341967Y-12616031D01*
X6341967Y-12616031D02*
X6351491Y-12635079D01*
X6351491Y-12635079D02*
X6361015Y-12673174D01*
X6361015Y-12673174D02*
X6361015Y-12720793D01*
X6361015Y-12720793D02*
X6351491Y-12758888D01*
X6351491Y-12758888D02*
X6341967Y-12777936D01*
X6341967Y-12777936D02*
X6332444Y-12787460D01*
X6332444Y-12787460D02*
X6313396Y-12796984D01*
X6313396Y-12796984D02*
X6294348Y-12796984D01*
X6294348Y-12796984D02*
X6275301Y-12787460D01*
X6275301Y-12787460D02*
X6265777Y-12777936D01*
X6265777Y-12777936D02*
X6256253Y-12758888D01*
X6256253Y-12758888D02*
X6246729Y-12720793D01*
X6246729Y-12720793D02*
X6246729Y-12673174D01*
X6246729Y-12673174D02*
X6256253Y-12635079D01*
X6256253Y-12635079D02*
X6265777Y-12616031D01*
X6265777Y-12616031D02*
X6275301Y-12606508D01*
X6275301Y-12606508D02*
X6294348Y-12596984D01*
X6532444Y-12596984D02*
X6494348Y-12596984D01*
X6494348Y-12596984D02*
X6475301Y-12606508D01*
X6475301Y-12606508D02*
X6465777Y-12616031D01*
X6465777Y-12616031D02*
X6446729Y-12644603D01*
X6446729Y-12644603D02*
X6437206Y-12682698D01*
X6437206Y-12682698D02*
X6437206Y-12758888D01*
X6437206Y-12758888D02*
X6446729Y-12777936D01*
X6446729Y-12777936D02*
X6456253Y-12787460D01*
X6456253Y-12787460D02*
X6475301Y-12796984D01*
X6475301Y-12796984D02*
X6513396Y-12796984D01*
X6513396Y-12796984D02*
X6532444Y-12787460D01*
X6532444Y-12787460D02*
X6541967Y-12777936D01*
X6541967Y-12777936D02*
X6551491Y-12758888D01*
X6551491Y-12758888D02*
X6551491Y-12711269D01*
X6551491Y-12711269D02*
X6541967Y-12692222D01*
X6541967Y-12692222D02*
X6532444Y-12682698D01*
X6532444Y-12682698D02*
X6513396Y-12673174D01*
X6513396Y-12673174D02*
X6475301Y-12673174D01*
X6475301Y-12673174D02*
X6456253Y-12682698D01*
X6456253Y-12682698D02*
X6446729Y-12692222D01*
X6446729Y-12692222D02*
X6437206Y-12711269D01*
X6618158Y-12596984D02*
X6741967Y-12596984D01*
X6741967Y-12596984D02*
X6675301Y-12673174D01*
X6675301Y-12673174D02*
X6703872Y-12673174D01*
X6703872Y-12673174D02*
X6722920Y-12682698D01*
X6722920Y-12682698D02*
X6732444Y-12692222D01*
X6732444Y-12692222D02*
X6741967Y-12711269D01*
X6741967Y-12711269D02*
X6741967Y-12758888D01*
X6741967Y-12758888D02*
X6732444Y-12777936D01*
X6732444Y-12777936D02*
X6722920Y-12787460D01*
X6722920Y-12787460D02*
X6703872Y-12796984D01*
X6703872Y-12796984D02*
X6646729Y-12796984D01*
X6646729Y-12796984D02*
X6627682Y-12787460D01*
X6627682Y-12787460D02*
X6618158Y-12777936D01*
X6865777Y-12596984D02*
X6884825Y-12596984D01*
X6884825Y-12596984D02*
X6903872Y-12606508D01*
X6903872Y-12606508D02*
X6913396Y-12616031D01*
X6913396Y-12616031D02*
X6922920Y-12635079D01*
X6922920Y-12635079D02*
X6932444Y-12673174D01*
X6932444Y-12673174D02*
X6932444Y-12720793D01*
X6932444Y-12720793D02*
X6922920Y-12758888D01*
X6922920Y-12758888D02*
X6913396Y-12777936D01*
X6913396Y-12777936D02*
X6903872Y-12787460D01*
X6903872Y-12787460D02*
X6884825Y-12796984D01*
X6884825Y-12796984D02*
X6865777Y-12796984D01*
X6865777Y-12796984D02*
X6846729Y-12787460D01*
X6846729Y-12787460D02*
X6837206Y-12777936D01*
X6837206Y-12777936D02*
X6827682Y-12758888D01*
X6827682Y-12758888D02*
X6818158Y-12720793D01*
X6818158Y-12720793D02*
X6818158Y-12673174D01*
X6818158Y-12673174D02*
X6827682Y-12635079D01*
X6827682Y-12635079D02*
X6837206Y-12616031D01*
X6837206Y-12616031D02*
X6846729Y-12606508D01*
X6846729Y-12606508D02*
X6865777Y-12596984D01*
X7008634Y-12596984D02*
X7008634Y-12635079D01*
X7084825Y-12596984D02*
X7084825Y-12635079D01*
X7380063Y-12873174D02*
X7370539Y-12863650D01*
X7370539Y-12863650D02*
X7351491Y-12835079D01*
X7351491Y-12835079D02*
X7341968Y-12816031D01*
X7341968Y-12816031D02*
X7332444Y-12787460D01*
X7332444Y-12787460D02*
X7322920Y-12739841D01*
X7322920Y-12739841D02*
X7322920Y-12701746D01*
X7322920Y-12701746D02*
X7332444Y-12654127D01*
X7332444Y-12654127D02*
X7341968Y-12625555D01*
X7341968Y-12625555D02*
X7351491Y-12606508D01*
X7351491Y-12606508D02*
X7370539Y-12577936D01*
X7370539Y-12577936D02*
X7380063Y-12568412D01*
X7484825Y-12682698D02*
X7465777Y-12673174D01*
X7465777Y-12673174D02*
X7456253Y-12663650D01*
X7456253Y-12663650D02*
X7446729Y-12644603D01*
X7446729Y-12644603D02*
X7446729Y-12635079D01*
X7446729Y-12635079D02*
X7456253Y-12616031D01*
X7456253Y-12616031D02*
X7465777Y-12606508D01*
X7465777Y-12606508D02*
X7484825Y-12596984D01*
X7484825Y-12596984D02*
X7522920Y-12596984D01*
X7522920Y-12596984D02*
X7541968Y-12606508D01*
X7541968Y-12606508D02*
X7551491Y-12616031D01*
X7551491Y-12616031D02*
X7561015Y-12635079D01*
X7561015Y-12635079D02*
X7561015Y-12644603D01*
X7561015Y-12644603D02*
X7551491Y-12663650D01*
X7551491Y-12663650D02*
X7541968Y-12673174D01*
X7541968Y-12673174D02*
X7522920Y-12682698D01*
X7522920Y-12682698D02*
X7484825Y-12682698D01*
X7484825Y-12682698D02*
X7465777Y-12692222D01*
X7465777Y-12692222D02*
X7456253Y-12701746D01*
X7456253Y-12701746D02*
X7446729Y-12720793D01*
X7446729Y-12720793D02*
X7446729Y-12758888D01*
X7446729Y-12758888D02*
X7456253Y-12777936D01*
X7456253Y-12777936D02*
X7465777Y-12787460D01*
X7465777Y-12787460D02*
X7484825Y-12796984D01*
X7484825Y-12796984D02*
X7522920Y-12796984D01*
X7522920Y-12796984D02*
X7541968Y-12787460D01*
X7541968Y-12787460D02*
X7551491Y-12777936D01*
X7551491Y-12777936D02*
X7561015Y-12758888D01*
X7561015Y-12758888D02*
X7561015Y-12720793D01*
X7561015Y-12720793D02*
X7551491Y-12701746D01*
X7551491Y-12701746D02*
X7541968Y-12692222D01*
X7541968Y-12692222D02*
X7522920Y-12682698D01*
X7799110Y-12796984D02*
X7799110Y-12596984D01*
X7884825Y-12796984D02*
X7884825Y-12692222D01*
X7884825Y-12692222D02*
X7875301Y-12673174D01*
X7875301Y-12673174D02*
X7856253Y-12663650D01*
X7856253Y-12663650D02*
X7827682Y-12663650D01*
X7827682Y-12663650D02*
X7808634Y-12673174D01*
X7808634Y-12673174D02*
X7799110Y-12682698D01*
X8008634Y-12796984D02*
X7989587Y-12787460D01*
X7989587Y-12787460D02*
X7980063Y-12777936D01*
X7980063Y-12777936D02*
X7970539Y-12758888D01*
X7970539Y-12758888D02*
X7970539Y-12701746D01*
X7970539Y-12701746D02*
X7980063Y-12682698D01*
X7980063Y-12682698D02*
X7989587Y-12673174D01*
X7989587Y-12673174D02*
X8008634Y-12663650D01*
X8008634Y-12663650D02*
X8037206Y-12663650D01*
X8037206Y-12663650D02*
X8056253Y-12673174D01*
X8056253Y-12673174D02*
X8065777Y-12682698D01*
X8065777Y-12682698D02*
X8075301Y-12701746D01*
X8075301Y-12701746D02*
X8075301Y-12758888D01*
X8075301Y-12758888D02*
X8065777Y-12777936D01*
X8065777Y-12777936D02*
X8056253Y-12787460D01*
X8056253Y-12787460D02*
X8037206Y-12796984D01*
X8037206Y-12796984D02*
X8008634Y-12796984D01*
X8189587Y-12796984D02*
X8170539Y-12787460D01*
X8170539Y-12787460D02*
X8161015Y-12768412D01*
X8161015Y-12768412D02*
X8161015Y-12596984D01*
X8341968Y-12787460D02*
X8322920Y-12796984D01*
X8322920Y-12796984D02*
X8284825Y-12796984D01*
X8284825Y-12796984D02*
X8265777Y-12787460D01*
X8265777Y-12787460D02*
X8256253Y-12768412D01*
X8256253Y-12768412D02*
X8256253Y-12692222D01*
X8256253Y-12692222D02*
X8265777Y-12673174D01*
X8265777Y-12673174D02*
X8284825Y-12663650D01*
X8284825Y-12663650D02*
X8322920Y-12663650D01*
X8322920Y-12663650D02*
X8341968Y-12673174D01*
X8341968Y-12673174D02*
X8351491Y-12692222D01*
X8351491Y-12692222D02*
X8351491Y-12711269D01*
X8351491Y-12711269D02*
X8256253Y-12730317D01*
X8427682Y-12787460D02*
X8446730Y-12796984D01*
X8446730Y-12796984D02*
X8484825Y-12796984D01*
X8484825Y-12796984D02*
X8503873Y-12787460D01*
X8503873Y-12787460D02*
X8513396Y-12768412D01*
X8513396Y-12768412D02*
X8513396Y-12758888D01*
X8513396Y-12758888D02*
X8503873Y-12739841D01*
X8503873Y-12739841D02*
X8484825Y-12730317D01*
X8484825Y-12730317D02*
X8456253Y-12730317D01*
X8456253Y-12730317D02*
X8437206Y-12720793D01*
X8437206Y-12720793D02*
X8427682Y-12701746D01*
X8427682Y-12701746D02*
X8427682Y-12692222D01*
X8427682Y-12692222D02*
X8437206Y-12673174D01*
X8437206Y-12673174D02*
X8456253Y-12663650D01*
X8456253Y-12663650D02*
X8484825Y-12663650D01*
X8484825Y-12663650D02*
X8503873Y-12673174D01*
X8580063Y-12873174D02*
X8589587Y-12863650D01*
X8589587Y-12863650D02*
X8608634Y-12835079D01*
X8608634Y-12835079D02*
X8618158Y-12816031D01*
X8618158Y-12816031D02*
X8627682Y-12787460D01*
X8627682Y-12787460D02*
X8637206Y-12739841D01*
X8637206Y-12739841D02*
X8637206Y-12701746D01*
X8637206Y-12701746D02*
X8627682Y-12654127D01*
X8627682Y-12654127D02*
X8618158Y-12625555D01*
X8618158Y-12625555D02*
X8608634Y-12606508D01*
X8608634Y-12606508D02*
X8589587Y-12577936D01*
X8589587Y-12577936D02*
X8580063Y-12568412D01*
X8941968Y-12873174D02*
X8932444Y-12863650D01*
X8932444Y-12863650D02*
X8913396Y-12835079D01*
X8913396Y-12835079D02*
X8903873Y-12816031D01*
X8903873Y-12816031D02*
X8894349Y-12787460D01*
X8894349Y-12787460D02*
X8884825Y-12739841D01*
X8884825Y-12739841D02*
X8884825Y-12701746D01*
X8884825Y-12701746D02*
X8894349Y-12654127D01*
X8894349Y-12654127D02*
X8903873Y-12625555D01*
X8903873Y-12625555D02*
X8913396Y-12606508D01*
X8913396Y-12606508D02*
X8932444Y-12577936D01*
X8932444Y-12577936D02*
X8941968Y-12568412D01*
X9018158Y-12663650D02*
X9018158Y-12796984D01*
X9018158Y-12682698D02*
X9027682Y-12673174D01*
X9027682Y-12673174D02*
X9046730Y-12663650D01*
X9046730Y-12663650D02*
X9075301Y-12663650D01*
X9075301Y-12663650D02*
X9094349Y-12673174D01*
X9094349Y-12673174D02*
X9103873Y-12692222D01*
X9103873Y-12692222D02*
X9103873Y-12796984D01*
X9227682Y-12796984D02*
X9208634Y-12787460D01*
X9208634Y-12787460D02*
X9199111Y-12777936D01*
X9199111Y-12777936D02*
X9189587Y-12758888D01*
X9189587Y-12758888D02*
X9189587Y-12701746D01*
X9189587Y-12701746D02*
X9199111Y-12682698D01*
X9199111Y-12682698D02*
X9208634Y-12673174D01*
X9208634Y-12673174D02*
X9227682Y-12663650D01*
X9227682Y-12663650D02*
X9256254Y-12663650D01*
X9256254Y-12663650D02*
X9275301Y-12673174D01*
X9275301Y-12673174D02*
X9284825Y-12682698D01*
X9284825Y-12682698D02*
X9294349Y-12701746D01*
X9294349Y-12701746D02*
X9294349Y-12758888D01*
X9294349Y-12758888D02*
X9284825Y-12777936D01*
X9284825Y-12777936D02*
X9275301Y-12787460D01*
X9275301Y-12787460D02*
X9256254Y-12796984D01*
X9256254Y-12796984D02*
X9227682Y-12796984D01*
X9351492Y-12663650D02*
X9427682Y-12663650D01*
X9380063Y-12596984D02*
X9380063Y-12768412D01*
X9380063Y-12768412D02*
X9389587Y-12787460D01*
X9389587Y-12787460D02*
X9408634Y-12796984D01*
X9408634Y-12796984D02*
X9427682Y-12796984D01*
X9646730Y-12663650D02*
X9646730Y-12863650D01*
X9646730Y-12673174D02*
X9665777Y-12663650D01*
X9665777Y-12663650D02*
X9703873Y-12663650D01*
X9703873Y-12663650D02*
X9722920Y-12673174D01*
X9722920Y-12673174D02*
X9732444Y-12682698D01*
X9732444Y-12682698D02*
X9741968Y-12701746D01*
X9741968Y-12701746D02*
X9741968Y-12758888D01*
X9741968Y-12758888D02*
X9732444Y-12777936D01*
X9732444Y-12777936D02*
X9722920Y-12787460D01*
X9722920Y-12787460D02*
X9703873Y-12796984D01*
X9703873Y-12796984D02*
X9665777Y-12796984D01*
X9665777Y-12796984D02*
X9646730Y-12787460D01*
X9856254Y-12796984D02*
X9837206Y-12787460D01*
X9837206Y-12787460D02*
X9827682Y-12768412D01*
X9827682Y-12768412D02*
X9827682Y-12596984D01*
X10018158Y-12796984D02*
X10018158Y-12692222D01*
X10018158Y-12692222D02*
X10008635Y-12673174D01*
X10008635Y-12673174D02*
X9989587Y-12663650D01*
X9989587Y-12663650D02*
X9951492Y-12663650D01*
X9951492Y-12663650D02*
X9932444Y-12673174D01*
X10018158Y-12787460D02*
X9999111Y-12796984D01*
X9999111Y-12796984D02*
X9951492Y-12796984D01*
X9951492Y-12796984D02*
X9932444Y-12787460D01*
X9932444Y-12787460D02*
X9922920Y-12768412D01*
X9922920Y-12768412D02*
X9922920Y-12749365D01*
X9922920Y-12749365D02*
X9932444Y-12730317D01*
X9932444Y-12730317D02*
X9951492Y-12720793D01*
X9951492Y-12720793D02*
X9999111Y-12720793D01*
X9999111Y-12720793D02*
X10018158Y-12711269D01*
X10084825Y-12663650D02*
X10161015Y-12663650D01*
X10113396Y-12596984D02*
X10113396Y-12768412D01*
X10113396Y-12768412D02*
X10122920Y-12787460D01*
X10122920Y-12787460D02*
X10141968Y-12796984D01*
X10141968Y-12796984D02*
X10161015Y-12796984D01*
X10303873Y-12787460D02*
X10284825Y-12796984D01*
X10284825Y-12796984D02*
X10246730Y-12796984D01*
X10246730Y-12796984D02*
X10227682Y-12787460D01*
X10227682Y-12787460D02*
X10218158Y-12768412D01*
X10218158Y-12768412D02*
X10218158Y-12692222D01*
X10218158Y-12692222D02*
X10227682Y-12673174D01*
X10227682Y-12673174D02*
X10246730Y-12663650D01*
X10246730Y-12663650D02*
X10284825Y-12663650D01*
X10284825Y-12663650D02*
X10303873Y-12673174D01*
X10303873Y-12673174D02*
X10313396Y-12692222D01*
X10313396Y-12692222D02*
X10313396Y-12711269D01*
X10313396Y-12711269D02*
X10218158Y-12730317D01*
X10484825Y-12796984D02*
X10484825Y-12596984D01*
X10484825Y-12787460D02*
X10465777Y-12796984D01*
X10465777Y-12796984D02*
X10427682Y-12796984D01*
X10427682Y-12796984D02*
X10408635Y-12787460D01*
X10408635Y-12787460D02*
X10399111Y-12777936D01*
X10399111Y-12777936D02*
X10389587Y-12758888D01*
X10389587Y-12758888D02*
X10389587Y-12701746D01*
X10389587Y-12701746D02*
X10399111Y-12682698D01*
X10399111Y-12682698D02*
X10408635Y-12673174D01*
X10408635Y-12673174D02*
X10427682Y-12663650D01*
X10427682Y-12663650D02*
X10465777Y-12663650D01*
X10465777Y-12663650D02*
X10484825Y-12673174D01*
X10561016Y-12873174D02*
X10570539Y-12863650D01*
X10570539Y-12863650D02*
X10589587Y-12835079D01*
X10589587Y-12835079D02*
X10599111Y-12816031D01*
X10599111Y-12816031D02*
X10608635Y-12787460D01*
X10608635Y-12787460D02*
X10618158Y-12739841D01*
X10618158Y-12739841D02*
X10618158Y-12701746D01*
X10618158Y-12701746D02*
X10608635Y-12654127D01*
X10608635Y-12654127D02*
X10599111Y-12625555D01*
X10599111Y-12625555D02*
X10589587Y-12606508D01*
X10589587Y-12606508D02*
X10570539Y-12577936D01*
X10570539Y-12577936D02*
X10561016Y-12568412D01*
X3805000Y-12985500D02*
G75*
G02*
X3605000Y-12985500I-100000J0D01*
G01*
X3605000Y-12985500D02*
G75*
G02*
X3805000Y-12985500I100000J0D01*
G01*
X4056253Y-12896031D02*
X4065777Y-12886508D01*
X4065777Y-12886508D02*
X4084824Y-12876984D01*
X4084824Y-12876984D02*
X4132443Y-12876984D01*
X4132443Y-12876984D02*
X4151491Y-12886508D01*
X4151491Y-12886508D02*
X4161015Y-12896031D01*
X4161015Y-12896031D02*
X4170539Y-12915079D01*
X4170539Y-12915079D02*
X4170539Y-12934127D01*
X4170539Y-12934127D02*
X4161015Y-12962698D01*
X4161015Y-12962698D02*
X4046729Y-13076984D01*
X4046729Y-13076984D02*
X4170539Y-13076984D01*
X4256253Y-13057936D02*
X4265777Y-13067460D01*
X4265777Y-13067460D02*
X4256253Y-13076984D01*
X4256253Y-13076984D02*
X4246729Y-13067460D01*
X4246729Y-13067460D02*
X4256253Y-13057936D01*
X4256253Y-13057936D02*
X4256253Y-13076984D01*
X4446729Y-12876984D02*
X4351491Y-12876984D01*
X4351491Y-12876984D02*
X4341967Y-12972222D01*
X4341967Y-12972222D02*
X4351491Y-12962698D01*
X4351491Y-12962698D02*
X4370539Y-12953174D01*
X4370539Y-12953174D02*
X4418158Y-12953174D01*
X4418158Y-12953174D02*
X4437205Y-12962698D01*
X4437205Y-12962698D02*
X4446729Y-12972222D01*
X4446729Y-12972222D02*
X4456253Y-12991269D01*
X4456253Y-12991269D02*
X4456253Y-13038888D01*
X4456253Y-13038888D02*
X4446729Y-13057936D01*
X4446729Y-13057936D02*
X4437205Y-13067460D01*
X4437205Y-13067460D02*
X4418158Y-13076984D01*
X4418158Y-13076984D02*
X4370539Y-13076984D01*
X4370539Y-13076984D02*
X4351491Y-13067460D01*
X4351491Y-13067460D02*
X4341967Y-13057936D01*
X4580063Y-12876984D02*
X4599110Y-12876984D01*
X4599110Y-12876984D02*
X4618158Y-12886508D01*
X4618158Y-12886508D02*
X4627682Y-12896031D01*
X4627682Y-12896031D02*
X4637205Y-12915079D01*
X4637205Y-12915079D02*
X4646729Y-12953174D01*
X4646729Y-12953174D02*
X4646729Y-13000793D01*
X4646729Y-13000793D02*
X4637205Y-13038888D01*
X4637205Y-13038888D02*
X4627682Y-13057936D01*
X4627682Y-13057936D02*
X4618158Y-13067460D01*
X4618158Y-13067460D02*
X4599110Y-13076984D01*
X4599110Y-13076984D02*
X4580063Y-13076984D01*
X4580063Y-13076984D02*
X4561015Y-13067460D01*
X4561015Y-13067460D02*
X4551491Y-13057936D01*
X4551491Y-13057936D02*
X4541967Y-13038888D01*
X4541967Y-13038888D02*
X4532444Y-13000793D01*
X4532444Y-13000793D02*
X4532444Y-12953174D01*
X4532444Y-12953174D02*
X4541967Y-12915079D01*
X4541967Y-12915079D02*
X4551491Y-12896031D01*
X4551491Y-12896031D02*
X4561015Y-12886508D01*
X4561015Y-12886508D02*
X4580063Y-12876984D01*
X4770539Y-12876984D02*
X4789586Y-12876984D01*
X4789586Y-12876984D02*
X4808634Y-12886508D01*
X4808634Y-12886508D02*
X4818158Y-12896031D01*
X4818158Y-12896031D02*
X4827682Y-12915079D01*
X4827682Y-12915079D02*
X4837205Y-12953174D01*
X4837205Y-12953174D02*
X4837205Y-13000793D01*
X4837205Y-13000793D02*
X4827682Y-13038888D01*
X4827682Y-13038888D02*
X4818158Y-13057936D01*
X4818158Y-13057936D02*
X4808634Y-13067460D01*
X4808634Y-13067460D02*
X4789586Y-13076984D01*
X4789586Y-13076984D02*
X4770539Y-13076984D01*
X4770539Y-13076984D02*
X4751491Y-13067460D01*
X4751491Y-13067460D02*
X4741967Y-13057936D01*
X4741967Y-13057936D02*
X4732444Y-13038888D01*
X4732444Y-13038888D02*
X4722920Y-13000793D01*
X4722920Y-13000793D02*
X4722920Y-12953174D01*
X4722920Y-12953174D02*
X4732444Y-12915079D01*
X4732444Y-12915079D02*
X4741967Y-12896031D01*
X4741967Y-12896031D02*
X4751491Y-12886508D01*
X4751491Y-12886508D02*
X4770539Y-12876984D01*
X4922920Y-13076984D02*
X4922920Y-12943650D01*
X4922920Y-12962698D02*
X4932444Y-12953174D01*
X4932444Y-12953174D02*
X4951491Y-12943650D01*
X4951491Y-12943650D02*
X4980063Y-12943650D01*
X4980063Y-12943650D02*
X4999110Y-12953174D01*
X4999110Y-12953174D02*
X5008634Y-12972222D01*
X5008634Y-12972222D02*
X5008634Y-13076984D01*
X5008634Y-12972222D02*
X5018158Y-12953174D01*
X5018158Y-12953174D02*
X5037205Y-12943650D01*
X5037205Y-12943650D02*
X5065777Y-12943650D01*
X5065777Y-12943650D02*
X5084825Y-12953174D01*
X5084825Y-12953174D02*
X5094348Y-12972222D01*
X5094348Y-12972222D02*
X5094348Y-13076984D01*
X5189586Y-13076984D02*
X5189586Y-12943650D01*
X5189586Y-12962698D02*
X5199110Y-12953174D01*
X5199110Y-12953174D02*
X5218158Y-12943650D01*
X5218158Y-12943650D02*
X5246729Y-12943650D01*
X5246729Y-12943650D02*
X5265777Y-12953174D01*
X5265777Y-12953174D02*
X5275301Y-12972222D01*
X5275301Y-12972222D02*
X5275301Y-13076984D01*
X5275301Y-12972222D02*
X5284825Y-12953174D01*
X5284825Y-12953174D02*
X5303872Y-12943650D01*
X5303872Y-12943650D02*
X5332444Y-12943650D01*
X5332444Y-12943650D02*
X5351491Y-12953174D01*
X5351491Y-12953174D02*
X5361015Y-12972222D01*
X5361015Y-12972222D02*
X5361015Y-13076984D01*
X5751491Y-12867460D02*
X5580063Y-13124603D01*
X6008634Y-12876984D02*
X6027682Y-12876984D01*
X6027682Y-12876984D02*
X6046729Y-12886508D01*
X6046729Y-12886508D02*
X6056253Y-12896031D01*
X6056253Y-12896031D02*
X6065777Y-12915079D01*
X6065777Y-12915079D02*
X6075301Y-12953174D01*
X6075301Y-12953174D02*
X6075301Y-13000793D01*
X6075301Y-13000793D02*
X6065777Y-13038888D01*
X6065777Y-13038888D02*
X6056253Y-13057936D01*
X6056253Y-13057936D02*
X6046729Y-13067460D01*
X6046729Y-13067460D02*
X6027682Y-13076984D01*
X6027682Y-13076984D02*
X6008634Y-13076984D01*
X6008634Y-13076984D02*
X5989586Y-13067460D01*
X5989586Y-13067460D02*
X5980063Y-13057936D01*
X5980063Y-13057936D02*
X5970539Y-13038888D01*
X5970539Y-13038888D02*
X5961015Y-13000793D01*
X5961015Y-13000793D02*
X5961015Y-12953174D01*
X5961015Y-12953174D02*
X5970539Y-12915079D01*
X5970539Y-12915079D02*
X5980063Y-12896031D01*
X5980063Y-12896031D02*
X5989586Y-12886508D01*
X5989586Y-12886508D02*
X6008634Y-12876984D01*
X6161015Y-13057936D02*
X6170539Y-13067460D01*
X6170539Y-13067460D02*
X6161015Y-13076984D01*
X6161015Y-13076984D02*
X6151491Y-13067460D01*
X6151491Y-13067460D02*
X6161015Y-13057936D01*
X6161015Y-13057936D02*
X6161015Y-13076984D01*
X6294348Y-12876984D02*
X6313396Y-12876984D01*
X6313396Y-12876984D02*
X6332444Y-12886508D01*
X6332444Y-12886508D02*
X6341967Y-12896031D01*
X6341967Y-12896031D02*
X6351491Y-12915079D01*
X6351491Y-12915079D02*
X6361015Y-12953174D01*
X6361015Y-12953174D02*
X6361015Y-13000793D01*
X6361015Y-13000793D02*
X6351491Y-13038888D01*
X6351491Y-13038888D02*
X6341967Y-13057936D01*
X6341967Y-13057936D02*
X6332444Y-13067460D01*
X6332444Y-13067460D02*
X6313396Y-13076984D01*
X6313396Y-13076984D02*
X6294348Y-13076984D01*
X6294348Y-13076984D02*
X6275301Y-13067460D01*
X6275301Y-13067460D02*
X6265777Y-13057936D01*
X6265777Y-13057936D02*
X6256253Y-13038888D01*
X6256253Y-13038888D02*
X6246729Y-13000793D01*
X6246729Y-13000793D02*
X6246729Y-12953174D01*
X6246729Y-12953174D02*
X6256253Y-12915079D01*
X6256253Y-12915079D02*
X6265777Y-12896031D01*
X6265777Y-12896031D02*
X6275301Y-12886508D01*
X6275301Y-12886508D02*
X6294348Y-12876984D01*
X6456253Y-13076984D02*
X6494348Y-13076984D01*
X6494348Y-13076984D02*
X6513396Y-13067460D01*
X6513396Y-13067460D02*
X6522920Y-13057936D01*
X6522920Y-13057936D02*
X6541967Y-13029365D01*
X6541967Y-13029365D02*
X6551491Y-12991269D01*
X6551491Y-12991269D02*
X6551491Y-12915079D01*
X6551491Y-12915079D02*
X6541967Y-12896031D01*
X6541967Y-12896031D02*
X6532444Y-12886508D01*
X6532444Y-12886508D02*
X6513396Y-12876984D01*
X6513396Y-12876984D02*
X6475301Y-12876984D01*
X6475301Y-12876984D02*
X6456253Y-12886508D01*
X6456253Y-12886508D02*
X6446729Y-12896031D01*
X6446729Y-12896031D02*
X6437206Y-12915079D01*
X6437206Y-12915079D02*
X6437206Y-12962698D01*
X6437206Y-12962698D02*
X6446729Y-12981746D01*
X6446729Y-12981746D02*
X6456253Y-12991269D01*
X6456253Y-12991269D02*
X6475301Y-13000793D01*
X6475301Y-13000793D02*
X6513396Y-13000793D01*
X6513396Y-13000793D02*
X6532444Y-12991269D01*
X6532444Y-12991269D02*
X6541967Y-12981746D01*
X6541967Y-12981746D02*
X6551491Y-12962698D01*
X6665777Y-12962698D02*
X6646729Y-12953174D01*
X6646729Y-12953174D02*
X6637206Y-12943650D01*
X6637206Y-12943650D02*
X6627682Y-12924603D01*
X6627682Y-12924603D02*
X6627682Y-12915079D01*
X6627682Y-12915079D02*
X6637206Y-12896031D01*
X6637206Y-12896031D02*
X6646729Y-12886508D01*
X6646729Y-12886508D02*
X6665777Y-12876984D01*
X6665777Y-12876984D02*
X6703872Y-12876984D01*
X6703872Y-12876984D02*
X6722920Y-12886508D01*
X6722920Y-12886508D02*
X6732444Y-12896031D01*
X6732444Y-12896031D02*
X6741967Y-12915079D01*
X6741967Y-12915079D02*
X6741967Y-12924603D01*
X6741967Y-12924603D02*
X6732444Y-12943650D01*
X6732444Y-12943650D02*
X6722920Y-12953174D01*
X6722920Y-12953174D02*
X6703872Y-12962698D01*
X6703872Y-12962698D02*
X6665777Y-12962698D01*
X6665777Y-12962698D02*
X6646729Y-12972222D01*
X6646729Y-12972222D02*
X6637206Y-12981746D01*
X6637206Y-12981746D02*
X6627682Y-13000793D01*
X6627682Y-13000793D02*
X6627682Y-13038888D01*
X6627682Y-13038888D02*
X6637206Y-13057936D01*
X6637206Y-13057936D02*
X6646729Y-13067460D01*
X6646729Y-13067460D02*
X6665777Y-13076984D01*
X6665777Y-13076984D02*
X6703872Y-13076984D01*
X6703872Y-13076984D02*
X6722920Y-13067460D01*
X6722920Y-13067460D02*
X6732444Y-13057936D01*
X6732444Y-13057936D02*
X6741967Y-13038888D01*
X6741967Y-13038888D02*
X6741967Y-13000793D01*
X6741967Y-13000793D02*
X6732444Y-12981746D01*
X6732444Y-12981746D02*
X6722920Y-12972222D01*
X6722920Y-12972222D02*
X6703872Y-12962698D01*
X6913396Y-12943650D02*
X6913396Y-13076984D01*
X6865777Y-12867460D02*
X6818158Y-13010317D01*
X6818158Y-13010317D02*
X6941967Y-13010317D01*
X7008634Y-12876984D02*
X7008634Y-12915079D01*
X7084825Y-12876984D02*
X7084825Y-12915079D01*
X7380063Y-13153174D02*
X7370539Y-13143650D01*
X7370539Y-13143650D02*
X7351491Y-13115079D01*
X7351491Y-13115079D02*
X7341968Y-13096031D01*
X7341968Y-13096031D02*
X7332444Y-13067460D01*
X7332444Y-13067460D02*
X7322920Y-13019841D01*
X7322920Y-13019841D02*
X7322920Y-12981746D01*
X7322920Y-12981746D02*
X7332444Y-12934127D01*
X7332444Y-12934127D02*
X7341968Y-12905555D01*
X7341968Y-12905555D02*
X7351491Y-12886508D01*
X7351491Y-12886508D02*
X7370539Y-12857936D01*
X7370539Y-12857936D02*
X7380063Y-12848412D01*
X7541968Y-12943650D02*
X7541968Y-13076984D01*
X7494348Y-12867460D02*
X7446729Y-13010317D01*
X7446729Y-13010317D02*
X7570539Y-13010317D01*
X7799110Y-13076984D02*
X7799110Y-12876984D01*
X7884825Y-13076984D02*
X7884825Y-12972222D01*
X7884825Y-12972222D02*
X7875301Y-12953174D01*
X7875301Y-12953174D02*
X7856253Y-12943650D01*
X7856253Y-12943650D02*
X7827682Y-12943650D01*
X7827682Y-12943650D02*
X7808634Y-12953174D01*
X7808634Y-12953174D02*
X7799110Y-12962698D01*
X8008634Y-13076984D02*
X7989587Y-13067460D01*
X7989587Y-13067460D02*
X7980063Y-13057936D01*
X7980063Y-13057936D02*
X7970539Y-13038888D01*
X7970539Y-13038888D02*
X7970539Y-12981746D01*
X7970539Y-12981746D02*
X7980063Y-12962698D01*
X7980063Y-12962698D02*
X7989587Y-12953174D01*
X7989587Y-12953174D02*
X8008634Y-12943650D01*
X8008634Y-12943650D02*
X8037206Y-12943650D01*
X8037206Y-12943650D02*
X8056253Y-12953174D01*
X8056253Y-12953174D02*
X8065777Y-12962698D01*
X8065777Y-12962698D02*
X8075301Y-12981746D01*
X8075301Y-12981746D02*
X8075301Y-13038888D01*
X8075301Y-13038888D02*
X8065777Y-13057936D01*
X8065777Y-13057936D02*
X8056253Y-13067460D01*
X8056253Y-13067460D02*
X8037206Y-13076984D01*
X8037206Y-13076984D02*
X8008634Y-13076984D01*
X8189587Y-13076984D02*
X8170539Y-13067460D01*
X8170539Y-13067460D02*
X8161015Y-13048412D01*
X8161015Y-13048412D02*
X8161015Y-12876984D01*
X8341968Y-13067460D02*
X8322920Y-13076984D01*
X8322920Y-13076984D02*
X8284825Y-13076984D01*
X8284825Y-13076984D02*
X8265777Y-13067460D01*
X8265777Y-13067460D02*
X8256253Y-13048412D01*
X8256253Y-13048412D02*
X8256253Y-12972222D01*
X8256253Y-12972222D02*
X8265777Y-12953174D01*
X8265777Y-12953174D02*
X8284825Y-12943650D01*
X8284825Y-12943650D02*
X8322920Y-12943650D01*
X8322920Y-12943650D02*
X8341968Y-12953174D01*
X8341968Y-12953174D02*
X8351491Y-12972222D01*
X8351491Y-12972222D02*
X8351491Y-12991269D01*
X8351491Y-12991269D02*
X8256253Y-13010317D01*
X8427682Y-13067460D02*
X8446730Y-13076984D01*
X8446730Y-13076984D02*
X8484825Y-13076984D01*
X8484825Y-13076984D02*
X8503873Y-13067460D01*
X8503873Y-13067460D02*
X8513396Y-13048412D01*
X8513396Y-13048412D02*
X8513396Y-13038888D01*
X8513396Y-13038888D02*
X8503873Y-13019841D01*
X8503873Y-13019841D02*
X8484825Y-13010317D01*
X8484825Y-13010317D02*
X8456253Y-13010317D01*
X8456253Y-13010317D02*
X8437206Y-13000793D01*
X8437206Y-13000793D02*
X8427682Y-12981746D01*
X8427682Y-12981746D02*
X8427682Y-12972222D01*
X8427682Y-12972222D02*
X8437206Y-12953174D01*
X8437206Y-12953174D02*
X8456253Y-12943650D01*
X8456253Y-12943650D02*
X8484825Y-12943650D01*
X8484825Y-12943650D02*
X8503873Y-12953174D01*
X8580063Y-13153174D02*
X8589587Y-13143650D01*
X8589587Y-13143650D02*
X8608634Y-13115079D01*
X8608634Y-13115079D02*
X8618158Y-13096031D01*
X8618158Y-13096031D02*
X8627682Y-13067460D01*
X8627682Y-13067460D02*
X8637206Y-13019841D01*
X8637206Y-13019841D02*
X8637206Y-12981746D01*
X8637206Y-12981746D02*
X8627682Y-12934127D01*
X8627682Y-12934127D02*
X8618158Y-12905555D01*
X8618158Y-12905555D02*
X8608634Y-12886508D01*
X8608634Y-12886508D02*
X8589587Y-12857936D01*
X8589587Y-12857936D02*
X8580063Y-12848412D01*
X8941968Y-13153174D02*
X8932444Y-13143650D01*
X8932444Y-13143650D02*
X8913396Y-13115079D01*
X8913396Y-13115079D02*
X8903873Y-13096031D01*
X8903873Y-13096031D02*
X8894349Y-13067460D01*
X8894349Y-13067460D02*
X8884825Y-13019841D01*
X8884825Y-13019841D02*
X8884825Y-12981746D01*
X8884825Y-12981746D02*
X8894349Y-12934127D01*
X8894349Y-12934127D02*
X8903873Y-12905555D01*
X8903873Y-12905555D02*
X8913396Y-12886508D01*
X8913396Y-12886508D02*
X8932444Y-12857936D01*
X8932444Y-12857936D02*
X8941968Y-12848412D01*
X9018158Y-12943650D02*
X9018158Y-13076984D01*
X9018158Y-12962698D02*
X9027682Y-12953174D01*
X9027682Y-12953174D02*
X9046730Y-12943650D01*
X9046730Y-12943650D02*
X9075301Y-12943650D01*
X9075301Y-12943650D02*
X9094349Y-12953174D01*
X9094349Y-12953174D02*
X9103873Y-12972222D01*
X9103873Y-12972222D02*
X9103873Y-13076984D01*
X9227682Y-13076984D02*
X9208634Y-13067460D01*
X9208634Y-13067460D02*
X9199111Y-13057936D01*
X9199111Y-13057936D02*
X9189587Y-13038888D01*
X9189587Y-13038888D02*
X9189587Y-12981746D01*
X9189587Y-12981746D02*
X9199111Y-12962698D01*
X9199111Y-12962698D02*
X9208634Y-12953174D01*
X9208634Y-12953174D02*
X9227682Y-12943650D01*
X9227682Y-12943650D02*
X9256254Y-12943650D01*
X9256254Y-12943650D02*
X9275301Y-12953174D01*
X9275301Y-12953174D02*
X9284825Y-12962698D01*
X9284825Y-12962698D02*
X9294349Y-12981746D01*
X9294349Y-12981746D02*
X9294349Y-13038888D01*
X9294349Y-13038888D02*
X9284825Y-13057936D01*
X9284825Y-13057936D02*
X9275301Y-13067460D01*
X9275301Y-13067460D02*
X9256254Y-13076984D01*
X9256254Y-13076984D02*
X9227682Y-13076984D01*
X9351492Y-12943650D02*
X9427682Y-12943650D01*
X9380063Y-12876984D02*
X9380063Y-13048412D01*
X9380063Y-13048412D02*
X9389587Y-13067460D01*
X9389587Y-13067460D02*
X9408634Y-13076984D01*
X9408634Y-13076984D02*
X9427682Y-13076984D01*
X9646730Y-12943650D02*
X9646730Y-13143650D01*
X9646730Y-12953174D02*
X9665777Y-12943650D01*
X9665777Y-12943650D02*
X9703873Y-12943650D01*
X9703873Y-12943650D02*
X9722920Y-12953174D01*
X9722920Y-12953174D02*
X9732444Y-12962698D01*
X9732444Y-12962698D02*
X9741968Y-12981746D01*
X9741968Y-12981746D02*
X9741968Y-13038888D01*
X9741968Y-13038888D02*
X9732444Y-13057936D01*
X9732444Y-13057936D02*
X9722920Y-13067460D01*
X9722920Y-13067460D02*
X9703873Y-13076984D01*
X9703873Y-13076984D02*
X9665777Y-13076984D01*
X9665777Y-13076984D02*
X9646730Y-13067460D01*
X9856254Y-13076984D02*
X9837206Y-13067460D01*
X9837206Y-13067460D02*
X9827682Y-13048412D01*
X9827682Y-13048412D02*
X9827682Y-12876984D01*
X10018158Y-13076984D02*
X10018158Y-12972222D01*
X10018158Y-12972222D02*
X10008635Y-12953174D01*
X10008635Y-12953174D02*
X9989587Y-12943650D01*
X9989587Y-12943650D02*
X9951492Y-12943650D01*
X9951492Y-12943650D02*
X9932444Y-12953174D01*
X10018158Y-13067460D02*
X9999111Y-13076984D01*
X9999111Y-13076984D02*
X9951492Y-13076984D01*
X9951492Y-13076984D02*
X9932444Y-13067460D01*
X9932444Y-13067460D02*
X9922920Y-13048412D01*
X9922920Y-13048412D02*
X9922920Y-13029365D01*
X9922920Y-13029365D02*
X9932444Y-13010317D01*
X9932444Y-13010317D02*
X9951492Y-13000793D01*
X9951492Y-13000793D02*
X9999111Y-13000793D01*
X9999111Y-13000793D02*
X10018158Y-12991269D01*
X10084825Y-12943650D02*
X10161015Y-12943650D01*
X10113396Y-12876984D02*
X10113396Y-13048412D01*
X10113396Y-13048412D02*
X10122920Y-13067460D01*
X10122920Y-13067460D02*
X10141968Y-13076984D01*
X10141968Y-13076984D02*
X10161015Y-13076984D01*
X10303873Y-13067460D02*
X10284825Y-13076984D01*
X10284825Y-13076984D02*
X10246730Y-13076984D01*
X10246730Y-13076984D02*
X10227682Y-13067460D01*
X10227682Y-13067460D02*
X10218158Y-13048412D01*
X10218158Y-13048412D02*
X10218158Y-12972222D01*
X10218158Y-12972222D02*
X10227682Y-12953174D01*
X10227682Y-12953174D02*
X10246730Y-12943650D01*
X10246730Y-12943650D02*
X10284825Y-12943650D01*
X10284825Y-12943650D02*
X10303873Y-12953174D01*
X10303873Y-12953174D02*
X10313396Y-12972222D01*
X10313396Y-12972222D02*
X10313396Y-12991269D01*
X10313396Y-12991269D02*
X10218158Y-13010317D01*
X10484825Y-13076984D02*
X10484825Y-12876984D01*
X10484825Y-13067460D02*
X10465777Y-13076984D01*
X10465777Y-13076984D02*
X10427682Y-13076984D01*
X10427682Y-13076984D02*
X10408635Y-13067460D01*
X10408635Y-13067460D02*
X10399111Y-13057936D01*
X10399111Y-13057936D02*
X10389587Y-13038888D01*
X10389587Y-13038888D02*
X10389587Y-12981746D01*
X10389587Y-12981746D02*
X10399111Y-12962698D01*
X10399111Y-12962698D02*
X10408635Y-12953174D01*
X10408635Y-12953174D02*
X10427682Y-12943650D01*
X10427682Y-12943650D02*
X10465777Y-12943650D01*
X10465777Y-12943650D02*
X10484825Y-12953174D01*
X10561016Y-13153174D02*
X10570539Y-13143650D01*
X10570539Y-13143650D02*
X10589587Y-13115079D01*
X10589587Y-13115079D02*
X10599111Y-13096031D01*
X10599111Y-13096031D02*
X10608635Y-13067460D01*
X10608635Y-13067460D02*
X10618158Y-13019841D01*
X10618158Y-13019841D02*
X10618158Y-12981746D01*
X10618158Y-12981746D02*
X10608635Y-12934127D01*
X10608635Y-12934127D02*
X10599111Y-12905555D01*
X10599111Y-12905555D02*
X10589587Y-12886508D01*
X10589587Y-12886508D02*
X10570539Y-12857936D01*
X10570539Y-12857936D02*
X10561016Y-12848412D01*
M02*
