M48
; DRILL file {KiCad 8.0.3} date 2024-06-22T14:52:26+0200
; FORMAT={-:-/ absolute / metric / decimal}
; #@! TF.CreationDate,2024-06-22T14:52:26+02:00
; #@! TF.GenerationSoftware,Kicad,Pcbnew,8.0.3
; #@! TF.FileFunction,Plated,1,2,PTH
FMAT,2
METRIC
; #@! TA.AperFunction,Plated,PTH,ComponentDrill
T1C0.200
; #@! TA.AperFunction,Plated,PTH,ViaDrill
T2C0.400
; #@! TA.AperFunction,Plated,PTH,ComponentDrill
T3C0.600
; #@! TA.AperFunction,Plated,PTH,ComponentDrill
T4C0.850
; #@! TA.AperFunction,Plated,PTH,ComponentDrill
T5C1.000
; #@! TA.AperFunction,Plated,PTH,ComponentDrill
T6C1.200
; #@! TA.AperFunction,Plated,PTH,ComponentDrill
T7C1.600
%
G90
G05
T1
X97.255Y-104.13
X97.255Y-105.53
X97.955Y-103.43
X97.955Y-104.83
X97.955Y-106.23
X98.655Y-104.13
X98.655Y-105.53
X99.355Y-103.43
X99.355Y-104.83
X99.355Y-106.23
X100.055Y-104.13
X100.055Y-105.53
T2
X63.5Y-106.36
X64.77Y-81.915
X67.31Y-92.71
X68.897Y-74.612
X69.85Y-94.615
X75.565Y-97.79
X75.565Y-103.505
X75.882Y-108.902
X78.74Y-103.505
X80.645Y-116.205
X83.185Y-108.585
X85.09Y-106.68
X85.725Y-111.125
X88.265Y-116.205
X90.805Y-98.425
X90.805Y-100.965
X90.805Y-103.505
X90.805Y-106.045
X90.805Y-108.585
X90.805Y-111.125
X90.805Y-113.665
X93.345Y-98.425
X93.345Y-100.965
X93.345Y-103.505
X93.345Y-106.045
X93.345Y-108.585
X93.345Y-111.125
X93.345Y-113.665
X95.885Y-98.425
X95.885Y-100.965
X95.885Y-108.585
X95.885Y-111.125
X95.885Y-113.665
X98.425Y-81.28
X98.425Y-98.425
X98.425Y-100.965
X98.425Y-108.585
X98.425Y-111.125
X98.425Y-113.665
X100.965Y-98.425
X100.965Y-100.965
X100.965Y-108.585
X100.965Y-111.125
X100.965Y-113.665
X103.505Y-98.425
X103.505Y-100.965
X103.505Y-103.505
X103.505Y-106.045
X103.505Y-108.585
X103.505Y-111.125
X103.505Y-113.665
X105.41Y-90.805
X111.76Y-102.235
X113.03Y-97.79
X114.935Y-100.965
X116.205Y-111.125
X119.38Y-93.98
X121.285Y-103.505
X121.92Y-107.95
X122.456Y-99.315
X125.095Y-110.49
X125.909Y-91.44
X128.449Y-93.345
X130.989Y-99.315
X132.398Y-108.267
X133.529Y-100.33
X133.985Y-86.995
X137.16Y-110.49
X137.16Y-114.935
X137.795Y-102.235
X139.517Y-108.132
X142.24Y-113.03
X142.875Y-106.68
X149.225Y-103.505
X153.67Y-76.835
X153.67Y-90.805
X154.94Y-102.235
X155.575Y-86.995
X156.21Y-106.045
X156.845Y-80.01
X157.48Y-84.455
X157.48Y-93.98
X157.48Y-115.57
X158.75Y-109.22
X160.655Y-72.39
X160.655Y-90.805
X161.29Y-80.645
X162.56Y-113.03
X168.035Y-84.455
X168.91Y-79.375
X173.355Y-72.39
X173.99Y-95.885
T4
X164.505Y-73.267
X169.505Y-73.267
T5
X161.29Y-99.695
X163.83Y-99.695
X166.37Y-99.695
X168.91Y-99.695
X171.45Y-99.695
X173.99Y-99.695
T6
X49.38Y-83.675
X53.19Y-83.675
X53.19Y-88.755
X57.0Y-83.675
X83.67Y-83.675
X83.67Y-88.755
X105.9Y-78.1
X114.15Y-84.455
X114.15Y-88.27
X121.13Y-84.455
X136.38Y-77.955
X144.63Y-88.125
T7
X46.21Y-88.755
X60.17Y-88.755
X79.86Y-88.755
X87.48Y-88.755
X110.34Y-88.27
X117.96Y-88.27
X140.82Y-83.675
X148.44Y-84.31
T3
X163.505Y-70.917G85X163.505Y-70.217
G05
X170.505Y-70.217G85X170.505Y-70.917
G05
M30
