%TF.GenerationSoftware,KiCad,Pcbnew,8.0.3*%
%TF.CreationDate,2024-06-22T14:52:27+02:00*%
%TF.ProjectId,dmx-box-rounded,646d782d-626f-4782-9d72-6f756e646564,rev?*%
%TF.SameCoordinates,Original*%
%TF.FileFunction,Drillmap*%
%TF.FilePolarity,Positive*%
%FSLAX45Y45*%
G04 Gerber Fmt 4.5, Leading zero omitted, Abs format (unit mm)*
G04 Created by KiCad (PCBNEW 8.0.3) date 2024-06-22 14:52:27*
%MOMM*%
%LPD*%
G01*
G04 APERTURE LIST*
%ADD10C,0.100000*%
%ADD11C,0.200000*%
%ADD12C,0.120000*%
%ADD13C,0.160000*%
G04 APERTURE END LIST*
D10*
X17462500Y-7112000D02*
X17653000Y-7112000D01*
X17653000Y-12060500D01*
X3810000Y-12060500D01*
X3810000Y-7112000D01*
X15938500Y-7112000D01*
X16129000Y-6917000D01*
X17272000Y-6917000D01*
X17462500Y-7112000D01*
D11*
D10*
X9715500Y-10403000D02*
X9735500Y-10423000D01*
X9735500Y-10403000D02*
X9715500Y-10423000D01*
X9715500Y-10543000D02*
X9735500Y-10563000D01*
X9735500Y-10543000D02*
X9715500Y-10563000D01*
X9785500Y-10333000D02*
X9805500Y-10353000D01*
X9805500Y-10333000D02*
X9785500Y-10353000D01*
X9785500Y-10473000D02*
X9805500Y-10493000D01*
X9805500Y-10473000D02*
X9785500Y-10493000D01*
X9785500Y-10613000D02*
X9805500Y-10633000D01*
X9805500Y-10613000D02*
X9785500Y-10633000D01*
X9855500Y-10403000D02*
X9875500Y-10423000D01*
X9875500Y-10403000D02*
X9855500Y-10423000D01*
X9855500Y-10543000D02*
X9875500Y-10563000D01*
X9875500Y-10543000D02*
X9855500Y-10563000D01*
X9925500Y-10333000D02*
X9945500Y-10353000D01*
X9945500Y-10333000D02*
X9925500Y-10353000D01*
X9925500Y-10473000D02*
X9945500Y-10493000D01*
X9945500Y-10473000D02*
X9925500Y-10493000D01*
X9925500Y-10613000D02*
X9945500Y-10633000D01*
X9945500Y-10613000D02*
X9925500Y-10633000D01*
X9995500Y-10403000D02*
X10015500Y-10423000D01*
X10015500Y-10403000D02*
X9995500Y-10423000D01*
X9995500Y-10543000D02*
X10015500Y-10563000D01*
X10015500Y-10543000D02*
X9995500Y-10563000D01*
X6370000Y-10636000D02*
G75*
G02*
X6330000Y-10636000I-20000J0D01*
G01*
X6330000Y-10636000D02*
G75*
G02*
X6370000Y-10636000I20000J0D01*
G01*
X6497000Y-8191500D02*
G75*
G02*
X6457000Y-8191500I-20000J0D01*
G01*
X6457000Y-8191500D02*
G75*
G02*
X6497000Y-8191500I20000J0D01*
G01*
X6751000Y-9271000D02*
G75*
G02*
X6711000Y-9271000I-20000J0D01*
G01*
X6711000Y-9271000D02*
G75*
G02*
X6751000Y-9271000I20000J0D01*
G01*
X6909750Y-7461250D02*
G75*
G02*
X6869750Y-7461250I-20000J0D01*
G01*
X6869750Y-7461250D02*
G75*
G02*
X6909750Y-7461250I20000J0D01*
G01*
X7005000Y-9461500D02*
G75*
G02*
X6965000Y-9461500I-20000J0D01*
G01*
X6965000Y-9461500D02*
G75*
G02*
X7005000Y-9461500I20000J0D01*
G01*
X7576500Y-9779000D02*
G75*
G02*
X7536500Y-9779000I-20000J0D01*
G01*
X7536500Y-9779000D02*
G75*
G02*
X7576500Y-9779000I20000J0D01*
G01*
X7576500Y-10350500D02*
G75*
G02*
X7536500Y-10350500I-20000J0D01*
G01*
X7536500Y-10350500D02*
G75*
G02*
X7576500Y-10350500I20000J0D01*
G01*
X7608250Y-10890250D02*
G75*
G02*
X7568250Y-10890250I-20000J0D01*
G01*
X7568250Y-10890250D02*
G75*
G02*
X7608250Y-10890250I20000J0D01*
G01*
X7894000Y-10350500D02*
G75*
G02*
X7854000Y-10350500I-20000J0D01*
G01*
X7854000Y-10350500D02*
G75*
G02*
X7894000Y-10350500I20000J0D01*
G01*
X8084500Y-11620500D02*
G75*
G02*
X8044500Y-11620500I-20000J0D01*
G01*
X8044500Y-11620500D02*
G75*
G02*
X8084500Y-11620500I20000J0D01*
G01*
X8338500Y-10858500D02*
G75*
G02*
X8298500Y-10858500I-20000J0D01*
G01*
X8298500Y-10858500D02*
G75*
G02*
X8338500Y-10858500I20000J0D01*
G01*
X8529000Y-10668000D02*
G75*
G02*
X8489000Y-10668000I-20000J0D01*
G01*
X8489000Y-10668000D02*
G75*
G02*
X8529000Y-10668000I20000J0D01*
G01*
X8592500Y-11112500D02*
G75*
G02*
X8552500Y-11112500I-20000J0D01*
G01*
X8552500Y-11112500D02*
G75*
G02*
X8592500Y-11112500I20000J0D01*
G01*
X8846500Y-11620500D02*
G75*
G02*
X8806500Y-11620500I-20000J0D01*
G01*
X8806500Y-11620500D02*
G75*
G02*
X8846500Y-11620500I20000J0D01*
G01*
X9100500Y-9842500D02*
G75*
G02*
X9060500Y-9842500I-20000J0D01*
G01*
X9060500Y-9842500D02*
G75*
G02*
X9100500Y-9842500I20000J0D01*
G01*
X9100500Y-10096500D02*
G75*
G02*
X9060500Y-10096500I-20000J0D01*
G01*
X9060500Y-10096500D02*
G75*
G02*
X9100500Y-10096500I20000J0D01*
G01*
X9100500Y-10350500D02*
G75*
G02*
X9060500Y-10350500I-20000J0D01*
G01*
X9060500Y-10350500D02*
G75*
G02*
X9100500Y-10350500I20000J0D01*
G01*
X9100500Y-10604500D02*
G75*
G02*
X9060500Y-10604500I-20000J0D01*
G01*
X9060500Y-10604500D02*
G75*
G02*
X9100500Y-10604500I20000J0D01*
G01*
X9100500Y-10858500D02*
G75*
G02*
X9060500Y-10858500I-20000J0D01*
G01*
X9060500Y-10858500D02*
G75*
G02*
X9100500Y-10858500I20000J0D01*
G01*
X9100500Y-11112500D02*
G75*
G02*
X9060500Y-11112500I-20000J0D01*
G01*
X9060500Y-11112500D02*
G75*
G02*
X9100500Y-11112500I20000J0D01*
G01*
X9100500Y-11366500D02*
G75*
G02*
X9060500Y-11366500I-20000J0D01*
G01*
X9060500Y-11366500D02*
G75*
G02*
X9100500Y-11366500I20000J0D01*
G01*
X9354500Y-9842500D02*
G75*
G02*
X9314500Y-9842500I-20000J0D01*
G01*
X9314500Y-9842500D02*
G75*
G02*
X9354500Y-9842500I20000J0D01*
G01*
X9354500Y-10096500D02*
G75*
G02*
X9314500Y-10096500I-20000J0D01*
G01*
X9314500Y-10096500D02*
G75*
G02*
X9354500Y-10096500I20000J0D01*
G01*
X9354500Y-10350500D02*
G75*
G02*
X9314500Y-10350500I-20000J0D01*
G01*
X9314500Y-10350500D02*
G75*
G02*
X9354500Y-10350500I20000J0D01*
G01*
X9354500Y-10604500D02*
G75*
G02*
X9314500Y-10604500I-20000J0D01*
G01*
X9314500Y-10604500D02*
G75*
G02*
X9354500Y-10604500I20000J0D01*
G01*
X9354500Y-10858500D02*
G75*
G02*
X9314500Y-10858500I-20000J0D01*
G01*
X9314500Y-10858500D02*
G75*
G02*
X9354500Y-10858500I20000J0D01*
G01*
X9354500Y-11112500D02*
G75*
G02*
X9314500Y-11112500I-20000J0D01*
G01*
X9314500Y-11112500D02*
G75*
G02*
X9354500Y-11112500I20000J0D01*
G01*
X9354500Y-11366500D02*
G75*
G02*
X9314500Y-11366500I-20000J0D01*
G01*
X9314500Y-11366500D02*
G75*
G02*
X9354500Y-11366500I20000J0D01*
G01*
X9608500Y-9842500D02*
G75*
G02*
X9568500Y-9842500I-20000J0D01*
G01*
X9568500Y-9842500D02*
G75*
G02*
X9608500Y-9842500I20000J0D01*
G01*
X9608500Y-10096500D02*
G75*
G02*
X9568500Y-10096500I-20000J0D01*
G01*
X9568500Y-10096500D02*
G75*
G02*
X9608500Y-10096500I20000J0D01*
G01*
X9608500Y-10858500D02*
G75*
G02*
X9568500Y-10858500I-20000J0D01*
G01*
X9568500Y-10858500D02*
G75*
G02*
X9608500Y-10858500I20000J0D01*
G01*
X9608500Y-11112500D02*
G75*
G02*
X9568500Y-11112500I-20000J0D01*
G01*
X9568500Y-11112500D02*
G75*
G02*
X9608500Y-11112500I20000J0D01*
G01*
X9608500Y-11366500D02*
G75*
G02*
X9568500Y-11366500I-20000J0D01*
G01*
X9568500Y-11366500D02*
G75*
G02*
X9608500Y-11366500I20000J0D01*
G01*
X9862500Y-8128000D02*
G75*
G02*
X9822500Y-8128000I-20000J0D01*
G01*
X9822500Y-8128000D02*
G75*
G02*
X9862500Y-8128000I20000J0D01*
G01*
X9862500Y-9842500D02*
G75*
G02*
X9822500Y-9842500I-20000J0D01*
G01*
X9822500Y-9842500D02*
G75*
G02*
X9862500Y-9842500I20000J0D01*
G01*
X9862500Y-10096500D02*
G75*
G02*
X9822500Y-10096500I-20000J0D01*
G01*
X9822500Y-10096500D02*
G75*
G02*
X9862500Y-10096500I20000J0D01*
G01*
X9862500Y-10858500D02*
G75*
G02*
X9822500Y-10858500I-20000J0D01*
G01*
X9822500Y-10858500D02*
G75*
G02*
X9862500Y-10858500I20000J0D01*
G01*
X9862500Y-11112500D02*
G75*
G02*
X9822500Y-11112500I-20000J0D01*
G01*
X9822500Y-11112500D02*
G75*
G02*
X9862500Y-11112500I20000J0D01*
G01*
X9862500Y-11366500D02*
G75*
G02*
X9822500Y-11366500I-20000J0D01*
G01*
X9822500Y-11366500D02*
G75*
G02*
X9862500Y-11366500I20000J0D01*
G01*
X10116500Y-9842500D02*
G75*
G02*
X10076500Y-9842500I-20000J0D01*
G01*
X10076500Y-9842500D02*
G75*
G02*
X10116500Y-9842500I20000J0D01*
G01*
X10116500Y-10096500D02*
G75*
G02*
X10076500Y-10096500I-20000J0D01*
G01*
X10076500Y-10096500D02*
G75*
G02*
X10116500Y-10096500I20000J0D01*
G01*
X10116500Y-10858500D02*
G75*
G02*
X10076500Y-10858500I-20000J0D01*
G01*
X10076500Y-10858500D02*
G75*
G02*
X10116500Y-10858500I20000J0D01*
G01*
X10116500Y-11112500D02*
G75*
G02*
X10076500Y-11112500I-20000J0D01*
G01*
X10076500Y-11112500D02*
G75*
G02*
X10116500Y-11112500I20000J0D01*
G01*
X10116500Y-11366500D02*
G75*
G02*
X10076500Y-11366500I-20000J0D01*
G01*
X10076500Y-11366500D02*
G75*
G02*
X10116500Y-11366500I20000J0D01*
G01*
X10370500Y-9842500D02*
G75*
G02*
X10330500Y-9842500I-20000J0D01*
G01*
X10330500Y-9842500D02*
G75*
G02*
X10370500Y-9842500I20000J0D01*
G01*
X10370500Y-10096500D02*
G75*
G02*
X10330500Y-10096500I-20000J0D01*
G01*
X10330500Y-10096500D02*
G75*
G02*
X10370500Y-10096500I20000J0D01*
G01*
X10370500Y-10350500D02*
G75*
G02*
X10330500Y-10350500I-20000J0D01*
G01*
X10330500Y-10350500D02*
G75*
G02*
X10370500Y-10350500I20000J0D01*
G01*
X10370500Y-10604500D02*
G75*
G02*
X10330500Y-10604500I-20000J0D01*
G01*
X10330500Y-10604500D02*
G75*
G02*
X10370500Y-10604500I20000J0D01*
G01*
X10370500Y-10858500D02*
G75*
G02*
X10330500Y-10858500I-20000J0D01*
G01*
X10330500Y-10858500D02*
G75*
G02*
X10370500Y-10858500I20000J0D01*
G01*
X10370500Y-11112500D02*
G75*
G02*
X10330500Y-11112500I-20000J0D01*
G01*
X10330500Y-11112500D02*
G75*
G02*
X10370500Y-11112500I20000J0D01*
G01*
X10370500Y-11366500D02*
G75*
G02*
X10330500Y-11366500I-20000J0D01*
G01*
X10330500Y-11366500D02*
G75*
G02*
X10370500Y-11366500I20000J0D01*
G01*
X10561000Y-9080500D02*
G75*
G02*
X10521000Y-9080500I-20000J0D01*
G01*
X10521000Y-9080500D02*
G75*
G02*
X10561000Y-9080500I20000J0D01*
G01*
X11196000Y-10223500D02*
G75*
G02*
X11156000Y-10223500I-20000J0D01*
G01*
X11156000Y-10223500D02*
G75*
G02*
X11196000Y-10223500I20000J0D01*
G01*
X11323000Y-9779000D02*
G75*
G02*
X11283000Y-9779000I-20000J0D01*
G01*
X11283000Y-9779000D02*
G75*
G02*
X11323000Y-9779000I20000J0D01*
G01*
X11513500Y-10096500D02*
G75*
G02*
X11473500Y-10096500I-20000J0D01*
G01*
X11473500Y-10096500D02*
G75*
G02*
X11513500Y-10096500I20000J0D01*
G01*
X11640500Y-11112500D02*
G75*
G02*
X11600500Y-11112500I-20000J0D01*
G01*
X11600500Y-11112500D02*
G75*
G02*
X11640500Y-11112500I20000J0D01*
G01*
X11958000Y-9398000D02*
G75*
G02*
X11918000Y-9398000I-20000J0D01*
G01*
X11918000Y-9398000D02*
G75*
G02*
X11958000Y-9398000I20000J0D01*
G01*
X12148500Y-10350500D02*
G75*
G02*
X12108500Y-10350500I-20000J0D01*
G01*
X12108500Y-10350500D02*
G75*
G02*
X12148500Y-10350500I20000J0D01*
G01*
X12212000Y-10795000D02*
G75*
G02*
X12172000Y-10795000I-20000J0D01*
G01*
X12172000Y-10795000D02*
G75*
G02*
X12212000Y-10795000I20000J0D01*
G01*
X12265625Y-9931500D02*
G75*
G02*
X12225625Y-9931500I-20000J0D01*
G01*
X12225625Y-9931500D02*
G75*
G02*
X12265625Y-9931500I20000J0D01*
G01*
X12529500Y-11049000D02*
G75*
G02*
X12489500Y-11049000I-20000J0D01*
G01*
X12489500Y-11049000D02*
G75*
G02*
X12529500Y-11049000I20000J0D01*
G01*
X12610875Y-9144000D02*
G75*
G02*
X12570875Y-9144000I-20000J0D01*
G01*
X12570875Y-9144000D02*
G75*
G02*
X12610875Y-9144000I20000J0D01*
G01*
X12864875Y-9334500D02*
G75*
G02*
X12824875Y-9334500I-20000J0D01*
G01*
X12824875Y-9334500D02*
G75*
G02*
X12864875Y-9334500I20000J0D01*
G01*
X13118875Y-9931500D02*
G75*
G02*
X13078875Y-9931500I-20000J0D01*
G01*
X13078875Y-9931500D02*
G75*
G02*
X13118875Y-9931500I20000J0D01*
G01*
X13259750Y-10826750D02*
G75*
G02*
X13219750Y-10826750I-20000J0D01*
G01*
X13219750Y-10826750D02*
G75*
G02*
X13259750Y-10826750I20000J0D01*
G01*
X13372875Y-10033000D02*
G75*
G02*
X13332875Y-10033000I-20000J0D01*
G01*
X13332875Y-10033000D02*
G75*
G02*
X13372875Y-10033000I20000J0D01*
G01*
X13418500Y-8699500D02*
G75*
G02*
X13378500Y-8699500I-20000J0D01*
G01*
X13378500Y-8699500D02*
G75*
G02*
X13418500Y-8699500I20000J0D01*
G01*
X13736000Y-11049000D02*
G75*
G02*
X13696000Y-11049000I-20000J0D01*
G01*
X13696000Y-11049000D02*
G75*
G02*
X13736000Y-11049000I20000J0D01*
G01*
X13736000Y-11493500D02*
G75*
G02*
X13696000Y-11493500I-20000J0D01*
G01*
X13696000Y-11493500D02*
G75*
G02*
X13736000Y-11493500I20000J0D01*
G01*
X13799500Y-10223500D02*
G75*
G02*
X13759500Y-10223500I-20000J0D01*
G01*
X13759500Y-10223500D02*
G75*
G02*
X13799500Y-10223500I20000J0D01*
G01*
X13971750Y-10813250D02*
G75*
G02*
X13931750Y-10813250I-20000J0D01*
G01*
X13931750Y-10813250D02*
G75*
G02*
X13971750Y-10813250I20000J0D01*
G01*
X14244000Y-11303000D02*
G75*
G02*
X14204000Y-11303000I-20000J0D01*
G01*
X14204000Y-11303000D02*
G75*
G02*
X14244000Y-11303000I20000J0D01*
G01*
X14307500Y-10668000D02*
G75*
G02*
X14267500Y-10668000I-20000J0D01*
G01*
X14267500Y-10668000D02*
G75*
G02*
X14307500Y-10668000I20000J0D01*
G01*
X14942500Y-10350500D02*
G75*
G02*
X14902500Y-10350500I-20000J0D01*
G01*
X14902500Y-10350500D02*
G75*
G02*
X14942500Y-10350500I20000J0D01*
G01*
X15387000Y-7683500D02*
G75*
G02*
X15347000Y-7683500I-20000J0D01*
G01*
X15347000Y-7683500D02*
G75*
G02*
X15387000Y-7683500I20000J0D01*
G01*
X15387000Y-9080500D02*
G75*
G02*
X15347000Y-9080500I-20000J0D01*
G01*
X15347000Y-9080500D02*
G75*
G02*
X15387000Y-9080500I20000J0D01*
G01*
X15514000Y-10223500D02*
G75*
G02*
X15474000Y-10223500I-20000J0D01*
G01*
X15474000Y-10223500D02*
G75*
G02*
X15514000Y-10223500I20000J0D01*
G01*
X15577500Y-8699500D02*
G75*
G02*
X15537500Y-8699500I-20000J0D01*
G01*
X15537500Y-8699500D02*
G75*
G02*
X15577500Y-8699500I20000J0D01*
G01*
X15641000Y-10604500D02*
G75*
G02*
X15601000Y-10604500I-20000J0D01*
G01*
X15601000Y-10604500D02*
G75*
G02*
X15641000Y-10604500I20000J0D01*
G01*
X15704500Y-8001000D02*
G75*
G02*
X15664500Y-8001000I-20000J0D01*
G01*
X15664500Y-8001000D02*
G75*
G02*
X15704500Y-8001000I20000J0D01*
G01*
X15768000Y-8445500D02*
G75*
G02*
X15728000Y-8445500I-20000J0D01*
G01*
X15728000Y-8445500D02*
G75*
G02*
X15768000Y-8445500I20000J0D01*
G01*
X15768000Y-9398000D02*
G75*
G02*
X15728000Y-9398000I-20000J0D01*
G01*
X15728000Y-9398000D02*
G75*
G02*
X15768000Y-9398000I20000J0D01*
G01*
X15768000Y-11557000D02*
G75*
G02*
X15728000Y-11557000I-20000J0D01*
G01*
X15728000Y-11557000D02*
G75*
G02*
X15768000Y-11557000I20000J0D01*
G01*
X15895000Y-10922000D02*
G75*
G02*
X15855000Y-10922000I-20000J0D01*
G01*
X15855000Y-10922000D02*
G75*
G02*
X15895000Y-10922000I20000J0D01*
G01*
X16085500Y-7239000D02*
G75*
G02*
X16045500Y-7239000I-20000J0D01*
G01*
X16045500Y-7239000D02*
G75*
G02*
X16085500Y-7239000I20000J0D01*
G01*
X16085500Y-9080500D02*
G75*
G02*
X16045500Y-9080500I-20000J0D01*
G01*
X16045500Y-9080500D02*
G75*
G02*
X16085500Y-9080500I20000J0D01*
G01*
X16149000Y-8064500D02*
G75*
G02*
X16109000Y-8064500I-20000J0D01*
G01*
X16109000Y-8064500D02*
G75*
G02*
X16149000Y-8064500I20000J0D01*
G01*
X16276000Y-11303000D02*
G75*
G02*
X16236000Y-11303000I-20000J0D01*
G01*
X16236000Y-11303000D02*
G75*
G02*
X16276000Y-11303000I20000J0D01*
G01*
X16823500Y-8445500D02*
G75*
G02*
X16783500Y-8445500I-20000J0D01*
G01*
X16783500Y-8445500D02*
G75*
G02*
X16823500Y-8445500I20000J0D01*
G01*
X16911000Y-7937500D02*
G75*
G02*
X16871000Y-7937500I-20000J0D01*
G01*
X16871000Y-7937500D02*
G75*
G02*
X16911000Y-7937500I20000J0D01*
G01*
X17355500Y-7239000D02*
G75*
G02*
X17315500Y-7239000I-20000J0D01*
G01*
X17315500Y-7239000D02*
G75*
G02*
X17355500Y-7239000I20000J0D01*
G01*
X17419000Y-9588500D02*
G75*
G02*
X17379000Y-9588500I-20000J0D01*
G01*
X17379000Y-9588500D02*
G75*
G02*
X17419000Y-9588500I20000J0D01*
G01*
X16350500Y-7026700D02*
X16350500Y-7086700D01*
X16320500Y-7056700D02*
X16380500Y-7056700D01*
X16380500Y-7091700D02*
X16380500Y-7021700D01*
X16320500Y-7021700D02*
G75*
G02*
X16380500Y-7021700I30000J0D01*
G01*
X16320500Y-7021700D02*
X16320500Y-7091700D01*
X16320500Y-7091700D02*
G75*
G03*
X16380500Y-7091700I30000J0D01*
G01*
X17050500Y-7026700D02*
X17050500Y-7086700D01*
X17020500Y-7056700D02*
X17080500Y-7056700D01*
X17020500Y-7021700D02*
X17020500Y-7091700D01*
X17080500Y-7091700D02*
G75*
G02*
X17020500Y-7091700I-30000J0D01*
G01*
X17080500Y-7091700D02*
X17080500Y-7021700D01*
X17080500Y-7021700D02*
G75*
G03*
X17020500Y-7021700I-30000J0D01*
G01*
X16480552Y-7356752D02*
X16480552Y-7296648D01*
X16420448Y-7296648D01*
X16420448Y-7356752D01*
X16480552Y-7356752D01*
X16980552Y-7356752D02*
X16980552Y-7296648D01*
X16920448Y-7296648D01*
X16920448Y-7356752D01*
X16980552Y-7356752D01*
X16129000Y-10019500D02*
X16179000Y-9969500D01*
X16129000Y-9919500D01*
X16079000Y-9969500D01*
X16129000Y-10019500D01*
X16383000Y-10019500D02*
X16433000Y-9969500D01*
X16383000Y-9919500D01*
X16333000Y-9969500D01*
X16383000Y-10019500D01*
X16637000Y-10019500D02*
X16687000Y-9969500D01*
X16637000Y-9919500D01*
X16587000Y-9969500D01*
X16637000Y-10019500D01*
X16891000Y-10019500D02*
X16941000Y-9969500D01*
X16891000Y-9919500D01*
X16841000Y-9969500D01*
X16891000Y-10019500D01*
X17145000Y-10019500D02*
X17195000Y-9969500D01*
X17145000Y-9919500D01*
X17095000Y-9969500D01*
X17145000Y-10019500D01*
X17399000Y-10019500D02*
X17449000Y-9969500D01*
X17399000Y-9919500D01*
X17349000Y-9969500D01*
X17399000Y-10019500D01*
D12*
X4878000Y-8307500D02*
X4998000Y-8427500D01*
X4998000Y-8307500D02*
X4878000Y-8427500D01*
X4998000Y-8367500D02*
G75*
G02*
X4878000Y-8367500I-60000J0D01*
G01*
X4878000Y-8367500D02*
G75*
G02*
X4998000Y-8367500I60000J0D01*
G01*
X5259000Y-8307500D02*
X5379000Y-8427500D01*
X5379000Y-8307500D02*
X5259000Y-8427500D01*
X5379000Y-8367500D02*
G75*
G02*
X5259000Y-8367500I-60000J0D01*
G01*
X5259000Y-8367500D02*
G75*
G02*
X5379000Y-8367500I60000J0D01*
G01*
X5259000Y-8815500D02*
X5379000Y-8935500D01*
X5379000Y-8815500D02*
X5259000Y-8935500D01*
X5379000Y-8875500D02*
G75*
G02*
X5259000Y-8875500I-60000J0D01*
G01*
X5259000Y-8875500D02*
G75*
G02*
X5379000Y-8875500I60000J0D01*
G01*
X5640000Y-8307500D02*
X5760000Y-8427500D01*
X5760000Y-8307500D02*
X5640000Y-8427500D01*
X5760000Y-8367500D02*
G75*
G02*
X5640000Y-8367500I-60000J0D01*
G01*
X5640000Y-8367500D02*
G75*
G02*
X5760000Y-8367500I60000J0D01*
G01*
X8307000Y-8307500D02*
X8427000Y-8427500D01*
X8427000Y-8307500D02*
X8307000Y-8427500D01*
X8427000Y-8367500D02*
G75*
G02*
X8307000Y-8367500I-60000J0D01*
G01*
X8307000Y-8367500D02*
G75*
G02*
X8427000Y-8367500I60000J0D01*
G01*
X8307000Y-8815500D02*
X8427000Y-8935500D01*
X8427000Y-8815500D02*
X8307000Y-8935500D01*
X8427000Y-8875500D02*
G75*
G02*
X8307000Y-8875500I-60000J0D01*
G01*
X8307000Y-8875500D02*
G75*
G02*
X8427000Y-8875500I60000J0D01*
G01*
X10530000Y-7750000D02*
X10650000Y-7870000D01*
X10650000Y-7750000D02*
X10530000Y-7870000D01*
X10650000Y-7810000D02*
G75*
G02*
X10530000Y-7810000I-60000J0D01*
G01*
X10530000Y-7810000D02*
G75*
G02*
X10650000Y-7810000I60000J0D01*
G01*
X11355000Y-8385500D02*
X11475000Y-8505500D01*
X11475000Y-8385500D02*
X11355000Y-8505500D01*
X11475000Y-8445500D02*
G75*
G02*
X11355000Y-8445500I-60000J0D01*
G01*
X11355000Y-8445500D02*
G75*
G02*
X11475000Y-8445500I60000J0D01*
G01*
X11355000Y-8767000D02*
X11475000Y-8887000D01*
X11475000Y-8767000D02*
X11355000Y-8887000D01*
X11475000Y-8827000D02*
G75*
G02*
X11355000Y-8827000I-60000J0D01*
G01*
X11355000Y-8827000D02*
G75*
G02*
X11475000Y-8827000I60000J0D01*
G01*
X12053000Y-8385500D02*
X12173000Y-8505500D01*
X12173000Y-8385500D02*
X12053000Y-8505500D01*
X12173000Y-8445500D02*
G75*
G02*
X12053000Y-8445500I-60000J0D01*
G01*
X12053000Y-8445500D02*
G75*
G02*
X12173000Y-8445500I60000J0D01*
G01*
X13578000Y-7735500D02*
X13698000Y-7855500D01*
X13698000Y-7735500D02*
X13578000Y-7855500D01*
X13698000Y-7795500D02*
G75*
G02*
X13578000Y-7795500I-60000J0D01*
G01*
X13578000Y-7795500D02*
G75*
G02*
X13698000Y-7795500I60000J0D01*
G01*
X14403000Y-8752500D02*
X14523000Y-8872500D01*
X14523000Y-8752500D02*
X14403000Y-8872500D01*
X14523000Y-8812500D02*
G75*
G02*
X14403000Y-8812500I-60000J0D01*
G01*
X14403000Y-8812500D02*
G75*
G02*
X14523000Y-8812500I60000J0D01*
G01*
D13*
X4541000Y-8795500D02*
X4701000Y-8955500D01*
X4701000Y-8795500D02*
X4541000Y-8955500D01*
X4621000Y-8795500D02*
X4621000Y-8955500D01*
X4541000Y-8875500D02*
X4701000Y-8875500D01*
X5937000Y-8795500D02*
X6097000Y-8955500D01*
X6097000Y-8795500D02*
X5937000Y-8955500D01*
X6017000Y-8795500D02*
X6017000Y-8955500D01*
X5937000Y-8875500D02*
X6097000Y-8875500D01*
X7906000Y-8795500D02*
X8066000Y-8955500D01*
X8066000Y-8795500D02*
X7906000Y-8955500D01*
X7986000Y-8795500D02*
X7986000Y-8955500D01*
X7906000Y-8875500D02*
X8066000Y-8875500D01*
X8668000Y-8795500D02*
X8828000Y-8955500D01*
X8828000Y-8795500D02*
X8668000Y-8955500D01*
X8748000Y-8795500D02*
X8748000Y-8955500D01*
X8668000Y-8875500D02*
X8828000Y-8875500D01*
X10954000Y-8747000D02*
X11114000Y-8907000D01*
X11114000Y-8747000D02*
X10954000Y-8907000D01*
X11034000Y-8747000D02*
X11034000Y-8907000D01*
X10954000Y-8827000D02*
X11114000Y-8827000D01*
X11716000Y-8747000D02*
X11876000Y-8907000D01*
X11876000Y-8747000D02*
X11716000Y-8907000D01*
X11796000Y-8747000D02*
X11796000Y-8907000D01*
X11716000Y-8827000D02*
X11876000Y-8827000D01*
X14002000Y-8287500D02*
X14162000Y-8447500D01*
X14162000Y-8287500D02*
X14002000Y-8447500D01*
X14082000Y-8287500D02*
X14082000Y-8447500D01*
X14002000Y-8367500D02*
X14162000Y-8367500D01*
X14764000Y-8351000D02*
X14924000Y-8511000D01*
X14924000Y-8351000D02*
X14764000Y-8511000D01*
X14844000Y-8351000D02*
X14844000Y-8511000D01*
X14764000Y-8431000D02*
X14924000Y-8431000D01*
D11*
X4065777Y-12376984D02*
X4065777Y-12176984D01*
X4065777Y-12176984D02*
X4113396Y-12176984D01*
X4113396Y-12176984D02*
X4141967Y-12186508D01*
X4141967Y-12186508D02*
X4161015Y-12205555D01*
X4161015Y-12205555D02*
X4170539Y-12224603D01*
X4170539Y-12224603D02*
X4180062Y-12262698D01*
X4180062Y-12262698D02*
X4180062Y-12291269D01*
X4180062Y-12291269D02*
X4170539Y-12329365D01*
X4170539Y-12329365D02*
X4161015Y-12348412D01*
X4161015Y-12348412D02*
X4141967Y-12367460D01*
X4141967Y-12367460D02*
X4113396Y-12376984D01*
X4113396Y-12376984D02*
X4065777Y-12376984D01*
X4265777Y-12376984D02*
X4265777Y-12243650D01*
X4265777Y-12281746D02*
X4275301Y-12262698D01*
X4275301Y-12262698D02*
X4284824Y-12253174D01*
X4284824Y-12253174D02*
X4303872Y-12243650D01*
X4303872Y-12243650D02*
X4322920Y-12243650D01*
X4389586Y-12376984D02*
X4389586Y-12243650D01*
X4389586Y-12176984D02*
X4380063Y-12186508D01*
X4380063Y-12186508D02*
X4389586Y-12196031D01*
X4389586Y-12196031D02*
X4399110Y-12186508D01*
X4399110Y-12186508D02*
X4389586Y-12176984D01*
X4389586Y-12176984D02*
X4389586Y-12196031D01*
X4513396Y-12376984D02*
X4494348Y-12367460D01*
X4494348Y-12367460D02*
X4484824Y-12348412D01*
X4484824Y-12348412D02*
X4484824Y-12176984D01*
X4618158Y-12376984D02*
X4599110Y-12367460D01*
X4599110Y-12367460D02*
X4589586Y-12348412D01*
X4589586Y-12348412D02*
X4589586Y-12176984D01*
X4846729Y-12376984D02*
X4846729Y-12176984D01*
X4846729Y-12176984D02*
X4913396Y-12319841D01*
X4913396Y-12319841D02*
X4980063Y-12176984D01*
X4980063Y-12176984D02*
X4980063Y-12376984D01*
X5161015Y-12376984D02*
X5161015Y-12272222D01*
X5161015Y-12272222D02*
X5151491Y-12253174D01*
X5151491Y-12253174D02*
X5132444Y-12243650D01*
X5132444Y-12243650D02*
X5094348Y-12243650D01*
X5094348Y-12243650D02*
X5075301Y-12253174D01*
X5161015Y-12367460D02*
X5141967Y-12376984D01*
X5141967Y-12376984D02*
X5094348Y-12376984D01*
X5094348Y-12376984D02*
X5075301Y-12367460D01*
X5075301Y-12367460D02*
X5065777Y-12348412D01*
X5065777Y-12348412D02*
X5065777Y-12329365D01*
X5065777Y-12329365D02*
X5075301Y-12310317D01*
X5075301Y-12310317D02*
X5094348Y-12300793D01*
X5094348Y-12300793D02*
X5141967Y-12300793D01*
X5141967Y-12300793D02*
X5161015Y-12291269D01*
X5256253Y-12243650D02*
X5256253Y-12443650D01*
X5256253Y-12253174D02*
X5275301Y-12243650D01*
X5275301Y-12243650D02*
X5313396Y-12243650D01*
X5313396Y-12243650D02*
X5332444Y-12253174D01*
X5332444Y-12253174D02*
X5341967Y-12262698D01*
X5341967Y-12262698D02*
X5351491Y-12281746D01*
X5351491Y-12281746D02*
X5351491Y-12338888D01*
X5351491Y-12338888D02*
X5341967Y-12357936D01*
X5341967Y-12357936D02*
X5332444Y-12367460D01*
X5332444Y-12367460D02*
X5313396Y-12376984D01*
X5313396Y-12376984D02*
X5275301Y-12376984D01*
X5275301Y-12376984D02*
X5256253Y-12367460D01*
X5437205Y-12357936D02*
X5446729Y-12367460D01*
X5446729Y-12367460D02*
X5437205Y-12376984D01*
X5437205Y-12376984D02*
X5427682Y-12367460D01*
X5427682Y-12367460D02*
X5437205Y-12357936D01*
X5437205Y-12357936D02*
X5437205Y-12376984D01*
X5437205Y-12253174D02*
X5446729Y-12262698D01*
X5446729Y-12262698D02*
X5437205Y-12272222D01*
X5437205Y-12272222D02*
X5427682Y-12262698D01*
X5427682Y-12262698D02*
X5437205Y-12253174D01*
X5437205Y-12253174D02*
X5437205Y-12272222D01*
D10*
X3785000Y-12695500D02*
X3805000Y-12715500D01*
X3805000Y-12695500D02*
X3785000Y-12715500D01*
D11*
X4103872Y-12596984D02*
X4122920Y-12596984D01*
X4122920Y-12596984D02*
X4141967Y-12606508D01*
X4141967Y-12606508D02*
X4151491Y-12616031D01*
X4151491Y-12616031D02*
X4161015Y-12635079D01*
X4161015Y-12635079D02*
X4170539Y-12673174D01*
X4170539Y-12673174D02*
X4170539Y-12720793D01*
X4170539Y-12720793D02*
X4161015Y-12758888D01*
X4161015Y-12758888D02*
X4151491Y-12777936D01*
X4151491Y-12777936D02*
X4141967Y-12787460D01*
X4141967Y-12787460D02*
X4122920Y-12796984D01*
X4122920Y-12796984D02*
X4103872Y-12796984D01*
X4103872Y-12796984D02*
X4084824Y-12787460D01*
X4084824Y-12787460D02*
X4075301Y-12777936D01*
X4075301Y-12777936D02*
X4065777Y-12758888D01*
X4065777Y-12758888D02*
X4056253Y-12720793D01*
X4056253Y-12720793D02*
X4056253Y-12673174D01*
X4056253Y-12673174D02*
X4065777Y-12635079D01*
X4065777Y-12635079D02*
X4075301Y-12616031D01*
X4075301Y-12616031D02*
X4084824Y-12606508D01*
X4084824Y-12606508D02*
X4103872Y-12596984D01*
X4256253Y-12777936D02*
X4265777Y-12787460D01*
X4265777Y-12787460D02*
X4256253Y-12796984D01*
X4256253Y-12796984D02*
X4246729Y-12787460D01*
X4246729Y-12787460D02*
X4256253Y-12777936D01*
X4256253Y-12777936D02*
X4256253Y-12796984D01*
X4341967Y-12616031D02*
X4351491Y-12606508D01*
X4351491Y-12606508D02*
X4370539Y-12596984D01*
X4370539Y-12596984D02*
X4418158Y-12596984D01*
X4418158Y-12596984D02*
X4437205Y-12606508D01*
X4437205Y-12606508D02*
X4446729Y-12616031D01*
X4446729Y-12616031D02*
X4456253Y-12635079D01*
X4456253Y-12635079D02*
X4456253Y-12654127D01*
X4456253Y-12654127D02*
X4446729Y-12682698D01*
X4446729Y-12682698D02*
X4332444Y-12796984D01*
X4332444Y-12796984D02*
X4456253Y-12796984D01*
X4580063Y-12596984D02*
X4599110Y-12596984D01*
X4599110Y-12596984D02*
X4618158Y-12606508D01*
X4618158Y-12606508D02*
X4627682Y-12616031D01*
X4627682Y-12616031D02*
X4637205Y-12635079D01*
X4637205Y-12635079D02*
X4646729Y-12673174D01*
X4646729Y-12673174D02*
X4646729Y-12720793D01*
X4646729Y-12720793D02*
X4637205Y-12758888D01*
X4637205Y-12758888D02*
X4627682Y-12777936D01*
X4627682Y-12777936D02*
X4618158Y-12787460D01*
X4618158Y-12787460D02*
X4599110Y-12796984D01*
X4599110Y-12796984D02*
X4580063Y-12796984D01*
X4580063Y-12796984D02*
X4561015Y-12787460D01*
X4561015Y-12787460D02*
X4551491Y-12777936D01*
X4551491Y-12777936D02*
X4541967Y-12758888D01*
X4541967Y-12758888D02*
X4532444Y-12720793D01*
X4532444Y-12720793D02*
X4532444Y-12673174D01*
X4532444Y-12673174D02*
X4541967Y-12635079D01*
X4541967Y-12635079D02*
X4551491Y-12616031D01*
X4551491Y-12616031D02*
X4561015Y-12606508D01*
X4561015Y-12606508D02*
X4580063Y-12596984D01*
X4770539Y-12596984D02*
X4789586Y-12596984D01*
X4789586Y-12596984D02*
X4808634Y-12606508D01*
X4808634Y-12606508D02*
X4818158Y-12616031D01*
X4818158Y-12616031D02*
X4827682Y-12635079D01*
X4827682Y-12635079D02*
X4837205Y-12673174D01*
X4837205Y-12673174D02*
X4837205Y-12720793D01*
X4837205Y-12720793D02*
X4827682Y-12758888D01*
X4827682Y-12758888D02*
X4818158Y-12777936D01*
X4818158Y-12777936D02*
X4808634Y-12787460D01*
X4808634Y-12787460D02*
X4789586Y-12796984D01*
X4789586Y-12796984D02*
X4770539Y-12796984D01*
X4770539Y-12796984D02*
X4751491Y-12787460D01*
X4751491Y-12787460D02*
X4741967Y-12777936D01*
X4741967Y-12777936D02*
X4732444Y-12758888D01*
X4732444Y-12758888D02*
X4722920Y-12720793D01*
X4722920Y-12720793D02*
X4722920Y-12673174D01*
X4722920Y-12673174D02*
X4732444Y-12635079D01*
X4732444Y-12635079D02*
X4741967Y-12616031D01*
X4741967Y-12616031D02*
X4751491Y-12606508D01*
X4751491Y-12606508D02*
X4770539Y-12596984D01*
X4922920Y-12796984D02*
X4922920Y-12663650D01*
X4922920Y-12682698D02*
X4932444Y-12673174D01*
X4932444Y-12673174D02*
X4951491Y-12663650D01*
X4951491Y-12663650D02*
X4980063Y-12663650D01*
X4980063Y-12663650D02*
X4999110Y-12673174D01*
X4999110Y-12673174D02*
X5008634Y-12692222D01*
X5008634Y-12692222D02*
X5008634Y-12796984D01*
X5008634Y-12692222D02*
X5018158Y-12673174D01*
X5018158Y-12673174D02*
X5037205Y-12663650D01*
X5037205Y-12663650D02*
X5065777Y-12663650D01*
X5065777Y-12663650D02*
X5084825Y-12673174D01*
X5084825Y-12673174D02*
X5094348Y-12692222D01*
X5094348Y-12692222D02*
X5094348Y-12796984D01*
X5189586Y-12796984D02*
X5189586Y-12663650D01*
X5189586Y-12682698D02*
X5199110Y-12673174D01*
X5199110Y-12673174D02*
X5218158Y-12663650D01*
X5218158Y-12663650D02*
X5246729Y-12663650D01*
X5246729Y-12663650D02*
X5265777Y-12673174D01*
X5265777Y-12673174D02*
X5275301Y-12692222D01*
X5275301Y-12692222D02*
X5275301Y-12796984D01*
X5275301Y-12692222D02*
X5284825Y-12673174D01*
X5284825Y-12673174D02*
X5303872Y-12663650D01*
X5303872Y-12663650D02*
X5332444Y-12663650D01*
X5332444Y-12663650D02*
X5351491Y-12673174D01*
X5351491Y-12673174D02*
X5361015Y-12692222D01*
X5361015Y-12692222D02*
X5361015Y-12796984D01*
X5751491Y-12587460D02*
X5580063Y-12844603D01*
X6008634Y-12596984D02*
X6027682Y-12596984D01*
X6027682Y-12596984D02*
X6046729Y-12606508D01*
X6046729Y-12606508D02*
X6056253Y-12616031D01*
X6056253Y-12616031D02*
X6065777Y-12635079D01*
X6065777Y-12635079D02*
X6075301Y-12673174D01*
X6075301Y-12673174D02*
X6075301Y-12720793D01*
X6075301Y-12720793D02*
X6065777Y-12758888D01*
X6065777Y-12758888D02*
X6056253Y-12777936D01*
X6056253Y-12777936D02*
X6046729Y-12787460D01*
X6046729Y-12787460D02*
X6027682Y-12796984D01*
X6027682Y-12796984D02*
X6008634Y-12796984D01*
X6008634Y-12796984D02*
X5989586Y-12787460D01*
X5989586Y-12787460D02*
X5980063Y-12777936D01*
X5980063Y-12777936D02*
X5970539Y-12758888D01*
X5970539Y-12758888D02*
X5961015Y-12720793D01*
X5961015Y-12720793D02*
X5961015Y-12673174D01*
X5961015Y-12673174D02*
X5970539Y-12635079D01*
X5970539Y-12635079D02*
X5980063Y-12616031D01*
X5980063Y-12616031D02*
X5989586Y-12606508D01*
X5989586Y-12606508D02*
X6008634Y-12596984D01*
X6161015Y-12777936D02*
X6170539Y-12787460D01*
X6170539Y-12787460D02*
X6161015Y-12796984D01*
X6161015Y-12796984D02*
X6151491Y-12787460D01*
X6151491Y-12787460D02*
X6161015Y-12777936D01*
X6161015Y-12777936D02*
X6161015Y-12796984D01*
X6294348Y-12596984D02*
X6313396Y-12596984D01*
X6313396Y-12596984D02*
X6332444Y-12606508D01*
X6332444Y-12606508D02*
X6341967Y-12616031D01*
X6341967Y-12616031D02*
X6351491Y-12635079D01*
X6351491Y-12635079D02*
X6361015Y-12673174D01*
X6361015Y-12673174D02*
X6361015Y-12720793D01*
X6361015Y-12720793D02*
X6351491Y-12758888D01*
X6351491Y-12758888D02*
X6341967Y-12777936D01*
X6341967Y-12777936D02*
X6332444Y-12787460D01*
X6332444Y-12787460D02*
X6313396Y-12796984D01*
X6313396Y-12796984D02*
X6294348Y-12796984D01*
X6294348Y-12796984D02*
X6275301Y-12787460D01*
X6275301Y-12787460D02*
X6265777Y-12777936D01*
X6265777Y-12777936D02*
X6256253Y-12758888D01*
X6256253Y-12758888D02*
X6246729Y-12720793D01*
X6246729Y-12720793D02*
X6246729Y-12673174D01*
X6246729Y-12673174D02*
X6256253Y-12635079D01*
X6256253Y-12635079D02*
X6265777Y-12616031D01*
X6265777Y-12616031D02*
X6275301Y-12606508D01*
X6275301Y-12606508D02*
X6294348Y-12596984D01*
X6484825Y-12596984D02*
X6503872Y-12596984D01*
X6503872Y-12596984D02*
X6522920Y-12606508D01*
X6522920Y-12606508D02*
X6532444Y-12616031D01*
X6532444Y-12616031D02*
X6541967Y-12635079D01*
X6541967Y-12635079D02*
X6551491Y-12673174D01*
X6551491Y-12673174D02*
X6551491Y-12720793D01*
X6551491Y-12720793D02*
X6541967Y-12758888D01*
X6541967Y-12758888D02*
X6532444Y-12777936D01*
X6532444Y-12777936D02*
X6522920Y-12787460D01*
X6522920Y-12787460D02*
X6503872Y-12796984D01*
X6503872Y-12796984D02*
X6484825Y-12796984D01*
X6484825Y-12796984D02*
X6465777Y-12787460D01*
X6465777Y-12787460D02*
X6456253Y-12777936D01*
X6456253Y-12777936D02*
X6446729Y-12758888D01*
X6446729Y-12758888D02*
X6437206Y-12720793D01*
X6437206Y-12720793D02*
X6437206Y-12673174D01*
X6437206Y-12673174D02*
X6446729Y-12635079D01*
X6446729Y-12635079D02*
X6456253Y-12616031D01*
X6456253Y-12616031D02*
X6465777Y-12606508D01*
X6465777Y-12606508D02*
X6484825Y-12596984D01*
X6618158Y-12596984D02*
X6751491Y-12596984D01*
X6751491Y-12596984D02*
X6665777Y-12796984D01*
X6837206Y-12796984D02*
X6875301Y-12796984D01*
X6875301Y-12796984D02*
X6894348Y-12787460D01*
X6894348Y-12787460D02*
X6903872Y-12777936D01*
X6903872Y-12777936D02*
X6922920Y-12749365D01*
X6922920Y-12749365D02*
X6932444Y-12711269D01*
X6932444Y-12711269D02*
X6932444Y-12635079D01*
X6932444Y-12635079D02*
X6922920Y-12616031D01*
X6922920Y-12616031D02*
X6913396Y-12606508D01*
X6913396Y-12606508D02*
X6894348Y-12596984D01*
X6894348Y-12596984D02*
X6856253Y-12596984D01*
X6856253Y-12596984D02*
X6837206Y-12606508D01*
X6837206Y-12606508D02*
X6827682Y-12616031D01*
X6827682Y-12616031D02*
X6818158Y-12635079D01*
X6818158Y-12635079D02*
X6818158Y-12682698D01*
X6818158Y-12682698D02*
X6827682Y-12701746D01*
X6827682Y-12701746D02*
X6837206Y-12711269D01*
X6837206Y-12711269D02*
X6856253Y-12720793D01*
X6856253Y-12720793D02*
X6894348Y-12720793D01*
X6894348Y-12720793D02*
X6913396Y-12711269D01*
X6913396Y-12711269D02*
X6922920Y-12701746D01*
X6922920Y-12701746D02*
X6932444Y-12682698D01*
X7008634Y-12596984D02*
X7008634Y-12635079D01*
X7084825Y-12596984D02*
X7084825Y-12635079D01*
X7380063Y-12873174D02*
X7370539Y-12863650D01*
X7370539Y-12863650D02*
X7351491Y-12835079D01*
X7351491Y-12835079D02*
X7341968Y-12816031D01*
X7341968Y-12816031D02*
X7332444Y-12787460D01*
X7332444Y-12787460D02*
X7322920Y-12739841D01*
X7322920Y-12739841D02*
X7322920Y-12701746D01*
X7322920Y-12701746D02*
X7332444Y-12654127D01*
X7332444Y-12654127D02*
X7341968Y-12625555D01*
X7341968Y-12625555D02*
X7351491Y-12606508D01*
X7351491Y-12606508D02*
X7370539Y-12577936D01*
X7370539Y-12577936D02*
X7380063Y-12568412D01*
X7561015Y-12796984D02*
X7446729Y-12796984D01*
X7503872Y-12796984D02*
X7503872Y-12596984D01*
X7503872Y-12596984D02*
X7484825Y-12625555D01*
X7484825Y-12625555D02*
X7465777Y-12644603D01*
X7465777Y-12644603D02*
X7446729Y-12654127D01*
X7637206Y-12616031D02*
X7646729Y-12606508D01*
X7646729Y-12606508D02*
X7665777Y-12596984D01*
X7665777Y-12596984D02*
X7713396Y-12596984D01*
X7713396Y-12596984D02*
X7732444Y-12606508D01*
X7732444Y-12606508D02*
X7741968Y-12616031D01*
X7741968Y-12616031D02*
X7751491Y-12635079D01*
X7751491Y-12635079D02*
X7751491Y-12654127D01*
X7751491Y-12654127D02*
X7741968Y-12682698D01*
X7741968Y-12682698D02*
X7627682Y-12796984D01*
X7627682Y-12796984D02*
X7751491Y-12796984D01*
X7989587Y-12796984D02*
X7989587Y-12596984D01*
X8075301Y-12796984D02*
X8075301Y-12692222D01*
X8075301Y-12692222D02*
X8065777Y-12673174D01*
X8065777Y-12673174D02*
X8046730Y-12663650D01*
X8046730Y-12663650D02*
X8018158Y-12663650D01*
X8018158Y-12663650D02*
X7999110Y-12673174D01*
X7999110Y-12673174D02*
X7989587Y-12682698D01*
X8199110Y-12796984D02*
X8180063Y-12787460D01*
X8180063Y-12787460D02*
X8170539Y-12777936D01*
X8170539Y-12777936D02*
X8161015Y-12758888D01*
X8161015Y-12758888D02*
X8161015Y-12701746D01*
X8161015Y-12701746D02*
X8170539Y-12682698D01*
X8170539Y-12682698D02*
X8180063Y-12673174D01*
X8180063Y-12673174D02*
X8199110Y-12663650D01*
X8199110Y-12663650D02*
X8227682Y-12663650D01*
X8227682Y-12663650D02*
X8246730Y-12673174D01*
X8246730Y-12673174D02*
X8256253Y-12682698D01*
X8256253Y-12682698D02*
X8265777Y-12701746D01*
X8265777Y-12701746D02*
X8265777Y-12758888D01*
X8265777Y-12758888D02*
X8256253Y-12777936D01*
X8256253Y-12777936D02*
X8246730Y-12787460D01*
X8246730Y-12787460D02*
X8227682Y-12796984D01*
X8227682Y-12796984D02*
X8199110Y-12796984D01*
X8380063Y-12796984D02*
X8361015Y-12787460D01*
X8361015Y-12787460D02*
X8351491Y-12768412D01*
X8351491Y-12768412D02*
X8351491Y-12596984D01*
X8532444Y-12787460D02*
X8513396Y-12796984D01*
X8513396Y-12796984D02*
X8475301Y-12796984D01*
X8475301Y-12796984D02*
X8456253Y-12787460D01*
X8456253Y-12787460D02*
X8446730Y-12768412D01*
X8446730Y-12768412D02*
X8446730Y-12692222D01*
X8446730Y-12692222D02*
X8456253Y-12673174D01*
X8456253Y-12673174D02*
X8475301Y-12663650D01*
X8475301Y-12663650D02*
X8513396Y-12663650D01*
X8513396Y-12663650D02*
X8532444Y-12673174D01*
X8532444Y-12673174D02*
X8541968Y-12692222D01*
X8541968Y-12692222D02*
X8541968Y-12711269D01*
X8541968Y-12711269D02*
X8446730Y-12730317D01*
X8618158Y-12787460D02*
X8637206Y-12796984D01*
X8637206Y-12796984D02*
X8675301Y-12796984D01*
X8675301Y-12796984D02*
X8694349Y-12787460D01*
X8694349Y-12787460D02*
X8703873Y-12768412D01*
X8703873Y-12768412D02*
X8703873Y-12758888D01*
X8703873Y-12758888D02*
X8694349Y-12739841D01*
X8694349Y-12739841D02*
X8675301Y-12730317D01*
X8675301Y-12730317D02*
X8646730Y-12730317D01*
X8646730Y-12730317D02*
X8627682Y-12720793D01*
X8627682Y-12720793D02*
X8618158Y-12701746D01*
X8618158Y-12701746D02*
X8618158Y-12692222D01*
X8618158Y-12692222D02*
X8627682Y-12673174D01*
X8627682Y-12673174D02*
X8646730Y-12663650D01*
X8646730Y-12663650D02*
X8675301Y-12663650D01*
X8675301Y-12663650D02*
X8694349Y-12673174D01*
X8770539Y-12873174D02*
X8780063Y-12863650D01*
X8780063Y-12863650D02*
X8799111Y-12835079D01*
X8799111Y-12835079D02*
X8808634Y-12816031D01*
X8808634Y-12816031D02*
X8818158Y-12787460D01*
X8818158Y-12787460D02*
X8827682Y-12739841D01*
X8827682Y-12739841D02*
X8827682Y-12701746D01*
X8827682Y-12701746D02*
X8818158Y-12654127D01*
X8818158Y-12654127D02*
X8808634Y-12625555D01*
X8808634Y-12625555D02*
X8799111Y-12606508D01*
X8799111Y-12606508D02*
X8780063Y-12577936D01*
X8780063Y-12577936D02*
X8770539Y-12568412D01*
D10*
X3805000Y-12969500D02*
G75*
G02*
X3765000Y-12969500I-20000J0D01*
G01*
X3765000Y-12969500D02*
G75*
G02*
X3805000Y-12969500I20000J0D01*
G01*
D11*
X4103872Y-12860984D02*
X4122920Y-12860984D01*
X4122920Y-12860984D02*
X4141967Y-12870508D01*
X4141967Y-12870508D02*
X4151491Y-12880031D01*
X4151491Y-12880031D02*
X4161015Y-12899079D01*
X4161015Y-12899079D02*
X4170539Y-12937174D01*
X4170539Y-12937174D02*
X4170539Y-12984793D01*
X4170539Y-12984793D02*
X4161015Y-13022888D01*
X4161015Y-13022888D02*
X4151491Y-13041936D01*
X4151491Y-13041936D02*
X4141967Y-13051460D01*
X4141967Y-13051460D02*
X4122920Y-13060984D01*
X4122920Y-13060984D02*
X4103872Y-13060984D01*
X4103872Y-13060984D02*
X4084824Y-13051460D01*
X4084824Y-13051460D02*
X4075301Y-13041936D01*
X4075301Y-13041936D02*
X4065777Y-13022888D01*
X4065777Y-13022888D02*
X4056253Y-12984793D01*
X4056253Y-12984793D02*
X4056253Y-12937174D01*
X4056253Y-12937174D02*
X4065777Y-12899079D01*
X4065777Y-12899079D02*
X4075301Y-12880031D01*
X4075301Y-12880031D02*
X4084824Y-12870508D01*
X4084824Y-12870508D02*
X4103872Y-12860984D01*
X4256253Y-13041936D02*
X4265777Y-13051460D01*
X4265777Y-13051460D02*
X4256253Y-13060984D01*
X4256253Y-13060984D02*
X4246729Y-13051460D01*
X4246729Y-13051460D02*
X4256253Y-13041936D01*
X4256253Y-13041936D02*
X4256253Y-13060984D01*
X4437205Y-12927650D02*
X4437205Y-13060984D01*
X4389586Y-12851460D02*
X4341967Y-12994317D01*
X4341967Y-12994317D02*
X4465777Y-12994317D01*
X4580063Y-12860984D02*
X4599110Y-12860984D01*
X4599110Y-12860984D02*
X4618158Y-12870508D01*
X4618158Y-12870508D02*
X4627682Y-12880031D01*
X4627682Y-12880031D02*
X4637205Y-12899079D01*
X4637205Y-12899079D02*
X4646729Y-12937174D01*
X4646729Y-12937174D02*
X4646729Y-12984793D01*
X4646729Y-12984793D02*
X4637205Y-13022888D01*
X4637205Y-13022888D02*
X4627682Y-13041936D01*
X4627682Y-13041936D02*
X4618158Y-13051460D01*
X4618158Y-13051460D02*
X4599110Y-13060984D01*
X4599110Y-13060984D02*
X4580063Y-13060984D01*
X4580063Y-13060984D02*
X4561015Y-13051460D01*
X4561015Y-13051460D02*
X4551491Y-13041936D01*
X4551491Y-13041936D02*
X4541967Y-13022888D01*
X4541967Y-13022888D02*
X4532444Y-12984793D01*
X4532444Y-12984793D02*
X4532444Y-12937174D01*
X4532444Y-12937174D02*
X4541967Y-12899079D01*
X4541967Y-12899079D02*
X4551491Y-12880031D01*
X4551491Y-12880031D02*
X4561015Y-12870508D01*
X4561015Y-12870508D02*
X4580063Y-12860984D01*
X4770539Y-12860984D02*
X4789586Y-12860984D01*
X4789586Y-12860984D02*
X4808634Y-12870508D01*
X4808634Y-12870508D02*
X4818158Y-12880031D01*
X4818158Y-12880031D02*
X4827682Y-12899079D01*
X4827682Y-12899079D02*
X4837205Y-12937174D01*
X4837205Y-12937174D02*
X4837205Y-12984793D01*
X4837205Y-12984793D02*
X4827682Y-13022888D01*
X4827682Y-13022888D02*
X4818158Y-13041936D01*
X4818158Y-13041936D02*
X4808634Y-13051460D01*
X4808634Y-13051460D02*
X4789586Y-13060984D01*
X4789586Y-13060984D02*
X4770539Y-13060984D01*
X4770539Y-13060984D02*
X4751491Y-13051460D01*
X4751491Y-13051460D02*
X4741967Y-13041936D01*
X4741967Y-13041936D02*
X4732444Y-13022888D01*
X4732444Y-13022888D02*
X4722920Y-12984793D01*
X4722920Y-12984793D02*
X4722920Y-12937174D01*
X4722920Y-12937174D02*
X4732444Y-12899079D01*
X4732444Y-12899079D02*
X4741967Y-12880031D01*
X4741967Y-12880031D02*
X4751491Y-12870508D01*
X4751491Y-12870508D02*
X4770539Y-12860984D01*
X4922920Y-13060984D02*
X4922920Y-12927650D01*
X4922920Y-12946698D02*
X4932444Y-12937174D01*
X4932444Y-12937174D02*
X4951491Y-12927650D01*
X4951491Y-12927650D02*
X4980063Y-12927650D01*
X4980063Y-12927650D02*
X4999110Y-12937174D01*
X4999110Y-12937174D02*
X5008634Y-12956222D01*
X5008634Y-12956222D02*
X5008634Y-13060984D01*
X5008634Y-12956222D02*
X5018158Y-12937174D01*
X5018158Y-12937174D02*
X5037205Y-12927650D01*
X5037205Y-12927650D02*
X5065777Y-12927650D01*
X5065777Y-12927650D02*
X5084825Y-12937174D01*
X5084825Y-12937174D02*
X5094348Y-12956222D01*
X5094348Y-12956222D02*
X5094348Y-13060984D01*
X5189586Y-13060984D02*
X5189586Y-12927650D01*
X5189586Y-12946698D02*
X5199110Y-12937174D01*
X5199110Y-12937174D02*
X5218158Y-12927650D01*
X5218158Y-12927650D02*
X5246729Y-12927650D01*
X5246729Y-12927650D02*
X5265777Y-12937174D01*
X5265777Y-12937174D02*
X5275301Y-12956222D01*
X5275301Y-12956222D02*
X5275301Y-13060984D01*
X5275301Y-12956222D02*
X5284825Y-12937174D01*
X5284825Y-12937174D02*
X5303872Y-12927650D01*
X5303872Y-12927650D02*
X5332444Y-12927650D01*
X5332444Y-12927650D02*
X5351491Y-12937174D01*
X5351491Y-12937174D02*
X5361015Y-12956222D01*
X5361015Y-12956222D02*
X5361015Y-13060984D01*
X5751491Y-12851460D02*
X5580063Y-13108603D01*
X6008634Y-12860984D02*
X6027682Y-12860984D01*
X6027682Y-12860984D02*
X6046729Y-12870508D01*
X6046729Y-12870508D02*
X6056253Y-12880031D01*
X6056253Y-12880031D02*
X6065777Y-12899079D01*
X6065777Y-12899079D02*
X6075301Y-12937174D01*
X6075301Y-12937174D02*
X6075301Y-12984793D01*
X6075301Y-12984793D02*
X6065777Y-13022888D01*
X6065777Y-13022888D02*
X6056253Y-13041936D01*
X6056253Y-13041936D02*
X6046729Y-13051460D01*
X6046729Y-13051460D02*
X6027682Y-13060984D01*
X6027682Y-13060984D02*
X6008634Y-13060984D01*
X6008634Y-13060984D02*
X5989586Y-13051460D01*
X5989586Y-13051460D02*
X5980063Y-13041936D01*
X5980063Y-13041936D02*
X5970539Y-13022888D01*
X5970539Y-13022888D02*
X5961015Y-12984793D01*
X5961015Y-12984793D02*
X5961015Y-12937174D01*
X5961015Y-12937174D02*
X5970539Y-12899079D01*
X5970539Y-12899079D02*
X5980063Y-12880031D01*
X5980063Y-12880031D02*
X5989586Y-12870508D01*
X5989586Y-12870508D02*
X6008634Y-12860984D01*
X6161015Y-13041936D02*
X6170539Y-13051460D01*
X6170539Y-13051460D02*
X6161015Y-13060984D01*
X6161015Y-13060984D02*
X6151491Y-13051460D01*
X6151491Y-13051460D02*
X6161015Y-13041936D01*
X6161015Y-13041936D02*
X6161015Y-13060984D01*
X6294348Y-12860984D02*
X6313396Y-12860984D01*
X6313396Y-12860984D02*
X6332444Y-12870508D01*
X6332444Y-12870508D02*
X6341967Y-12880031D01*
X6341967Y-12880031D02*
X6351491Y-12899079D01*
X6351491Y-12899079D02*
X6361015Y-12937174D01*
X6361015Y-12937174D02*
X6361015Y-12984793D01*
X6361015Y-12984793D02*
X6351491Y-13022888D01*
X6351491Y-13022888D02*
X6341967Y-13041936D01*
X6341967Y-13041936D02*
X6332444Y-13051460D01*
X6332444Y-13051460D02*
X6313396Y-13060984D01*
X6313396Y-13060984D02*
X6294348Y-13060984D01*
X6294348Y-13060984D02*
X6275301Y-13051460D01*
X6275301Y-13051460D02*
X6265777Y-13041936D01*
X6265777Y-13041936D02*
X6256253Y-13022888D01*
X6256253Y-13022888D02*
X6246729Y-12984793D01*
X6246729Y-12984793D02*
X6246729Y-12937174D01*
X6246729Y-12937174D02*
X6256253Y-12899079D01*
X6256253Y-12899079D02*
X6265777Y-12880031D01*
X6265777Y-12880031D02*
X6275301Y-12870508D01*
X6275301Y-12870508D02*
X6294348Y-12860984D01*
X6551491Y-13060984D02*
X6437206Y-13060984D01*
X6494348Y-13060984D02*
X6494348Y-12860984D01*
X6494348Y-12860984D02*
X6475301Y-12889555D01*
X6475301Y-12889555D02*
X6456253Y-12908603D01*
X6456253Y-12908603D02*
X6437206Y-12918127D01*
X6732444Y-12860984D02*
X6637206Y-12860984D01*
X6637206Y-12860984D02*
X6627682Y-12956222D01*
X6627682Y-12956222D02*
X6637206Y-12946698D01*
X6637206Y-12946698D02*
X6656253Y-12937174D01*
X6656253Y-12937174D02*
X6703872Y-12937174D01*
X6703872Y-12937174D02*
X6722920Y-12946698D01*
X6722920Y-12946698D02*
X6732444Y-12956222D01*
X6732444Y-12956222D02*
X6741967Y-12975269D01*
X6741967Y-12975269D02*
X6741967Y-13022888D01*
X6741967Y-13022888D02*
X6732444Y-13041936D01*
X6732444Y-13041936D02*
X6722920Y-13051460D01*
X6722920Y-13051460D02*
X6703872Y-13060984D01*
X6703872Y-13060984D02*
X6656253Y-13060984D01*
X6656253Y-13060984D02*
X6637206Y-13051460D01*
X6637206Y-13051460D02*
X6627682Y-13041936D01*
X6808634Y-12860984D02*
X6941967Y-12860984D01*
X6941967Y-12860984D02*
X6856253Y-13060984D01*
X7008634Y-12860984D02*
X7008634Y-12899079D01*
X7084825Y-12860984D02*
X7084825Y-12899079D01*
X7380063Y-13137174D02*
X7370539Y-13127650D01*
X7370539Y-13127650D02*
X7351491Y-13099079D01*
X7351491Y-13099079D02*
X7341968Y-13080031D01*
X7341968Y-13080031D02*
X7332444Y-13051460D01*
X7332444Y-13051460D02*
X7322920Y-13003841D01*
X7322920Y-13003841D02*
X7322920Y-12965746D01*
X7322920Y-12965746D02*
X7332444Y-12918127D01*
X7332444Y-12918127D02*
X7341968Y-12889555D01*
X7341968Y-12889555D02*
X7351491Y-12870508D01*
X7351491Y-12870508D02*
X7370539Y-12841936D01*
X7370539Y-12841936D02*
X7380063Y-12832412D01*
X7465777Y-13060984D02*
X7503872Y-13060984D01*
X7503872Y-13060984D02*
X7522920Y-13051460D01*
X7522920Y-13051460D02*
X7532444Y-13041936D01*
X7532444Y-13041936D02*
X7551491Y-13013365D01*
X7551491Y-13013365D02*
X7561015Y-12975269D01*
X7561015Y-12975269D02*
X7561015Y-12899079D01*
X7561015Y-12899079D02*
X7551491Y-12880031D01*
X7551491Y-12880031D02*
X7541968Y-12870508D01*
X7541968Y-12870508D02*
X7522920Y-12860984D01*
X7522920Y-12860984D02*
X7484825Y-12860984D01*
X7484825Y-12860984D02*
X7465777Y-12870508D01*
X7465777Y-12870508D02*
X7456253Y-12880031D01*
X7456253Y-12880031D02*
X7446729Y-12899079D01*
X7446729Y-12899079D02*
X7446729Y-12946698D01*
X7446729Y-12946698D02*
X7456253Y-12965746D01*
X7456253Y-12965746D02*
X7465777Y-12975269D01*
X7465777Y-12975269D02*
X7484825Y-12984793D01*
X7484825Y-12984793D02*
X7522920Y-12984793D01*
X7522920Y-12984793D02*
X7541968Y-12975269D01*
X7541968Y-12975269D02*
X7551491Y-12965746D01*
X7551491Y-12965746D02*
X7561015Y-12946698D01*
X7637206Y-12880031D02*
X7646729Y-12870508D01*
X7646729Y-12870508D02*
X7665777Y-12860984D01*
X7665777Y-12860984D02*
X7713396Y-12860984D01*
X7713396Y-12860984D02*
X7732444Y-12870508D01*
X7732444Y-12870508D02*
X7741968Y-12880031D01*
X7741968Y-12880031D02*
X7751491Y-12899079D01*
X7751491Y-12899079D02*
X7751491Y-12918127D01*
X7751491Y-12918127D02*
X7741968Y-12946698D01*
X7741968Y-12946698D02*
X7627682Y-13060984D01*
X7627682Y-13060984D02*
X7751491Y-13060984D01*
X7989587Y-13060984D02*
X7989587Y-12860984D01*
X8075301Y-13060984D02*
X8075301Y-12956222D01*
X8075301Y-12956222D02*
X8065777Y-12937174D01*
X8065777Y-12937174D02*
X8046730Y-12927650D01*
X8046730Y-12927650D02*
X8018158Y-12927650D01*
X8018158Y-12927650D02*
X7999110Y-12937174D01*
X7999110Y-12937174D02*
X7989587Y-12946698D01*
X8199110Y-13060984D02*
X8180063Y-13051460D01*
X8180063Y-13051460D02*
X8170539Y-13041936D01*
X8170539Y-13041936D02*
X8161015Y-13022888D01*
X8161015Y-13022888D02*
X8161015Y-12965746D01*
X8161015Y-12965746D02*
X8170539Y-12946698D01*
X8170539Y-12946698D02*
X8180063Y-12937174D01*
X8180063Y-12937174D02*
X8199110Y-12927650D01*
X8199110Y-12927650D02*
X8227682Y-12927650D01*
X8227682Y-12927650D02*
X8246730Y-12937174D01*
X8246730Y-12937174D02*
X8256253Y-12946698D01*
X8256253Y-12946698D02*
X8265777Y-12965746D01*
X8265777Y-12965746D02*
X8265777Y-13022888D01*
X8265777Y-13022888D02*
X8256253Y-13041936D01*
X8256253Y-13041936D02*
X8246730Y-13051460D01*
X8246730Y-13051460D02*
X8227682Y-13060984D01*
X8227682Y-13060984D02*
X8199110Y-13060984D01*
X8380063Y-13060984D02*
X8361015Y-13051460D01*
X8361015Y-13051460D02*
X8351491Y-13032412D01*
X8351491Y-13032412D02*
X8351491Y-12860984D01*
X8532444Y-13051460D02*
X8513396Y-13060984D01*
X8513396Y-13060984D02*
X8475301Y-13060984D01*
X8475301Y-13060984D02*
X8456253Y-13051460D01*
X8456253Y-13051460D02*
X8446730Y-13032412D01*
X8446730Y-13032412D02*
X8446730Y-12956222D01*
X8446730Y-12956222D02*
X8456253Y-12937174D01*
X8456253Y-12937174D02*
X8475301Y-12927650D01*
X8475301Y-12927650D02*
X8513396Y-12927650D01*
X8513396Y-12927650D02*
X8532444Y-12937174D01*
X8532444Y-12937174D02*
X8541968Y-12956222D01*
X8541968Y-12956222D02*
X8541968Y-12975269D01*
X8541968Y-12975269D02*
X8446730Y-12994317D01*
X8618158Y-13051460D02*
X8637206Y-13060984D01*
X8637206Y-13060984D02*
X8675301Y-13060984D01*
X8675301Y-13060984D02*
X8694349Y-13051460D01*
X8694349Y-13051460D02*
X8703873Y-13032412D01*
X8703873Y-13032412D02*
X8703873Y-13022888D01*
X8703873Y-13022888D02*
X8694349Y-13003841D01*
X8694349Y-13003841D02*
X8675301Y-12994317D01*
X8675301Y-12994317D02*
X8646730Y-12994317D01*
X8646730Y-12994317D02*
X8627682Y-12984793D01*
X8627682Y-12984793D02*
X8618158Y-12965746D01*
X8618158Y-12965746D02*
X8618158Y-12956222D01*
X8618158Y-12956222D02*
X8627682Y-12937174D01*
X8627682Y-12937174D02*
X8646730Y-12927650D01*
X8646730Y-12927650D02*
X8675301Y-12927650D01*
X8675301Y-12927650D02*
X8694349Y-12937174D01*
X8770539Y-13137174D02*
X8780063Y-13127650D01*
X8780063Y-13127650D02*
X8799111Y-13099079D01*
X8799111Y-13099079D02*
X8808634Y-13080031D01*
X8808634Y-13080031D02*
X8818158Y-13051460D01*
X8818158Y-13051460D02*
X8827682Y-13003841D01*
X8827682Y-13003841D02*
X8827682Y-12965746D01*
X8827682Y-12965746D02*
X8818158Y-12918127D01*
X8818158Y-12918127D02*
X8808634Y-12889555D01*
X8808634Y-12889555D02*
X8799111Y-12870508D01*
X8799111Y-12870508D02*
X8780063Y-12841936D01*
X8780063Y-12841936D02*
X8770539Y-12832412D01*
D10*
X3775000Y-13203500D02*
X3775000Y-13263500D01*
X3745000Y-13233500D02*
X3805000Y-13233500D01*
D11*
X4103872Y-13124984D02*
X4122920Y-13124984D01*
X4122920Y-13124984D02*
X4141967Y-13134508D01*
X4141967Y-13134508D02*
X4151491Y-13144031D01*
X4151491Y-13144031D02*
X4161015Y-13163079D01*
X4161015Y-13163079D02*
X4170539Y-13201174D01*
X4170539Y-13201174D02*
X4170539Y-13248793D01*
X4170539Y-13248793D02*
X4161015Y-13286888D01*
X4161015Y-13286888D02*
X4151491Y-13305936D01*
X4151491Y-13305936D02*
X4141967Y-13315460D01*
X4141967Y-13315460D02*
X4122920Y-13324984D01*
X4122920Y-13324984D02*
X4103872Y-13324984D01*
X4103872Y-13324984D02*
X4084824Y-13315460D01*
X4084824Y-13315460D02*
X4075301Y-13305936D01*
X4075301Y-13305936D02*
X4065777Y-13286888D01*
X4065777Y-13286888D02*
X4056253Y-13248793D01*
X4056253Y-13248793D02*
X4056253Y-13201174D01*
X4056253Y-13201174D02*
X4065777Y-13163079D01*
X4065777Y-13163079D02*
X4075301Y-13144031D01*
X4075301Y-13144031D02*
X4084824Y-13134508D01*
X4084824Y-13134508D02*
X4103872Y-13124984D01*
X4256253Y-13305936D02*
X4265777Y-13315460D01*
X4265777Y-13315460D02*
X4256253Y-13324984D01*
X4256253Y-13324984D02*
X4246729Y-13315460D01*
X4246729Y-13315460D02*
X4256253Y-13305936D01*
X4256253Y-13305936D02*
X4256253Y-13324984D01*
X4437205Y-13124984D02*
X4399110Y-13124984D01*
X4399110Y-13124984D02*
X4380063Y-13134508D01*
X4380063Y-13134508D02*
X4370539Y-13144031D01*
X4370539Y-13144031D02*
X4351491Y-13172603D01*
X4351491Y-13172603D02*
X4341967Y-13210698D01*
X4341967Y-13210698D02*
X4341967Y-13286888D01*
X4341967Y-13286888D02*
X4351491Y-13305936D01*
X4351491Y-13305936D02*
X4361015Y-13315460D01*
X4361015Y-13315460D02*
X4380063Y-13324984D01*
X4380063Y-13324984D02*
X4418158Y-13324984D01*
X4418158Y-13324984D02*
X4437205Y-13315460D01*
X4437205Y-13315460D02*
X4446729Y-13305936D01*
X4446729Y-13305936D02*
X4456253Y-13286888D01*
X4456253Y-13286888D02*
X4456253Y-13239269D01*
X4456253Y-13239269D02*
X4446729Y-13220222D01*
X4446729Y-13220222D02*
X4437205Y-13210698D01*
X4437205Y-13210698D02*
X4418158Y-13201174D01*
X4418158Y-13201174D02*
X4380063Y-13201174D01*
X4380063Y-13201174D02*
X4361015Y-13210698D01*
X4361015Y-13210698D02*
X4351491Y-13220222D01*
X4351491Y-13220222D02*
X4341967Y-13239269D01*
X4580063Y-13124984D02*
X4599110Y-13124984D01*
X4599110Y-13124984D02*
X4618158Y-13134508D01*
X4618158Y-13134508D02*
X4627682Y-13144031D01*
X4627682Y-13144031D02*
X4637205Y-13163079D01*
X4637205Y-13163079D02*
X4646729Y-13201174D01*
X4646729Y-13201174D02*
X4646729Y-13248793D01*
X4646729Y-13248793D02*
X4637205Y-13286888D01*
X4637205Y-13286888D02*
X4627682Y-13305936D01*
X4627682Y-13305936D02*
X4618158Y-13315460D01*
X4618158Y-13315460D02*
X4599110Y-13324984D01*
X4599110Y-13324984D02*
X4580063Y-13324984D01*
X4580063Y-13324984D02*
X4561015Y-13315460D01*
X4561015Y-13315460D02*
X4551491Y-13305936D01*
X4551491Y-13305936D02*
X4541967Y-13286888D01*
X4541967Y-13286888D02*
X4532444Y-13248793D01*
X4532444Y-13248793D02*
X4532444Y-13201174D01*
X4532444Y-13201174D02*
X4541967Y-13163079D01*
X4541967Y-13163079D02*
X4551491Y-13144031D01*
X4551491Y-13144031D02*
X4561015Y-13134508D01*
X4561015Y-13134508D02*
X4580063Y-13124984D01*
X4770539Y-13124984D02*
X4789586Y-13124984D01*
X4789586Y-13124984D02*
X4808634Y-13134508D01*
X4808634Y-13134508D02*
X4818158Y-13144031D01*
X4818158Y-13144031D02*
X4827682Y-13163079D01*
X4827682Y-13163079D02*
X4837205Y-13201174D01*
X4837205Y-13201174D02*
X4837205Y-13248793D01*
X4837205Y-13248793D02*
X4827682Y-13286888D01*
X4827682Y-13286888D02*
X4818158Y-13305936D01*
X4818158Y-13305936D02*
X4808634Y-13315460D01*
X4808634Y-13315460D02*
X4789586Y-13324984D01*
X4789586Y-13324984D02*
X4770539Y-13324984D01*
X4770539Y-13324984D02*
X4751491Y-13315460D01*
X4751491Y-13315460D02*
X4741967Y-13305936D01*
X4741967Y-13305936D02*
X4732444Y-13286888D01*
X4732444Y-13286888D02*
X4722920Y-13248793D01*
X4722920Y-13248793D02*
X4722920Y-13201174D01*
X4722920Y-13201174D02*
X4732444Y-13163079D01*
X4732444Y-13163079D02*
X4741967Y-13144031D01*
X4741967Y-13144031D02*
X4751491Y-13134508D01*
X4751491Y-13134508D02*
X4770539Y-13124984D01*
X4922920Y-13324984D02*
X4922920Y-13191650D01*
X4922920Y-13210698D02*
X4932444Y-13201174D01*
X4932444Y-13201174D02*
X4951491Y-13191650D01*
X4951491Y-13191650D02*
X4980063Y-13191650D01*
X4980063Y-13191650D02*
X4999110Y-13201174D01*
X4999110Y-13201174D02*
X5008634Y-13220222D01*
X5008634Y-13220222D02*
X5008634Y-13324984D01*
X5008634Y-13220222D02*
X5018158Y-13201174D01*
X5018158Y-13201174D02*
X5037205Y-13191650D01*
X5037205Y-13191650D02*
X5065777Y-13191650D01*
X5065777Y-13191650D02*
X5084825Y-13201174D01*
X5084825Y-13201174D02*
X5094348Y-13220222D01*
X5094348Y-13220222D02*
X5094348Y-13324984D01*
X5189586Y-13324984D02*
X5189586Y-13191650D01*
X5189586Y-13210698D02*
X5199110Y-13201174D01*
X5199110Y-13201174D02*
X5218158Y-13191650D01*
X5218158Y-13191650D02*
X5246729Y-13191650D01*
X5246729Y-13191650D02*
X5265777Y-13201174D01*
X5265777Y-13201174D02*
X5275301Y-13220222D01*
X5275301Y-13220222D02*
X5275301Y-13324984D01*
X5275301Y-13220222D02*
X5284825Y-13201174D01*
X5284825Y-13201174D02*
X5303872Y-13191650D01*
X5303872Y-13191650D02*
X5332444Y-13191650D01*
X5332444Y-13191650D02*
X5351491Y-13201174D01*
X5351491Y-13201174D02*
X5361015Y-13220222D01*
X5361015Y-13220222D02*
X5361015Y-13324984D01*
X5751491Y-13115460D02*
X5580063Y-13372603D01*
X6008634Y-13124984D02*
X6027682Y-13124984D01*
X6027682Y-13124984D02*
X6046729Y-13134508D01*
X6046729Y-13134508D02*
X6056253Y-13144031D01*
X6056253Y-13144031D02*
X6065777Y-13163079D01*
X6065777Y-13163079D02*
X6075301Y-13201174D01*
X6075301Y-13201174D02*
X6075301Y-13248793D01*
X6075301Y-13248793D02*
X6065777Y-13286888D01*
X6065777Y-13286888D02*
X6056253Y-13305936D01*
X6056253Y-13305936D02*
X6046729Y-13315460D01*
X6046729Y-13315460D02*
X6027682Y-13324984D01*
X6027682Y-13324984D02*
X6008634Y-13324984D01*
X6008634Y-13324984D02*
X5989586Y-13315460D01*
X5989586Y-13315460D02*
X5980063Y-13305936D01*
X5980063Y-13305936D02*
X5970539Y-13286888D01*
X5970539Y-13286888D02*
X5961015Y-13248793D01*
X5961015Y-13248793D02*
X5961015Y-13201174D01*
X5961015Y-13201174D02*
X5970539Y-13163079D01*
X5970539Y-13163079D02*
X5980063Y-13144031D01*
X5980063Y-13144031D02*
X5989586Y-13134508D01*
X5989586Y-13134508D02*
X6008634Y-13124984D01*
X6161015Y-13305936D02*
X6170539Y-13315460D01*
X6170539Y-13315460D02*
X6161015Y-13324984D01*
X6161015Y-13324984D02*
X6151491Y-13315460D01*
X6151491Y-13315460D02*
X6161015Y-13305936D01*
X6161015Y-13305936D02*
X6161015Y-13324984D01*
X6294348Y-13124984D02*
X6313396Y-13124984D01*
X6313396Y-13124984D02*
X6332444Y-13134508D01*
X6332444Y-13134508D02*
X6341967Y-13144031D01*
X6341967Y-13144031D02*
X6351491Y-13163079D01*
X6351491Y-13163079D02*
X6361015Y-13201174D01*
X6361015Y-13201174D02*
X6361015Y-13248793D01*
X6361015Y-13248793D02*
X6351491Y-13286888D01*
X6351491Y-13286888D02*
X6341967Y-13305936D01*
X6341967Y-13305936D02*
X6332444Y-13315460D01*
X6332444Y-13315460D02*
X6313396Y-13324984D01*
X6313396Y-13324984D02*
X6294348Y-13324984D01*
X6294348Y-13324984D02*
X6275301Y-13315460D01*
X6275301Y-13315460D02*
X6265777Y-13305936D01*
X6265777Y-13305936D02*
X6256253Y-13286888D01*
X6256253Y-13286888D02*
X6246729Y-13248793D01*
X6246729Y-13248793D02*
X6246729Y-13201174D01*
X6246729Y-13201174D02*
X6256253Y-13163079D01*
X6256253Y-13163079D02*
X6265777Y-13144031D01*
X6265777Y-13144031D02*
X6275301Y-13134508D01*
X6275301Y-13134508D02*
X6294348Y-13124984D01*
X6437206Y-13144031D02*
X6446729Y-13134508D01*
X6446729Y-13134508D02*
X6465777Y-13124984D01*
X6465777Y-13124984D02*
X6513396Y-13124984D01*
X6513396Y-13124984D02*
X6532444Y-13134508D01*
X6532444Y-13134508D02*
X6541967Y-13144031D01*
X6541967Y-13144031D02*
X6551491Y-13163079D01*
X6551491Y-13163079D02*
X6551491Y-13182127D01*
X6551491Y-13182127D02*
X6541967Y-13210698D01*
X6541967Y-13210698D02*
X6427682Y-13324984D01*
X6427682Y-13324984D02*
X6551491Y-13324984D01*
X6618158Y-13124984D02*
X6741967Y-13124984D01*
X6741967Y-13124984D02*
X6675301Y-13201174D01*
X6675301Y-13201174D02*
X6703872Y-13201174D01*
X6703872Y-13201174D02*
X6722920Y-13210698D01*
X6722920Y-13210698D02*
X6732444Y-13220222D01*
X6732444Y-13220222D02*
X6741967Y-13239269D01*
X6741967Y-13239269D02*
X6741967Y-13286888D01*
X6741967Y-13286888D02*
X6732444Y-13305936D01*
X6732444Y-13305936D02*
X6722920Y-13315460D01*
X6722920Y-13315460D02*
X6703872Y-13324984D01*
X6703872Y-13324984D02*
X6646729Y-13324984D01*
X6646729Y-13324984D02*
X6627682Y-13315460D01*
X6627682Y-13315460D02*
X6618158Y-13305936D01*
X6913396Y-13124984D02*
X6875301Y-13124984D01*
X6875301Y-13124984D02*
X6856253Y-13134508D01*
X6856253Y-13134508D02*
X6846729Y-13144031D01*
X6846729Y-13144031D02*
X6827682Y-13172603D01*
X6827682Y-13172603D02*
X6818158Y-13210698D01*
X6818158Y-13210698D02*
X6818158Y-13286888D01*
X6818158Y-13286888D02*
X6827682Y-13305936D01*
X6827682Y-13305936D02*
X6837206Y-13315460D01*
X6837206Y-13315460D02*
X6856253Y-13324984D01*
X6856253Y-13324984D02*
X6894348Y-13324984D01*
X6894348Y-13324984D02*
X6913396Y-13315460D01*
X6913396Y-13315460D02*
X6922920Y-13305936D01*
X6922920Y-13305936D02*
X6932444Y-13286888D01*
X6932444Y-13286888D02*
X6932444Y-13239269D01*
X6932444Y-13239269D02*
X6922920Y-13220222D01*
X6922920Y-13220222D02*
X6913396Y-13210698D01*
X6913396Y-13210698D02*
X6894348Y-13201174D01*
X6894348Y-13201174D02*
X6856253Y-13201174D01*
X6856253Y-13201174D02*
X6837206Y-13210698D01*
X6837206Y-13210698D02*
X6827682Y-13220222D01*
X6827682Y-13220222D02*
X6818158Y-13239269D01*
X7008634Y-13124984D02*
X7008634Y-13163079D01*
X7084825Y-13124984D02*
X7084825Y-13163079D01*
X7380063Y-13401174D02*
X7370539Y-13391650D01*
X7370539Y-13391650D02*
X7351491Y-13363079D01*
X7351491Y-13363079D02*
X7341968Y-13344031D01*
X7341968Y-13344031D02*
X7332444Y-13315460D01*
X7332444Y-13315460D02*
X7322920Y-13267841D01*
X7322920Y-13267841D02*
X7322920Y-13229746D01*
X7322920Y-13229746D02*
X7332444Y-13182127D01*
X7332444Y-13182127D02*
X7341968Y-13153555D01*
X7341968Y-13153555D02*
X7351491Y-13134508D01*
X7351491Y-13134508D02*
X7370539Y-13105936D01*
X7370539Y-13105936D02*
X7380063Y-13096412D01*
X7494348Y-13124984D02*
X7513396Y-13124984D01*
X7513396Y-13124984D02*
X7532444Y-13134508D01*
X7532444Y-13134508D02*
X7541968Y-13144031D01*
X7541968Y-13144031D02*
X7551491Y-13163079D01*
X7551491Y-13163079D02*
X7561015Y-13201174D01*
X7561015Y-13201174D02*
X7561015Y-13248793D01*
X7561015Y-13248793D02*
X7551491Y-13286888D01*
X7551491Y-13286888D02*
X7541968Y-13305936D01*
X7541968Y-13305936D02*
X7532444Y-13315460D01*
X7532444Y-13315460D02*
X7513396Y-13324984D01*
X7513396Y-13324984D02*
X7494348Y-13324984D01*
X7494348Y-13324984D02*
X7475301Y-13315460D01*
X7475301Y-13315460D02*
X7465777Y-13305936D01*
X7465777Y-13305936D02*
X7456253Y-13286888D01*
X7456253Y-13286888D02*
X7446729Y-13248793D01*
X7446729Y-13248793D02*
X7446729Y-13201174D01*
X7446729Y-13201174D02*
X7456253Y-13163079D01*
X7456253Y-13163079D02*
X7465777Y-13144031D01*
X7465777Y-13144031D02*
X7475301Y-13134508D01*
X7475301Y-13134508D02*
X7494348Y-13124984D01*
X7799110Y-13324984D02*
X7799110Y-13124984D01*
X7884825Y-13324984D02*
X7884825Y-13220222D01*
X7884825Y-13220222D02*
X7875301Y-13201174D01*
X7875301Y-13201174D02*
X7856253Y-13191650D01*
X7856253Y-13191650D02*
X7827682Y-13191650D01*
X7827682Y-13191650D02*
X7808634Y-13201174D01*
X7808634Y-13201174D02*
X7799110Y-13210698D01*
X8008634Y-13324984D02*
X7989587Y-13315460D01*
X7989587Y-13315460D02*
X7980063Y-13305936D01*
X7980063Y-13305936D02*
X7970539Y-13286888D01*
X7970539Y-13286888D02*
X7970539Y-13229746D01*
X7970539Y-13229746D02*
X7980063Y-13210698D01*
X7980063Y-13210698D02*
X7989587Y-13201174D01*
X7989587Y-13201174D02*
X8008634Y-13191650D01*
X8008634Y-13191650D02*
X8037206Y-13191650D01*
X8037206Y-13191650D02*
X8056253Y-13201174D01*
X8056253Y-13201174D02*
X8065777Y-13210698D01*
X8065777Y-13210698D02*
X8075301Y-13229746D01*
X8075301Y-13229746D02*
X8075301Y-13286888D01*
X8075301Y-13286888D02*
X8065777Y-13305936D01*
X8065777Y-13305936D02*
X8056253Y-13315460D01*
X8056253Y-13315460D02*
X8037206Y-13324984D01*
X8037206Y-13324984D02*
X8008634Y-13324984D01*
X8189587Y-13324984D02*
X8170539Y-13315460D01*
X8170539Y-13315460D02*
X8161015Y-13296412D01*
X8161015Y-13296412D02*
X8161015Y-13124984D01*
X8341968Y-13315460D02*
X8322920Y-13324984D01*
X8322920Y-13324984D02*
X8284825Y-13324984D01*
X8284825Y-13324984D02*
X8265777Y-13315460D01*
X8265777Y-13315460D02*
X8256253Y-13296412D01*
X8256253Y-13296412D02*
X8256253Y-13220222D01*
X8256253Y-13220222D02*
X8265777Y-13201174D01*
X8265777Y-13201174D02*
X8284825Y-13191650D01*
X8284825Y-13191650D02*
X8322920Y-13191650D01*
X8322920Y-13191650D02*
X8341968Y-13201174D01*
X8341968Y-13201174D02*
X8351491Y-13220222D01*
X8351491Y-13220222D02*
X8351491Y-13239269D01*
X8351491Y-13239269D02*
X8256253Y-13258317D01*
X8427682Y-13315460D02*
X8446730Y-13324984D01*
X8446730Y-13324984D02*
X8484825Y-13324984D01*
X8484825Y-13324984D02*
X8503873Y-13315460D01*
X8503873Y-13315460D02*
X8513396Y-13296412D01*
X8513396Y-13296412D02*
X8513396Y-13286888D01*
X8513396Y-13286888D02*
X8503873Y-13267841D01*
X8503873Y-13267841D02*
X8484825Y-13258317D01*
X8484825Y-13258317D02*
X8456253Y-13258317D01*
X8456253Y-13258317D02*
X8437206Y-13248793D01*
X8437206Y-13248793D02*
X8427682Y-13229746D01*
X8427682Y-13229746D02*
X8427682Y-13220222D01*
X8427682Y-13220222D02*
X8437206Y-13201174D01*
X8437206Y-13201174D02*
X8456253Y-13191650D01*
X8456253Y-13191650D02*
X8484825Y-13191650D01*
X8484825Y-13191650D02*
X8503873Y-13201174D01*
X8751492Y-13248793D02*
X8903873Y-13248793D01*
X8827682Y-13324984D02*
X8827682Y-13172603D01*
X9141968Y-13144031D02*
X9151492Y-13134508D01*
X9151492Y-13134508D02*
X9170539Y-13124984D01*
X9170539Y-13124984D02*
X9218158Y-13124984D01*
X9218158Y-13124984D02*
X9237206Y-13134508D01*
X9237206Y-13134508D02*
X9246730Y-13144031D01*
X9246730Y-13144031D02*
X9256254Y-13163079D01*
X9256254Y-13163079D02*
X9256254Y-13182127D01*
X9256254Y-13182127D02*
X9246730Y-13210698D01*
X9246730Y-13210698D02*
X9132444Y-13324984D01*
X9132444Y-13324984D02*
X9256254Y-13324984D01*
X9484825Y-13315460D02*
X9503873Y-13324984D01*
X9503873Y-13324984D02*
X9541968Y-13324984D01*
X9541968Y-13324984D02*
X9561016Y-13315460D01*
X9561016Y-13315460D02*
X9570539Y-13296412D01*
X9570539Y-13296412D02*
X9570539Y-13286888D01*
X9570539Y-13286888D02*
X9561016Y-13267841D01*
X9561016Y-13267841D02*
X9541968Y-13258317D01*
X9541968Y-13258317D02*
X9513396Y-13258317D01*
X9513396Y-13258317D02*
X9494349Y-13248793D01*
X9494349Y-13248793D02*
X9484825Y-13229746D01*
X9484825Y-13229746D02*
X9484825Y-13220222D01*
X9484825Y-13220222D02*
X9494349Y-13201174D01*
X9494349Y-13201174D02*
X9513396Y-13191650D01*
X9513396Y-13191650D02*
X9541968Y-13191650D01*
X9541968Y-13191650D02*
X9561016Y-13201174D01*
X9684825Y-13324984D02*
X9665777Y-13315460D01*
X9665777Y-13315460D02*
X9656254Y-13296412D01*
X9656254Y-13296412D02*
X9656254Y-13124984D01*
X9789587Y-13324984D02*
X9770539Y-13315460D01*
X9770539Y-13315460D02*
X9761016Y-13305936D01*
X9761016Y-13305936D02*
X9751492Y-13286888D01*
X9751492Y-13286888D02*
X9751492Y-13229746D01*
X9751492Y-13229746D02*
X9761016Y-13210698D01*
X9761016Y-13210698D02*
X9770539Y-13201174D01*
X9770539Y-13201174D02*
X9789587Y-13191650D01*
X9789587Y-13191650D02*
X9818158Y-13191650D01*
X9818158Y-13191650D02*
X9837206Y-13201174D01*
X9837206Y-13201174D02*
X9846730Y-13210698D01*
X9846730Y-13210698D02*
X9856254Y-13229746D01*
X9856254Y-13229746D02*
X9856254Y-13286888D01*
X9856254Y-13286888D02*
X9846730Y-13305936D01*
X9846730Y-13305936D02*
X9837206Y-13315460D01*
X9837206Y-13315460D02*
X9818158Y-13324984D01*
X9818158Y-13324984D02*
X9789587Y-13324984D01*
X9913397Y-13191650D02*
X9989587Y-13191650D01*
X9941968Y-13124984D02*
X9941968Y-13296412D01*
X9941968Y-13296412D02*
X9951492Y-13315460D01*
X9951492Y-13315460D02*
X9970539Y-13324984D01*
X9970539Y-13324984D02*
X9989587Y-13324984D01*
X10046730Y-13315460D02*
X10065777Y-13324984D01*
X10065777Y-13324984D02*
X10103873Y-13324984D01*
X10103873Y-13324984D02*
X10122920Y-13315460D01*
X10122920Y-13315460D02*
X10132444Y-13296412D01*
X10132444Y-13296412D02*
X10132444Y-13286888D01*
X10132444Y-13286888D02*
X10122920Y-13267841D01*
X10122920Y-13267841D02*
X10103873Y-13258317D01*
X10103873Y-13258317D02*
X10075301Y-13258317D01*
X10075301Y-13258317D02*
X10056254Y-13248793D01*
X10056254Y-13248793D02*
X10046730Y-13229746D01*
X10046730Y-13229746D02*
X10046730Y-13220222D01*
X10046730Y-13220222D02*
X10056254Y-13201174D01*
X10056254Y-13201174D02*
X10075301Y-13191650D01*
X10075301Y-13191650D02*
X10103873Y-13191650D01*
X10103873Y-13191650D02*
X10122920Y-13201174D01*
X10199111Y-13401174D02*
X10208635Y-13391650D01*
X10208635Y-13391650D02*
X10227682Y-13363079D01*
X10227682Y-13363079D02*
X10237206Y-13344031D01*
X10237206Y-13344031D02*
X10246730Y-13315460D01*
X10246730Y-13315460D02*
X10256254Y-13267841D01*
X10256254Y-13267841D02*
X10256254Y-13229746D01*
X10256254Y-13229746D02*
X10246730Y-13182127D01*
X10246730Y-13182127D02*
X10237206Y-13153555D01*
X10237206Y-13153555D02*
X10227682Y-13134508D01*
X10227682Y-13134508D02*
X10208635Y-13105936D01*
X10208635Y-13105936D02*
X10199111Y-13096412D01*
D10*
X3792552Y-13527552D02*
X3792552Y-13467448D01*
X3732448Y-13467448D01*
X3732448Y-13527552D01*
X3792552Y-13527552D01*
D11*
X4103872Y-13388984D02*
X4122920Y-13388984D01*
X4122920Y-13388984D02*
X4141967Y-13398508D01*
X4141967Y-13398508D02*
X4151491Y-13408031D01*
X4151491Y-13408031D02*
X4161015Y-13427079D01*
X4161015Y-13427079D02*
X4170539Y-13465174D01*
X4170539Y-13465174D02*
X4170539Y-13512793D01*
X4170539Y-13512793D02*
X4161015Y-13550888D01*
X4161015Y-13550888D02*
X4151491Y-13569936D01*
X4151491Y-13569936D02*
X4141967Y-13579460D01*
X4141967Y-13579460D02*
X4122920Y-13588984D01*
X4122920Y-13588984D02*
X4103872Y-13588984D01*
X4103872Y-13588984D02*
X4084824Y-13579460D01*
X4084824Y-13579460D02*
X4075301Y-13569936D01*
X4075301Y-13569936D02*
X4065777Y-13550888D01*
X4065777Y-13550888D02*
X4056253Y-13512793D01*
X4056253Y-13512793D02*
X4056253Y-13465174D01*
X4056253Y-13465174D02*
X4065777Y-13427079D01*
X4065777Y-13427079D02*
X4075301Y-13408031D01*
X4075301Y-13408031D02*
X4084824Y-13398508D01*
X4084824Y-13398508D02*
X4103872Y-13388984D01*
X4256253Y-13569936D02*
X4265777Y-13579460D01*
X4265777Y-13579460D02*
X4256253Y-13588984D01*
X4256253Y-13588984D02*
X4246729Y-13579460D01*
X4246729Y-13579460D02*
X4256253Y-13569936D01*
X4256253Y-13569936D02*
X4256253Y-13588984D01*
X4380063Y-13474698D02*
X4361015Y-13465174D01*
X4361015Y-13465174D02*
X4351491Y-13455650D01*
X4351491Y-13455650D02*
X4341967Y-13436603D01*
X4341967Y-13436603D02*
X4341967Y-13427079D01*
X4341967Y-13427079D02*
X4351491Y-13408031D01*
X4351491Y-13408031D02*
X4361015Y-13398508D01*
X4361015Y-13398508D02*
X4380063Y-13388984D01*
X4380063Y-13388984D02*
X4418158Y-13388984D01*
X4418158Y-13388984D02*
X4437205Y-13398508D01*
X4437205Y-13398508D02*
X4446729Y-13408031D01*
X4446729Y-13408031D02*
X4456253Y-13427079D01*
X4456253Y-13427079D02*
X4456253Y-13436603D01*
X4456253Y-13436603D02*
X4446729Y-13455650D01*
X4446729Y-13455650D02*
X4437205Y-13465174D01*
X4437205Y-13465174D02*
X4418158Y-13474698D01*
X4418158Y-13474698D02*
X4380063Y-13474698D01*
X4380063Y-13474698D02*
X4361015Y-13484222D01*
X4361015Y-13484222D02*
X4351491Y-13493746D01*
X4351491Y-13493746D02*
X4341967Y-13512793D01*
X4341967Y-13512793D02*
X4341967Y-13550888D01*
X4341967Y-13550888D02*
X4351491Y-13569936D01*
X4351491Y-13569936D02*
X4361015Y-13579460D01*
X4361015Y-13579460D02*
X4380063Y-13588984D01*
X4380063Y-13588984D02*
X4418158Y-13588984D01*
X4418158Y-13588984D02*
X4437205Y-13579460D01*
X4437205Y-13579460D02*
X4446729Y-13569936D01*
X4446729Y-13569936D02*
X4456253Y-13550888D01*
X4456253Y-13550888D02*
X4456253Y-13512793D01*
X4456253Y-13512793D02*
X4446729Y-13493746D01*
X4446729Y-13493746D02*
X4437205Y-13484222D01*
X4437205Y-13484222D02*
X4418158Y-13474698D01*
X4637205Y-13388984D02*
X4541967Y-13388984D01*
X4541967Y-13388984D02*
X4532444Y-13484222D01*
X4532444Y-13484222D02*
X4541967Y-13474698D01*
X4541967Y-13474698D02*
X4561015Y-13465174D01*
X4561015Y-13465174D02*
X4608634Y-13465174D01*
X4608634Y-13465174D02*
X4627682Y-13474698D01*
X4627682Y-13474698D02*
X4637205Y-13484222D01*
X4637205Y-13484222D02*
X4646729Y-13503269D01*
X4646729Y-13503269D02*
X4646729Y-13550888D01*
X4646729Y-13550888D02*
X4637205Y-13569936D01*
X4637205Y-13569936D02*
X4627682Y-13579460D01*
X4627682Y-13579460D02*
X4608634Y-13588984D01*
X4608634Y-13588984D02*
X4561015Y-13588984D01*
X4561015Y-13588984D02*
X4541967Y-13579460D01*
X4541967Y-13579460D02*
X4532444Y-13569936D01*
X4770539Y-13388984D02*
X4789586Y-13388984D01*
X4789586Y-13388984D02*
X4808634Y-13398508D01*
X4808634Y-13398508D02*
X4818158Y-13408031D01*
X4818158Y-13408031D02*
X4827682Y-13427079D01*
X4827682Y-13427079D02*
X4837205Y-13465174D01*
X4837205Y-13465174D02*
X4837205Y-13512793D01*
X4837205Y-13512793D02*
X4827682Y-13550888D01*
X4827682Y-13550888D02*
X4818158Y-13569936D01*
X4818158Y-13569936D02*
X4808634Y-13579460D01*
X4808634Y-13579460D02*
X4789586Y-13588984D01*
X4789586Y-13588984D02*
X4770539Y-13588984D01*
X4770539Y-13588984D02*
X4751491Y-13579460D01*
X4751491Y-13579460D02*
X4741967Y-13569936D01*
X4741967Y-13569936D02*
X4732444Y-13550888D01*
X4732444Y-13550888D02*
X4722920Y-13512793D01*
X4722920Y-13512793D02*
X4722920Y-13465174D01*
X4722920Y-13465174D02*
X4732444Y-13427079D01*
X4732444Y-13427079D02*
X4741967Y-13408031D01*
X4741967Y-13408031D02*
X4751491Y-13398508D01*
X4751491Y-13398508D02*
X4770539Y-13388984D01*
X4922920Y-13588984D02*
X4922920Y-13455650D01*
X4922920Y-13474698D02*
X4932444Y-13465174D01*
X4932444Y-13465174D02*
X4951491Y-13455650D01*
X4951491Y-13455650D02*
X4980063Y-13455650D01*
X4980063Y-13455650D02*
X4999110Y-13465174D01*
X4999110Y-13465174D02*
X5008634Y-13484222D01*
X5008634Y-13484222D02*
X5008634Y-13588984D01*
X5008634Y-13484222D02*
X5018158Y-13465174D01*
X5018158Y-13465174D02*
X5037205Y-13455650D01*
X5037205Y-13455650D02*
X5065777Y-13455650D01*
X5065777Y-13455650D02*
X5084825Y-13465174D01*
X5084825Y-13465174D02*
X5094348Y-13484222D01*
X5094348Y-13484222D02*
X5094348Y-13588984D01*
X5189586Y-13588984D02*
X5189586Y-13455650D01*
X5189586Y-13474698D02*
X5199110Y-13465174D01*
X5199110Y-13465174D02*
X5218158Y-13455650D01*
X5218158Y-13455650D02*
X5246729Y-13455650D01*
X5246729Y-13455650D02*
X5265777Y-13465174D01*
X5265777Y-13465174D02*
X5275301Y-13484222D01*
X5275301Y-13484222D02*
X5275301Y-13588984D01*
X5275301Y-13484222D02*
X5284825Y-13465174D01*
X5284825Y-13465174D02*
X5303872Y-13455650D01*
X5303872Y-13455650D02*
X5332444Y-13455650D01*
X5332444Y-13455650D02*
X5351491Y-13465174D01*
X5351491Y-13465174D02*
X5361015Y-13484222D01*
X5361015Y-13484222D02*
X5361015Y-13588984D01*
X5751491Y-13379460D02*
X5580063Y-13636603D01*
X6008634Y-13388984D02*
X6027682Y-13388984D01*
X6027682Y-13388984D02*
X6046729Y-13398508D01*
X6046729Y-13398508D02*
X6056253Y-13408031D01*
X6056253Y-13408031D02*
X6065777Y-13427079D01*
X6065777Y-13427079D02*
X6075301Y-13465174D01*
X6075301Y-13465174D02*
X6075301Y-13512793D01*
X6075301Y-13512793D02*
X6065777Y-13550888D01*
X6065777Y-13550888D02*
X6056253Y-13569936D01*
X6056253Y-13569936D02*
X6046729Y-13579460D01*
X6046729Y-13579460D02*
X6027682Y-13588984D01*
X6027682Y-13588984D02*
X6008634Y-13588984D01*
X6008634Y-13588984D02*
X5989586Y-13579460D01*
X5989586Y-13579460D02*
X5980063Y-13569936D01*
X5980063Y-13569936D02*
X5970539Y-13550888D01*
X5970539Y-13550888D02*
X5961015Y-13512793D01*
X5961015Y-13512793D02*
X5961015Y-13465174D01*
X5961015Y-13465174D02*
X5970539Y-13427079D01*
X5970539Y-13427079D02*
X5980063Y-13408031D01*
X5980063Y-13408031D02*
X5989586Y-13398508D01*
X5989586Y-13398508D02*
X6008634Y-13388984D01*
X6161015Y-13569936D02*
X6170539Y-13579460D01*
X6170539Y-13579460D02*
X6161015Y-13588984D01*
X6161015Y-13588984D02*
X6151491Y-13579460D01*
X6151491Y-13579460D02*
X6161015Y-13569936D01*
X6161015Y-13569936D02*
X6161015Y-13588984D01*
X6294348Y-13388984D02*
X6313396Y-13388984D01*
X6313396Y-13388984D02*
X6332444Y-13398508D01*
X6332444Y-13398508D02*
X6341967Y-13408031D01*
X6341967Y-13408031D02*
X6351491Y-13427079D01*
X6351491Y-13427079D02*
X6361015Y-13465174D01*
X6361015Y-13465174D02*
X6361015Y-13512793D01*
X6361015Y-13512793D02*
X6351491Y-13550888D01*
X6351491Y-13550888D02*
X6341967Y-13569936D01*
X6341967Y-13569936D02*
X6332444Y-13579460D01*
X6332444Y-13579460D02*
X6313396Y-13588984D01*
X6313396Y-13588984D02*
X6294348Y-13588984D01*
X6294348Y-13588984D02*
X6275301Y-13579460D01*
X6275301Y-13579460D02*
X6265777Y-13569936D01*
X6265777Y-13569936D02*
X6256253Y-13550888D01*
X6256253Y-13550888D02*
X6246729Y-13512793D01*
X6246729Y-13512793D02*
X6246729Y-13465174D01*
X6246729Y-13465174D02*
X6256253Y-13427079D01*
X6256253Y-13427079D02*
X6265777Y-13408031D01*
X6265777Y-13408031D02*
X6275301Y-13398508D01*
X6275301Y-13398508D02*
X6294348Y-13388984D01*
X6427682Y-13388984D02*
X6551491Y-13388984D01*
X6551491Y-13388984D02*
X6484825Y-13465174D01*
X6484825Y-13465174D02*
X6513396Y-13465174D01*
X6513396Y-13465174D02*
X6532444Y-13474698D01*
X6532444Y-13474698D02*
X6541967Y-13484222D01*
X6541967Y-13484222D02*
X6551491Y-13503269D01*
X6551491Y-13503269D02*
X6551491Y-13550888D01*
X6551491Y-13550888D02*
X6541967Y-13569936D01*
X6541967Y-13569936D02*
X6532444Y-13579460D01*
X6532444Y-13579460D02*
X6513396Y-13588984D01*
X6513396Y-13588984D02*
X6456253Y-13588984D01*
X6456253Y-13588984D02*
X6437206Y-13579460D01*
X6437206Y-13579460D02*
X6427682Y-13569936D01*
X6618158Y-13388984D02*
X6741967Y-13388984D01*
X6741967Y-13388984D02*
X6675301Y-13465174D01*
X6675301Y-13465174D02*
X6703872Y-13465174D01*
X6703872Y-13465174D02*
X6722920Y-13474698D01*
X6722920Y-13474698D02*
X6732444Y-13484222D01*
X6732444Y-13484222D02*
X6741967Y-13503269D01*
X6741967Y-13503269D02*
X6741967Y-13550888D01*
X6741967Y-13550888D02*
X6732444Y-13569936D01*
X6732444Y-13569936D02*
X6722920Y-13579460D01*
X6722920Y-13579460D02*
X6703872Y-13588984D01*
X6703872Y-13588984D02*
X6646729Y-13588984D01*
X6646729Y-13588984D02*
X6627682Y-13579460D01*
X6627682Y-13579460D02*
X6618158Y-13569936D01*
X6922920Y-13388984D02*
X6827682Y-13388984D01*
X6827682Y-13388984D02*
X6818158Y-13484222D01*
X6818158Y-13484222D02*
X6827682Y-13474698D01*
X6827682Y-13474698D02*
X6846729Y-13465174D01*
X6846729Y-13465174D02*
X6894348Y-13465174D01*
X6894348Y-13465174D02*
X6913396Y-13474698D01*
X6913396Y-13474698D02*
X6922920Y-13484222D01*
X6922920Y-13484222D02*
X6932444Y-13503269D01*
X6932444Y-13503269D02*
X6932444Y-13550888D01*
X6932444Y-13550888D02*
X6922920Y-13569936D01*
X6922920Y-13569936D02*
X6913396Y-13579460D01*
X6913396Y-13579460D02*
X6894348Y-13588984D01*
X6894348Y-13588984D02*
X6846729Y-13588984D01*
X6846729Y-13588984D02*
X6827682Y-13579460D01*
X6827682Y-13579460D02*
X6818158Y-13569936D01*
X7008634Y-13388984D02*
X7008634Y-13427079D01*
X7084825Y-13388984D02*
X7084825Y-13427079D01*
X7380063Y-13665174D02*
X7370539Y-13655650D01*
X7370539Y-13655650D02*
X7351491Y-13627079D01*
X7351491Y-13627079D02*
X7341968Y-13608031D01*
X7341968Y-13608031D02*
X7332444Y-13579460D01*
X7332444Y-13579460D02*
X7322920Y-13531841D01*
X7322920Y-13531841D02*
X7322920Y-13493746D01*
X7322920Y-13493746D02*
X7332444Y-13446127D01*
X7332444Y-13446127D02*
X7341968Y-13417555D01*
X7341968Y-13417555D02*
X7351491Y-13398508D01*
X7351491Y-13398508D02*
X7370539Y-13369936D01*
X7370539Y-13369936D02*
X7380063Y-13360412D01*
X7446729Y-13408031D02*
X7456253Y-13398508D01*
X7456253Y-13398508D02*
X7475301Y-13388984D01*
X7475301Y-13388984D02*
X7522920Y-13388984D01*
X7522920Y-13388984D02*
X7541968Y-13398508D01*
X7541968Y-13398508D02*
X7551491Y-13408031D01*
X7551491Y-13408031D02*
X7561015Y-13427079D01*
X7561015Y-13427079D02*
X7561015Y-13446127D01*
X7561015Y-13446127D02*
X7551491Y-13474698D01*
X7551491Y-13474698D02*
X7437206Y-13588984D01*
X7437206Y-13588984D02*
X7561015Y-13588984D01*
X7799110Y-13588984D02*
X7799110Y-13388984D01*
X7884825Y-13588984D02*
X7884825Y-13484222D01*
X7884825Y-13484222D02*
X7875301Y-13465174D01*
X7875301Y-13465174D02*
X7856253Y-13455650D01*
X7856253Y-13455650D02*
X7827682Y-13455650D01*
X7827682Y-13455650D02*
X7808634Y-13465174D01*
X7808634Y-13465174D02*
X7799110Y-13474698D01*
X8008634Y-13588984D02*
X7989587Y-13579460D01*
X7989587Y-13579460D02*
X7980063Y-13569936D01*
X7980063Y-13569936D02*
X7970539Y-13550888D01*
X7970539Y-13550888D02*
X7970539Y-13493746D01*
X7970539Y-13493746D02*
X7980063Y-13474698D01*
X7980063Y-13474698D02*
X7989587Y-13465174D01*
X7989587Y-13465174D02*
X8008634Y-13455650D01*
X8008634Y-13455650D02*
X8037206Y-13455650D01*
X8037206Y-13455650D02*
X8056253Y-13465174D01*
X8056253Y-13465174D02*
X8065777Y-13474698D01*
X8065777Y-13474698D02*
X8075301Y-13493746D01*
X8075301Y-13493746D02*
X8075301Y-13550888D01*
X8075301Y-13550888D02*
X8065777Y-13569936D01*
X8065777Y-13569936D02*
X8056253Y-13579460D01*
X8056253Y-13579460D02*
X8037206Y-13588984D01*
X8037206Y-13588984D02*
X8008634Y-13588984D01*
X8189587Y-13588984D02*
X8170539Y-13579460D01*
X8170539Y-13579460D02*
X8161015Y-13560412D01*
X8161015Y-13560412D02*
X8161015Y-13388984D01*
X8341968Y-13579460D02*
X8322920Y-13588984D01*
X8322920Y-13588984D02*
X8284825Y-13588984D01*
X8284825Y-13588984D02*
X8265777Y-13579460D01*
X8265777Y-13579460D02*
X8256253Y-13560412D01*
X8256253Y-13560412D02*
X8256253Y-13484222D01*
X8256253Y-13484222D02*
X8265777Y-13465174D01*
X8265777Y-13465174D02*
X8284825Y-13455650D01*
X8284825Y-13455650D02*
X8322920Y-13455650D01*
X8322920Y-13455650D02*
X8341968Y-13465174D01*
X8341968Y-13465174D02*
X8351491Y-13484222D01*
X8351491Y-13484222D02*
X8351491Y-13503269D01*
X8351491Y-13503269D02*
X8256253Y-13522317D01*
X8427682Y-13579460D02*
X8446730Y-13588984D01*
X8446730Y-13588984D02*
X8484825Y-13588984D01*
X8484825Y-13588984D02*
X8503873Y-13579460D01*
X8503873Y-13579460D02*
X8513396Y-13560412D01*
X8513396Y-13560412D02*
X8513396Y-13550888D01*
X8513396Y-13550888D02*
X8503873Y-13531841D01*
X8503873Y-13531841D02*
X8484825Y-13522317D01*
X8484825Y-13522317D02*
X8456253Y-13522317D01*
X8456253Y-13522317D02*
X8437206Y-13512793D01*
X8437206Y-13512793D02*
X8427682Y-13493746D01*
X8427682Y-13493746D02*
X8427682Y-13484222D01*
X8427682Y-13484222D02*
X8437206Y-13465174D01*
X8437206Y-13465174D02*
X8456253Y-13455650D01*
X8456253Y-13455650D02*
X8484825Y-13455650D01*
X8484825Y-13455650D02*
X8503873Y-13465174D01*
X8580063Y-13665174D02*
X8589587Y-13655650D01*
X8589587Y-13655650D02*
X8608634Y-13627079D01*
X8608634Y-13627079D02*
X8618158Y-13608031D01*
X8618158Y-13608031D02*
X8627682Y-13579460D01*
X8627682Y-13579460D02*
X8637206Y-13531841D01*
X8637206Y-13531841D02*
X8637206Y-13493746D01*
X8637206Y-13493746D02*
X8627682Y-13446127D01*
X8627682Y-13446127D02*
X8618158Y-13417555D01*
X8618158Y-13417555D02*
X8608634Y-13398508D01*
X8608634Y-13398508D02*
X8589587Y-13369936D01*
X8589587Y-13369936D02*
X8580063Y-13360412D01*
D10*
X3755000Y-13811500D02*
X3805000Y-13761500D01*
X3755000Y-13711500D01*
X3705000Y-13761500D01*
X3755000Y-13811500D01*
D11*
X4170539Y-13852984D02*
X4056253Y-13852984D01*
X4113396Y-13852984D02*
X4113396Y-13652984D01*
X4113396Y-13652984D02*
X4094348Y-13681555D01*
X4094348Y-13681555D02*
X4075301Y-13700603D01*
X4075301Y-13700603D02*
X4056253Y-13710127D01*
X4256253Y-13833936D02*
X4265777Y-13843460D01*
X4265777Y-13843460D02*
X4256253Y-13852984D01*
X4256253Y-13852984D02*
X4246729Y-13843460D01*
X4246729Y-13843460D02*
X4256253Y-13833936D01*
X4256253Y-13833936D02*
X4256253Y-13852984D01*
X4389586Y-13652984D02*
X4408634Y-13652984D01*
X4408634Y-13652984D02*
X4427682Y-13662508D01*
X4427682Y-13662508D02*
X4437205Y-13672031D01*
X4437205Y-13672031D02*
X4446729Y-13691079D01*
X4446729Y-13691079D02*
X4456253Y-13729174D01*
X4456253Y-13729174D02*
X4456253Y-13776793D01*
X4456253Y-13776793D02*
X4446729Y-13814888D01*
X4446729Y-13814888D02*
X4437205Y-13833936D01*
X4437205Y-13833936D02*
X4427682Y-13843460D01*
X4427682Y-13843460D02*
X4408634Y-13852984D01*
X4408634Y-13852984D02*
X4389586Y-13852984D01*
X4389586Y-13852984D02*
X4370539Y-13843460D01*
X4370539Y-13843460D02*
X4361015Y-13833936D01*
X4361015Y-13833936D02*
X4351491Y-13814888D01*
X4351491Y-13814888D02*
X4341967Y-13776793D01*
X4341967Y-13776793D02*
X4341967Y-13729174D01*
X4341967Y-13729174D02*
X4351491Y-13691079D01*
X4351491Y-13691079D02*
X4361015Y-13672031D01*
X4361015Y-13672031D02*
X4370539Y-13662508D01*
X4370539Y-13662508D02*
X4389586Y-13652984D01*
X4580063Y-13652984D02*
X4599110Y-13652984D01*
X4599110Y-13652984D02*
X4618158Y-13662508D01*
X4618158Y-13662508D02*
X4627682Y-13672031D01*
X4627682Y-13672031D02*
X4637205Y-13691079D01*
X4637205Y-13691079D02*
X4646729Y-13729174D01*
X4646729Y-13729174D02*
X4646729Y-13776793D01*
X4646729Y-13776793D02*
X4637205Y-13814888D01*
X4637205Y-13814888D02*
X4627682Y-13833936D01*
X4627682Y-13833936D02*
X4618158Y-13843460D01*
X4618158Y-13843460D02*
X4599110Y-13852984D01*
X4599110Y-13852984D02*
X4580063Y-13852984D01*
X4580063Y-13852984D02*
X4561015Y-13843460D01*
X4561015Y-13843460D02*
X4551491Y-13833936D01*
X4551491Y-13833936D02*
X4541967Y-13814888D01*
X4541967Y-13814888D02*
X4532444Y-13776793D01*
X4532444Y-13776793D02*
X4532444Y-13729174D01*
X4532444Y-13729174D02*
X4541967Y-13691079D01*
X4541967Y-13691079D02*
X4551491Y-13672031D01*
X4551491Y-13672031D02*
X4561015Y-13662508D01*
X4561015Y-13662508D02*
X4580063Y-13652984D01*
X4770539Y-13652984D02*
X4789586Y-13652984D01*
X4789586Y-13652984D02*
X4808634Y-13662508D01*
X4808634Y-13662508D02*
X4818158Y-13672031D01*
X4818158Y-13672031D02*
X4827682Y-13691079D01*
X4827682Y-13691079D02*
X4837205Y-13729174D01*
X4837205Y-13729174D02*
X4837205Y-13776793D01*
X4837205Y-13776793D02*
X4827682Y-13814888D01*
X4827682Y-13814888D02*
X4818158Y-13833936D01*
X4818158Y-13833936D02*
X4808634Y-13843460D01*
X4808634Y-13843460D02*
X4789586Y-13852984D01*
X4789586Y-13852984D02*
X4770539Y-13852984D01*
X4770539Y-13852984D02*
X4751491Y-13843460D01*
X4751491Y-13843460D02*
X4741967Y-13833936D01*
X4741967Y-13833936D02*
X4732444Y-13814888D01*
X4732444Y-13814888D02*
X4722920Y-13776793D01*
X4722920Y-13776793D02*
X4722920Y-13729174D01*
X4722920Y-13729174D02*
X4732444Y-13691079D01*
X4732444Y-13691079D02*
X4741967Y-13672031D01*
X4741967Y-13672031D02*
X4751491Y-13662508D01*
X4751491Y-13662508D02*
X4770539Y-13652984D01*
X4922920Y-13852984D02*
X4922920Y-13719650D01*
X4922920Y-13738698D02*
X4932444Y-13729174D01*
X4932444Y-13729174D02*
X4951491Y-13719650D01*
X4951491Y-13719650D02*
X4980063Y-13719650D01*
X4980063Y-13719650D02*
X4999110Y-13729174D01*
X4999110Y-13729174D02*
X5008634Y-13748222D01*
X5008634Y-13748222D02*
X5008634Y-13852984D01*
X5008634Y-13748222D02*
X5018158Y-13729174D01*
X5018158Y-13729174D02*
X5037205Y-13719650D01*
X5037205Y-13719650D02*
X5065777Y-13719650D01*
X5065777Y-13719650D02*
X5084825Y-13729174D01*
X5084825Y-13729174D02*
X5094348Y-13748222D01*
X5094348Y-13748222D02*
X5094348Y-13852984D01*
X5189586Y-13852984D02*
X5189586Y-13719650D01*
X5189586Y-13738698D02*
X5199110Y-13729174D01*
X5199110Y-13729174D02*
X5218158Y-13719650D01*
X5218158Y-13719650D02*
X5246729Y-13719650D01*
X5246729Y-13719650D02*
X5265777Y-13729174D01*
X5265777Y-13729174D02*
X5275301Y-13748222D01*
X5275301Y-13748222D02*
X5275301Y-13852984D01*
X5275301Y-13748222D02*
X5284825Y-13729174D01*
X5284825Y-13729174D02*
X5303872Y-13719650D01*
X5303872Y-13719650D02*
X5332444Y-13719650D01*
X5332444Y-13719650D02*
X5351491Y-13729174D01*
X5351491Y-13729174D02*
X5361015Y-13748222D01*
X5361015Y-13748222D02*
X5361015Y-13852984D01*
X5751491Y-13643460D02*
X5580063Y-13900603D01*
X6008634Y-13652984D02*
X6027682Y-13652984D01*
X6027682Y-13652984D02*
X6046729Y-13662508D01*
X6046729Y-13662508D02*
X6056253Y-13672031D01*
X6056253Y-13672031D02*
X6065777Y-13691079D01*
X6065777Y-13691079D02*
X6075301Y-13729174D01*
X6075301Y-13729174D02*
X6075301Y-13776793D01*
X6075301Y-13776793D02*
X6065777Y-13814888D01*
X6065777Y-13814888D02*
X6056253Y-13833936D01*
X6056253Y-13833936D02*
X6046729Y-13843460D01*
X6046729Y-13843460D02*
X6027682Y-13852984D01*
X6027682Y-13852984D02*
X6008634Y-13852984D01*
X6008634Y-13852984D02*
X5989586Y-13843460D01*
X5989586Y-13843460D02*
X5980063Y-13833936D01*
X5980063Y-13833936D02*
X5970539Y-13814888D01*
X5970539Y-13814888D02*
X5961015Y-13776793D01*
X5961015Y-13776793D02*
X5961015Y-13729174D01*
X5961015Y-13729174D02*
X5970539Y-13691079D01*
X5970539Y-13691079D02*
X5980063Y-13672031D01*
X5980063Y-13672031D02*
X5989586Y-13662508D01*
X5989586Y-13662508D02*
X6008634Y-13652984D01*
X6161015Y-13833936D02*
X6170539Y-13843460D01*
X6170539Y-13843460D02*
X6161015Y-13852984D01*
X6161015Y-13852984D02*
X6151491Y-13843460D01*
X6151491Y-13843460D02*
X6161015Y-13833936D01*
X6161015Y-13833936D02*
X6161015Y-13852984D01*
X6294348Y-13652984D02*
X6313396Y-13652984D01*
X6313396Y-13652984D02*
X6332444Y-13662508D01*
X6332444Y-13662508D02*
X6341967Y-13672031D01*
X6341967Y-13672031D02*
X6351491Y-13691079D01*
X6351491Y-13691079D02*
X6361015Y-13729174D01*
X6361015Y-13729174D02*
X6361015Y-13776793D01*
X6361015Y-13776793D02*
X6351491Y-13814888D01*
X6351491Y-13814888D02*
X6341967Y-13833936D01*
X6341967Y-13833936D02*
X6332444Y-13843460D01*
X6332444Y-13843460D02*
X6313396Y-13852984D01*
X6313396Y-13852984D02*
X6294348Y-13852984D01*
X6294348Y-13852984D02*
X6275301Y-13843460D01*
X6275301Y-13843460D02*
X6265777Y-13833936D01*
X6265777Y-13833936D02*
X6256253Y-13814888D01*
X6256253Y-13814888D02*
X6246729Y-13776793D01*
X6246729Y-13776793D02*
X6246729Y-13729174D01*
X6246729Y-13729174D02*
X6256253Y-13691079D01*
X6256253Y-13691079D02*
X6265777Y-13672031D01*
X6265777Y-13672031D02*
X6275301Y-13662508D01*
X6275301Y-13662508D02*
X6294348Y-13652984D01*
X6427682Y-13652984D02*
X6551491Y-13652984D01*
X6551491Y-13652984D02*
X6484825Y-13729174D01*
X6484825Y-13729174D02*
X6513396Y-13729174D01*
X6513396Y-13729174D02*
X6532444Y-13738698D01*
X6532444Y-13738698D02*
X6541967Y-13748222D01*
X6541967Y-13748222D02*
X6551491Y-13767269D01*
X6551491Y-13767269D02*
X6551491Y-13814888D01*
X6551491Y-13814888D02*
X6541967Y-13833936D01*
X6541967Y-13833936D02*
X6532444Y-13843460D01*
X6532444Y-13843460D02*
X6513396Y-13852984D01*
X6513396Y-13852984D02*
X6456253Y-13852984D01*
X6456253Y-13852984D02*
X6437206Y-13843460D01*
X6437206Y-13843460D02*
X6427682Y-13833936D01*
X6646729Y-13852984D02*
X6684825Y-13852984D01*
X6684825Y-13852984D02*
X6703872Y-13843460D01*
X6703872Y-13843460D02*
X6713396Y-13833936D01*
X6713396Y-13833936D02*
X6732444Y-13805365D01*
X6732444Y-13805365D02*
X6741967Y-13767269D01*
X6741967Y-13767269D02*
X6741967Y-13691079D01*
X6741967Y-13691079D02*
X6732444Y-13672031D01*
X6732444Y-13672031D02*
X6722920Y-13662508D01*
X6722920Y-13662508D02*
X6703872Y-13652984D01*
X6703872Y-13652984D02*
X6665777Y-13652984D01*
X6665777Y-13652984D02*
X6646729Y-13662508D01*
X6646729Y-13662508D02*
X6637206Y-13672031D01*
X6637206Y-13672031D02*
X6627682Y-13691079D01*
X6627682Y-13691079D02*
X6627682Y-13738698D01*
X6627682Y-13738698D02*
X6637206Y-13757746D01*
X6637206Y-13757746D02*
X6646729Y-13767269D01*
X6646729Y-13767269D02*
X6665777Y-13776793D01*
X6665777Y-13776793D02*
X6703872Y-13776793D01*
X6703872Y-13776793D02*
X6722920Y-13767269D01*
X6722920Y-13767269D02*
X6732444Y-13757746D01*
X6732444Y-13757746D02*
X6741967Y-13738698D01*
X6913396Y-13719650D02*
X6913396Y-13852984D01*
X6865777Y-13643460D02*
X6818158Y-13786317D01*
X6818158Y-13786317D02*
X6941967Y-13786317D01*
X7008634Y-13652984D02*
X7008634Y-13691079D01*
X7084825Y-13652984D02*
X7084825Y-13691079D01*
X7380063Y-13929174D02*
X7370539Y-13919650D01*
X7370539Y-13919650D02*
X7351491Y-13891079D01*
X7351491Y-13891079D02*
X7341968Y-13872031D01*
X7341968Y-13872031D02*
X7332444Y-13843460D01*
X7332444Y-13843460D02*
X7322920Y-13795841D01*
X7322920Y-13795841D02*
X7322920Y-13757746D01*
X7322920Y-13757746D02*
X7332444Y-13710127D01*
X7332444Y-13710127D02*
X7341968Y-13681555D01*
X7341968Y-13681555D02*
X7351491Y-13662508D01*
X7351491Y-13662508D02*
X7370539Y-13633936D01*
X7370539Y-13633936D02*
X7380063Y-13624412D01*
X7541968Y-13652984D02*
X7503872Y-13652984D01*
X7503872Y-13652984D02*
X7484825Y-13662508D01*
X7484825Y-13662508D02*
X7475301Y-13672031D01*
X7475301Y-13672031D02*
X7456253Y-13700603D01*
X7456253Y-13700603D02*
X7446729Y-13738698D01*
X7446729Y-13738698D02*
X7446729Y-13814888D01*
X7446729Y-13814888D02*
X7456253Y-13833936D01*
X7456253Y-13833936D02*
X7465777Y-13843460D01*
X7465777Y-13843460D02*
X7484825Y-13852984D01*
X7484825Y-13852984D02*
X7522920Y-13852984D01*
X7522920Y-13852984D02*
X7541968Y-13843460D01*
X7541968Y-13843460D02*
X7551491Y-13833936D01*
X7551491Y-13833936D02*
X7561015Y-13814888D01*
X7561015Y-13814888D02*
X7561015Y-13767269D01*
X7561015Y-13767269D02*
X7551491Y-13748222D01*
X7551491Y-13748222D02*
X7541968Y-13738698D01*
X7541968Y-13738698D02*
X7522920Y-13729174D01*
X7522920Y-13729174D02*
X7484825Y-13729174D01*
X7484825Y-13729174D02*
X7465777Y-13738698D01*
X7465777Y-13738698D02*
X7456253Y-13748222D01*
X7456253Y-13748222D02*
X7446729Y-13767269D01*
X7799110Y-13852984D02*
X7799110Y-13652984D01*
X7884825Y-13852984D02*
X7884825Y-13748222D01*
X7884825Y-13748222D02*
X7875301Y-13729174D01*
X7875301Y-13729174D02*
X7856253Y-13719650D01*
X7856253Y-13719650D02*
X7827682Y-13719650D01*
X7827682Y-13719650D02*
X7808634Y-13729174D01*
X7808634Y-13729174D02*
X7799110Y-13738698D01*
X8008634Y-13852984D02*
X7989587Y-13843460D01*
X7989587Y-13843460D02*
X7980063Y-13833936D01*
X7980063Y-13833936D02*
X7970539Y-13814888D01*
X7970539Y-13814888D02*
X7970539Y-13757746D01*
X7970539Y-13757746D02*
X7980063Y-13738698D01*
X7980063Y-13738698D02*
X7989587Y-13729174D01*
X7989587Y-13729174D02*
X8008634Y-13719650D01*
X8008634Y-13719650D02*
X8037206Y-13719650D01*
X8037206Y-13719650D02*
X8056253Y-13729174D01*
X8056253Y-13729174D02*
X8065777Y-13738698D01*
X8065777Y-13738698D02*
X8075301Y-13757746D01*
X8075301Y-13757746D02*
X8075301Y-13814888D01*
X8075301Y-13814888D02*
X8065777Y-13833936D01*
X8065777Y-13833936D02*
X8056253Y-13843460D01*
X8056253Y-13843460D02*
X8037206Y-13852984D01*
X8037206Y-13852984D02*
X8008634Y-13852984D01*
X8189587Y-13852984D02*
X8170539Y-13843460D01*
X8170539Y-13843460D02*
X8161015Y-13824412D01*
X8161015Y-13824412D02*
X8161015Y-13652984D01*
X8341968Y-13843460D02*
X8322920Y-13852984D01*
X8322920Y-13852984D02*
X8284825Y-13852984D01*
X8284825Y-13852984D02*
X8265777Y-13843460D01*
X8265777Y-13843460D02*
X8256253Y-13824412D01*
X8256253Y-13824412D02*
X8256253Y-13748222D01*
X8256253Y-13748222D02*
X8265777Y-13729174D01*
X8265777Y-13729174D02*
X8284825Y-13719650D01*
X8284825Y-13719650D02*
X8322920Y-13719650D01*
X8322920Y-13719650D02*
X8341968Y-13729174D01*
X8341968Y-13729174D02*
X8351491Y-13748222D01*
X8351491Y-13748222D02*
X8351491Y-13767269D01*
X8351491Y-13767269D02*
X8256253Y-13786317D01*
X8427682Y-13843460D02*
X8446730Y-13852984D01*
X8446730Y-13852984D02*
X8484825Y-13852984D01*
X8484825Y-13852984D02*
X8503873Y-13843460D01*
X8503873Y-13843460D02*
X8513396Y-13824412D01*
X8513396Y-13824412D02*
X8513396Y-13814888D01*
X8513396Y-13814888D02*
X8503873Y-13795841D01*
X8503873Y-13795841D02*
X8484825Y-13786317D01*
X8484825Y-13786317D02*
X8456253Y-13786317D01*
X8456253Y-13786317D02*
X8437206Y-13776793D01*
X8437206Y-13776793D02*
X8427682Y-13757746D01*
X8427682Y-13757746D02*
X8427682Y-13748222D01*
X8427682Y-13748222D02*
X8437206Y-13729174D01*
X8437206Y-13729174D02*
X8456253Y-13719650D01*
X8456253Y-13719650D02*
X8484825Y-13719650D01*
X8484825Y-13719650D02*
X8503873Y-13729174D01*
X8580063Y-13929174D02*
X8589587Y-13919650D01*
X8589587Y-13919650D02*
X8608634Y-13891079D01*
X8608634Y-13891079D02*
X8618158Y-13872031D01*
X8618158Y-13872031D02*
X8627682Y-13843460D01*
X8627682Y-13843460D02*
X8637206Y-13795841D01*
X8637206Y-13795841D02*
X8637206Y-13757746D01*
X8637206Y-13757746D02*
X8627682Y-13710127D01*
X8627682Y-13710127D02*
X8618158Y-13681555D01*
X8618158Y-13681555D02*
X8608634Y-13662508D01*
X8608634Y-13662508D02*
X8589587Y-13633936D01*
X8589587Y-13633936D02*
X8580063Y-13624412D01*
D12*
X3685000Y-13965500D02*
X3805000Y-14085500D01*
X3805000Y-13965500D02*
X3685000Y-14085500D01*
X3805000Y-14025500D02*
G75*
G02*
X3685000Y-14025500I-60000J0D01*
G01*
X3685000Y-14025500D02*
G75*
G02*
X3805000Y-14025500I60000J0D01*
G01*
D11*
X4170539Y-14116984D02*
X4056253Y-14116984D01*
X4113396Y-14116984D02*
X4113396Y-13916984D01*
X4113396Y-13916984D02*
X4094348Y-13945555D01*
X4094348Y-13945555D02*
X4075301Y-13964603D01*
X4075301Y-13964603D02*
X4056253Y-13974127D01*
X4256253Y-14097936D02*
X4265777Y-14107460D01*
X4265777Y-14107460D02*
X4256253Y-14116984D01*
X4256253Y-14116984D02*
X4246729Y-14107460D01*
X4246729Y-14107460D02*
X4256253Y-14097936D01*
X4256253Y-14097936D02*
X4256253Y-14116984D01*
X4341967Y-13936031D02*
X4351491Y-13926508D01*
X4351491Y-13926508D02*
X4370539Y-13916984D01*
X4370539Y-13916984D02*
X4418158Y-13916984D01*
X4418158Y-13916984D02*
X4437205Y-13926508D01*
X4437205Y-13926508D02*
X4446729Y-13936031D01*
X4446729Y-13936031D02*
X4456253Y-13955079D01*
X4456253Y-13955079D02*
X4456253Y-13974127D01*
X4456253Y-13974127D02*
X4446729Y-14002698D01*
X4446729Y-14002698D02*
X4332444Y-14116984D01*
X4332444Y-14116984D02*
X4456253Y-14116984D01*
X4580063Y-13916984D02*
X4599110Y-13916984D01*
X4599110Y-13916984D02*
X4618158Y-13926508D01*
X4618158Y-13926508D02*
X4627682Y-13936031D01*
X4627682Y-13936031D02*
X4637205Y-13955079D01*
X4637205Y-13955079D02*
X4646729Y-13993174D01*
X4646729Y-13993174D02*
X4646729Y-14040793D01*
X4646729Y-14040793D02*
X4637205Y-14078888D01*
X4637205Y-14078888D02*
X4627682Y-14097936D01*
X4627682Y-14097936D02*
X4618158Y-14107460D01*
X4618158Y-14107460D02*
X4599110Y-14116984D01*
X4599110Y-14116984D02*
X4580063Y-14116984D01*
X4580063Y-14116984D02*
X4561015Y-14107460D01*
X4561015Y-14107460D02*
X4551491Y-14097936D01*
X4551491Y-14097936D02*
X4541967Y-14078888D01*
X4541967Y-14078888D02*
X4532444Y-14040793D01*
X4532444Y-14040793D02*
X4532444Y-13993174D01*
X4532444Y-13993174D02*
X4541967Y-13955079D01*
X4541967Y-13955079D02*
X4551491Y-13936031D01*
X4551491Y-13936031D02*
X4561015Y-13926508D01*
X4561015Y-13926508D02*
X4580063Y-13916984D01*
X4770539Y-13916984D02*
X4789586Y-13916984D01*
X4789586Y-13916984D02*
X4808634Y-13926508D01*
X4808634Y-13926508D02*
X4818158Y-13936031D01*
X4818158Y-13936031D02*
X4827682Y-13955079D01*
X4827682Y-13955079D02*
X4837205Y-13993174D01*
X4837205Y-13993174D02*
X4837205Y-14040793D01*
X4837205Y-14040793D02*
X4827682Y-14078888D01*
X4827682Y-14078888D02*
X4818158Y-14097936D01*
X4818158Y-14097936D02*
X4808634Y-14107460D01*
X4808634Y-14107460D02*
X4789586Y-14116984D01*
X4789586Y-14116984D02*
X4770539Y-14116984D01*
X4770539Y-14116984D02*
X4751491Y-14107460D01*
X4751491Y-14107460D02*
X4741967Y-14097936D01*
X4741967Y-14097936D02*
X4732444Y-14078888D01*
X4732444Y-14078888D02*
X4722920Y-14040793D01*
X4722920Y-14040793D02*
X4722920Y-13993174D01*
X4722920Y-13993174D02*
X4732444Y-13955079D01*
X4732444Y-13955079D02*
X4741967Y-13936031D01*
X4741967Y-13936031D02*
X4751491Y-13926508D01*
X4751491Y-13926508D02*
X4770539Y-13916984D01*
X4922920Y-14116984D02*
X4922920Y-13983650D01*
X4922920Y-14002698D02*
X4932444Y-13993174D01*
X4932444Y-13993174D02*
X4951491Y-13983650D01*
X4951491Y-13983650D02*
X4980063Y-13983650D01*
X4980063Y-13983650D02*
X4999110Y-13993174D01*
X4999110Y-13993174D02*
X5008634Y-14012222D01*
X5008634Y-14012222D02*
X5008634Y-14116984D01*
X5008634Y-14012222D02*
X5018158Y-13993174D01*
X5018158Y-13993174D02*
X5037205Y-13983650D01*
X5037205Y-13983650D02*
X5065777Y-13983650D01*
X5065777Y-13983650D02*
X5084825Y-13993174D01*
X5084825Y-13993174D02*
X5094348Y-14012222D01*
X5094348Y-14012222D02*
X5094348Y-14116984D01*
X5189586Y-14116984D02*
X5189586Y-13983650D01*
X5189586Y-14002698D02*
X5199110Y-13993174D01*
X5199110Y-13993174D02*
X5218158Y-13983650D01*
X5218158Y-13983650D02*
X5246729Y-13983650D01*
X5246729Y-13983650D02*
X5265777Y-13993174D01*
X5265777Y-13993174D02*
X5275301Y-14012222D01*
X5275301Y-14012222D02*
X5275301Y-14116984D01*
X5275301Y-14012222D02*
X5284825Y-13993174D01*
X5284825Y-13993174D02*
X5303872Y-13983650D01*
X5303872Y-13983650D02*
X5332444Y-13983650D01*
X5332444Y-13983650D02*
X5351491Y-13993174D01*
X5351491Y-13993174D02*
X5361015Y-14012222D01*
X5361015Y-14012222D02*
X5361015Y-14116984D01*
X5751491Y-13907460D02*
X5580063Y-14164603D01*
X6008634Y-13916984D02*
X6027682Y-13916984D01*
X6027682Y-13916984D02*
X6046729Y-13926508D01*
X6046729Y-13926508D02*
X6056253Y-13936031D01*
X6056253Y-13936031D02*
X6065777Y-13955079D01*
X6065777Y-13955079D02*
X6075301Y-13993174D01*
X6075301Y-13993174D02*
X6075301Y-14040793D01*
X6075301Y-14040793D02*
X6065777Y-14078888D01*
X6065777Y-14078888D02*
X6056253Y-14097936D01*
X6056253Y-14097936D02*
X6046729Y-14107460D01*
X6046729Y-14107460D02*
X6027682Y-14116984D01*
X6027682Y-14116984D02*
X6008634Y-14116984D01*
X6008634Y-14116984D02*
X5989586Y-14107460D01*
X5989586Y-14107460D02*
X5980063Y-14097936D01*
X5980063Y-14097936D02*
X5970539Y-14078888D01*
X5970539Y-14078888D02*
X5961015Y-14040793D01*
X5961015Y-14040793D02*
X5961015Y-13993174D01*
X5961015Y-13993174D02*
X5970539Y-13955079D01*
X5970539Y-13955079D02*
X5980063Y-13936031D01*
X5980063Y-13936031D02*
X5989586Y-13926508D01*
X5989586Y-13926508D02*
X6008634Y-13916984D01*
X6161015Y-14097936D02*
X6170539Y-14107460D01*
X6170539Y-14107460D02*
X6161015Y-14116984D01*
X6161015Y-14116984D02*
X6151491Y-14107460D01*
X6151491Y-14107460D02*
X6161015Y-14097936D01*
X6161015Y-14097936D02*
X6161015Y-14116984D01*
X6294348Y-13916984D02*
X6313396Y-13916984D01*
X6313396Y-13916984D02*
X6332444Y-13926508D01*
X6332444Y-13926508D02*
X6341967Y-13936031D01*
X6341967Y-13936031D02*
X6351491Y-13955079D01*
X6351491Y-13955079D02*
X6361015Y-13993174D01*
X6361015Y-13993174D02*
X6361015Y-14040793D01*
X6361015Y-14040793D02*
X6351491Y-14078888D01*
X6351491Y-14078888D02*
X6341967Y-14097936D01*
X6341967Y-14097936D02*
X6332444Y-14107460D01*
X6332444Y-14107460D02*
X6313396Y-14116984D01*
X6313396Y-14116984D02*
X6294348Y-14116984D01*
X6294348Y-14116984D02*
X6275301Y-14107460D01*
X6275301Y-14107460D02*
X6265777Y-14097936D01*
X6265777Y-14097936D02*
X6256253Y-14078888D01*
X6256253Y-14078888D02*
X6246729Y-14040793D01*
X6246729Y-14040793D02*
X6246729Y-13993174D01*
X6246729Y-13993174D02*
X6256253Y-13955079D01*
X6256253Y-13955079D02*
X6265777Y-13936031D01*
X6265777Y-13936031D02*
X6275301Y-13926508D01*
X6275301Y-13926508D02*
X6294348Y-13916984D01*
X6532444Y-13983650D02*
X6532444Y-14116984D01*
X6484825Y-13907460D02*
X6437206Y-14050317D01*
X6437206Y-14050317D02*
X6561015Y-14050317D01*
X6618158Y-13916984D02*
X6751491Y-13916984D01*
X6751491Y-13916984D02*
X6665777Y-14116984D01*
X6818158Y-13936031D02*
X6827682Y-13926508D01*
X6827682Y-13926508D02*
X6846729Y-13916984D01*
X6846729Y-13916984D02*
X6894348Y-13916984D01*
X6894348Y-13916984D02*
X6913396Y-13926508D01*
X6913396Y-13926508D02*
X6922920Y-13936031D01*
X6922920Y-13936031D02*
X6932444Y-13955079D01*
X6932444Y-13955079D02*
X6932444Y-13974127D01*
X6932444Y-13974127D02*
X6922920Y-14002698D01*
X6922920Y-14002698D02*
X6808634Y-14116984D01*
X6808634Y-14116984D02*
X6932444Y-14116984D01*
X7008634Y-13916984D02*
X7008634Y-13955079D01*
X7084825Y-13916984D02*
X7084825Y-13955079D01*
X7380063Y-14193174D02*
X7370539Y-14183650D01*
X7370539Y-14183650D02*
X7351491Y-14155079D01*
X7351491Y-14155079D02*
X7341968Y-14136031D01*
X7341968Y-14136031D02*
X7332444Y-14107460D01*
X7332444Y-14107460D02*
X7322920Y-14059841D01*
X7322920Y-14059841D02*
X7322920Y-14021746D01*
X7322920Y-14021746D02*
X7332444Y-13974127D01*
X7332444Y-13974127D02*
X7341968Y-13945555D01*
X7341968Y-13945555D02*
X7351491Y-13926508D01*
X7351491Y-13926508D02*
X7370539Y-13897936D01*
X7370539Y-13897936D02*
X7380063Y-13888412D01*
X7561015Y-14116984D02*
X7446729Y-14116984D01*
X7503872Y-14116984D02*
X7503872Y-13916984D01*
X7503872Y-13916984D02*
X7484825Y-13945555D01*
X7484825Y-13945555D02*
X7465777Y-13964603D01*
X7465777Y-13964603D02*
X7446729Y-13974127D01*
X7637206Y-13936031D02*
X7646729Y-13926508D01*
X7646729Y-13926508D02*
X7665777Y-13916984D01*
X7665777Y-13916984D02*
X7713396Y-13916984D01*
X7713396Y-13916984D02*
X7732444Y-13926508D01*
X7732444Y-13926508D02*
X7741968Y-13936031D01*
X7741968Y-13936031D02*
X7751491Y-13955079D01*
X7751491Y-13955079D02*
X7751491Y-13974127D01*
X7751491Y-13974127D02*
X7741968Y-14002698D01*
X7741968Y-14002698D02*
X7627682Y-14116984D01*
X7627682Y-14116984D02*
X7751491Y-14116984D01*
X7989587Y-14116984D02*
X7989587Y-13916984D01*
X8075301Y-14116984D02*
X8075301Y-14012222D01*
X8075301Y-14012222D02*
X8065777Y-13993174D01*
X8065777Y-13993174D02*
X8046730Y-13983650D01*
X8046730Y-13983650D02*
X8018158Y-13983650D01*
X8018158Y-13983650D02*
X7999110Y-13993174D01*
X7999110Y-13993174D02*
X7989587Y-14002698D01*
X8199110Y-14116984D02*
X8180063Y-14107460D01*
X8180063Y-14107460D02*
X8170539Y-14097936D01*
X8170539Y-14097936D02*
X8161015Y-14078888D01*
X8161015Y-14078888D02*
X8161015Y-14021746D01*
X8161015Y-14021746D02*
X8170539Y-14002698D01*
X8170539Y-14002698D02*
X8180063Y-13993174D01*
X8180063Y-13993174D02*
X8199110Y-13983650D01*
X8199110Y-13983650D02*
X8227682Y-13983650D01*
X8227682Y-13983650D02*
X8246730Y-13993174D01*
X8246730Y-13993174D02*
X8256253Y-14002698D01*
X8256253Y-14002698D02*
X8265777Y-14021746D01*
X8265777Y-14021746D02*
X8265777Y-14078888D01*
X8265777Y-14078888D02*
X8256253Y-14097936D01*
X8256253Y-14097936D02*
X8246730Y-14107460D01*
X8246730Y-14107460D02*
X8227682Y-14116984D01*
X8227682Y-14116984D02*
X8199110Y-14116984D01*
X8380063Y-14116984D02*
X8361015Y-14107460D01*
X8361015Y-14107460D02*
X8351491Y-14088412D01*
X8351491Y-14088412D02*
X8351491Y-13916984D01*
X8532444Y-14107460D02*
X8513396Y-14116984D01*
X8513396Y-14116984D02*
X8475301Y-14116984D01*
X8475301Y-14116984D02*
X8456253Y-14107460D01*
X8456253Y-14107460D02*
X8446730Y-14088412D01*
X8446730Y-14088412D02*
X8446730Y-14012222D01*
X8446730Y-14012222D02*
X8456253Y-13993174D01*
X8456253Y-13993174D02*
X8475301Y-13983650D01*
X8475301Y-13983650D02*
X8513396Y-13983650D01*
X8513396Y-13983650D02*
X8532444Y-13993174D01*
X8532444Y-13993174D02*
X8541968Y-14012222D01*
X8541968Y-14012222D02*
X8541968Y-14031269D01*
X8541968Y-14031269D02*
X8446730Y-14050317D01*
X8618158Y-14107460D02*
X8637206Y-14116984D01*
X8637206Y-14116984D02*
X8675301Y-14116984D01*
X8675301Y-14116984D02*
X8694349Y-14107460D01*
X8694349Y-14107460D02*
X8703873Y-14088412D01*
X8703873Y-14088412D02*
X8703873Y-14078888D01*
X8703873Y-14078888D02*
X8694349Y-14059841D01*
X8694349Y-14059841D02*
X8675301Y-14050317D01*
X8675301Y-14050317D02*
X8646730Y-14050317D01*
X8646730Y-14050317D02*
X8627682Y-14040793D01*
X8627682Y-14040793D02*
X8618158Y-14021746D01*
X8618158Y-14021746D02*
X8618158Y-14012222D01*
X8618158Y-14012222D02*
X8627682Y-13993174D01*
X8627682Y-13993174D02*
X8646730Y-13983650D01*
X8646730Y-13983650D02*
X8675301Y-13983650D01*
X8675301Y-13983650D02*
X8694349Y-13993174D01*
X8770539Y-14193174D02*
X8780063Y-14183650D01*
X8780063Y-14183650D02*
X8799111Y-14155079D01*
X8799111Y-14155079D02*
X8808634Y-14136031D01*
X8808634Y-14136031D02*
X8818158Y-14107460D01*
X8818158Y-14107460D02*
X8827682Y-14059841D01*
X8827682Y-14059841D02*
X8827682Y-14021746D01*
X8827682Y-14021746D02*
X8818158Y-13974127D01*
X8818158Y-13974127D02*
X8808634Y-13945555D01*
X8808634Y-13945555D02*
X8799111Y-13926508D01*
X8799111Y-13926508D02*
X8780063Y-13897936D01*
X8780063Y-13897936D02*
X8770539Y-13888412D01*
D13*
X3645000Y-14209500D02*
X3805000Y-14369500D01*
X3805000Y-14209500D02*
X3645000Y-14369500D01*
X3725000Y-14209500D02*
X3725000Y-14369500D01*
X3645000Y-14289500D02*
X3805000Y-14289500D01*
D11*
X4170539Y-14380984D02*
X4056253Y-14380984D01*
X4113396Y-14380984D02*
X4113396Y-14180984D01*
X4113396Y-14180984D02*
X4094348Y-14209555D01*
X4094348Y-14209555D02*
X4075301Y-14228603D01*
X4075301Y-14228603D02*
X4056253Y-14238127D01*
X4256253Y-14361936D02*
X4265777Y-14371460D01*
X4265777Y-14371460D02*
X4256253Y-14380984D01*
X4256253Y-14380984D02*
X4246729Y-14371460D01*
X4246729Y-14371460D02*
X4256253Y-14361936D01*
X4256253Y-14361936D02*
X4256253Y-14380984D01*
X4437205Y-14180984D02*
X4399110Y-14180984D01*
X4399110Y-14180984D02*
X4380063Y-14190508D01*
X4380063Y-14190508D02*
X4370539Y-14200031D01*
X4370539Y-14200031D02*
X4351491Y-14228603D01*
X4351491Y-14228603D02*
X4341967Y-14266698D01*
X4341967Y-14266698D02*
X4341967Y-14342888D01*
X4341967Y-14342888D02*
X4351491Y-14361936D01*
X4351491Y-14361936D02*
X4361015Y-14371460D01*
X4361015Y-14371460D02*
X4380063Y-14380984D01*
X4380063Y-14380984D02*
X4418158Y-14380984D01*
X4418158Y-14380984D02*
X4437205Y-14371460D01*
X4437205Y-14371460D02*
X4446729Y-14361936D01*
X4446729Y-14361936D02*
X4456253Y-14342888D01*
X4456253Y-14342888D02*
X4456253Y-14295269D01*
X4456253Y-14295269D02*
X4446729Y-14276222D01*
X4446729Y-14276222D02*
X4437205Y-14266698D01*
X4437205Y-14266698D02*
X4418158Y-14257174D01*
X4418158Y-14257174D02*
X4380063Y-14257174D01*
X4380063Y-14257174D02*
X4361015Y-14266698D01*
X4361015Y-14266698D02*
X4351491Y-14276222D01*
X4351491Y-14276222D02*
X4341967Y-14295269D01*
X4580063Y-14180984D02*
X4599110Y-14180984D01*
X4599110Y-14180984D02*
X4618158Y-14190508D01*
X4618158Y-14190508D02*
X4627682Y-14200031D01*
X4627682Y-14200031D02*
X4637205Y-14219079D01*
X4637205Y-14219079D02*
X4646729Y-14257174D01*
X4646729Y-14257174D02*
X4646729Y-14304793D01*
X4646729Y-14304793D02*
X4637205Y-14342888D01*
X4637205Y-14342888D02*
X4627682Y-14361936D01*
X4627682Y-14361936D02*
X4618158Y-14371460D01*
X4618158Y-14371460D02*
X4599110Y-14380984D01*
X4599110Y-14380984D02*
X4580063Y-14380984D01*
X4580063Y-14380984D02*
X4561015Y-14371460D01*
X4561015Y-14371460D02*
X4551491Y-14361936D01*
X4551491Y-14361936D02*
X4541967Y-14342888D01*
X4541967Y-14342888D02*
X4532444Y-14304793D01*
X4532444Y-14304793D02*
X4532444Y-14257174D01*
X4532444Y-14257174D02*
X4541967Y-14219079D01*
X4541967Y-14219079D02*
X4551491Y-14200031D01*
X4551491Y-14200031D02*
X4561015Y-14190508D01*
X4561015Y-14190508D02*
X4580063Y-14180984D01*
X4770539Y-14180984D02*
X4789586Y-14180984D01*
X4789586Y-14180984D02*
X4808634Y-14190508D01*
X4808634Y-14190508D02*
X4818158Y-14200031D01*
X4818158Y-14200031D02*
X4827682Y-14219079D01*
X4827682Y-14219079D02*
X4837205Y-14257174D01*
X4837205Y-14257174D02*
X4837205Y-14304793D01*
X4837205Y-14304793D02*
X4827682Y-14342888D01*
X4827682Y-14342888D02*
X4818158Y-14361936D01*
X4818158Y-14361936D02*
X4808634Y-14371460D01*
X4808634Y-14371460D02*
X4789586Y-14380984D01*
X4789586Y-14380984D02*
X4770539Y-14380984D01*
X4770539Y-14380984D02*
X4751491Y-14371460D01*
X4751491Y-14371460D02*
X4741967Y-14361936D01*
X4741967Y-14361936D02*
X4732444Y-14342888D01*
X4732444Y-14342888D02*
X4722920Y-14304793D01*
X4722920Y-14304793D02*
X4722920Y-14257174D01*
X4722920Y-14257174D02*
X4732444Y-14219079D01*
X4732444Y-14219079D02*
X4741967Y-14200031D01*
X4741967Y-14200031D02*
X4751491Y-14190508D01*
X4751491Y-14190508D02*
X4770539Y-14180984D01*
X4922920Y-14380984D02*
X4922920Y-14247650D01*
X4922920Y-14266698D02*
X4932444Y-14257174D01*
X4932444Y-14257174D02*
X4951491Y-14247650D01*
X4951491Y-14247650D02*
X4980063Y-14247650D01*
X4980063Y-14247650D02*
X4999110Y-14257174D01*
X4999110Y-14257174D02*
X5008634Y-14276222D01*
X5008634Y-14276222D02*
X5008634Y-14380984D01*
X5008634Y-14276222D02*
X5018158Y-14257174D01*
X5018158Y-14257174D02*
X5037205Y-14247650D01*
X5037205Y-14247650D02*
X5065777Y-14247650D01*
X5065777Y-14247650D02*
X5084825Y-14257174D01*
X5084825Y-14257174D02*
X5094348Y-14276222D01*
X5094348Y-14276222D02*
X5094348Y-14380984D01*
X5189586Y-14380984D02*
X5189586Y-14247650D01*
X5189586Y-14266698D02*
X5199110Y-14257174D01*
X5199110Y-14257174D02*
X5218158Y-14247650D01*
X5218158Y-14247650D02*
X5246729Y-14247650D01*
X5246729Y-14247650D02*
X5265777Y-14257174D01*
X5265777Y-14257174D02*
X5275301Y-14276222D01*
X5275301Y-14276222D02*
X5275301Y-14380984D01*
X5275301Y-14276222D02*
X5284825Y-14257174D01*
X5284825Y-14257174D02*
X5303872Y-14247650D01*
X5303872Y-14247650D02*
X5332444Y-14247650D01*
X5332444Y-14247650D02*
X5351491Y-14257174D01*
X5351491Y-14257174D02*
X5361015Y-14276222D01*
X5361015Y-14276222D02*
X5361015Y-14380984D01*
X5751491Y-14171460D02*
X5580063Y-14428603D01*
X6008634Y-14180984D02*
X6027682Y-14180984D01*
X6027682Y-14180984D02*
X6046729Y-14190508D01*
X6046729Y-14190508D02*
X6056253Y-14200031D01*
X6056253Y-14200031D02*
X6065777Y-14219079D01*
X6065777Y-14219079D02*
X6075301Y-14257174D01*
X6075301Y-14257174D02*
X6075301Y-14304793D01*
X6075301Y-14304793D02*
X6065777Y-14342888D01*
X6065777Y-14342888D02*
X6056253Y-14361936D01*
X6056253Y-14361936D02*
X6046729Y-14371460D01*
X6046729Y-14371460D02*
X6027682Y-14380984D01*
X6027682Y-14380984D02*
X6008634Y-14380984D01*
X6008634Y-14380984D02*
X5989586Y-14371460D01*
X5989586Y-14371460D02*
X5980063Y-14361936D01*
X5980063Y-14361936D02*
X5970539Y-14342888D01*
X5970539Y-14342888D02*
X5961015Y-14304793D01*
X5961015Y-14304793D02*
X5961015Y-14257174D01*
X5961015Y-14257174D02*
X5970539Y-14219079D01*
X5970539Y-14219079D02*
X5980063Y-14200031D01*
X5980063Y-14200031D02*
X5989586Y-14190508D01*
X5989586Y-14190508D02*
X6008634Y-14180984D01*
X6161015Y-14361936D02*
X6170539Y-14371460D01*
X6170539Y-14371460D02*
X6161015Y-14380984D01*
X6161015Y-14380984D02*
X6151491Y-14371460D01*
X6151491Y-14371460D02*
X6161015Y-14361936D01*
X6161015Y-14361936D02*
X6161015Y-14380984D01*
X6294348Y-14180984D02*
X6313396Y-14180984D01*
X6313396Y-14180984D02*
X6332444Y-14190508D01*
X6332444Y-14190508D02*
X6341967Y-14200031D01*
X6341967Y-14200031D02*
X6351491Y-14219079D01*
X6351491Y-14219079D02*
X6361015Y-14257174D01*
X6361015Y-14257174D02*
X6361015Y-14304793D01*
X6361015Y-14304793D02*
X6351491Y-14342888D01*
X6351491Y-14342888D02*
X6341967Y-14361936D01*
X6341967Y-14361936D02*
X6332444Y-14371460D01*
X6332444Y-14371460D02*
X6313396Y-14380984D01*
X6313396Y-14380984D02*
X6294348Y-14380984D01*
X6294348Y-14380984D02*
X6275301Y-14371460D01*
X6275301Y-14371460D02*
X6265777Y-14361936D01*
X6265777Y-14361936D02*
X6256253Y-14342888D01*
X6256253Y-14342888D02*
X6246729Y-14304793D01*
X6246729Y-14304793D02*
X6246729Y-14257174D01*
X6246729Y-14257174D02*
X6256253Y-14219079D01*
X6256253Y-14219079D02*
X6265777Y-14200031D01*
X6265777Y-14200031D02*
X6275301Y-14190508D01*
X6275301Y-14190508D02*
X6294348Y-14180984D01*
X6532444Y-14180984D02*
X6494348Y-14180984D01*
X6494348Y-14180984D02*
X6475301Y-14190508D01*
X6475301Y-14190508D02*
X6465777Y-14200031D01*
X6465777Y-14200031D02*
X6446729Y-14228603D01*
X6446729Y-14228603D02*
X6437206Y-14266698D01*
X6437206Y-14266698D02*
X6437206Y-14342888D01*
X6437206Y-14342888D02*
X6446729Y-14361936D01*
X6446729Y-14361936D02*
X6456253Y-14371460D01*
X6456253Y-14371460D02*
X6475301Y-14380984D01*
X6475301Y-14380984D02*
X6513396Y-14380984D01*
X6513396Y-14380984D02*
X6532444Y-14371460D01*
X6532444Y-14371460D02*
X6541967Y-14361936D01*
X6541967Y-14361936D02*
X6551491Y-14342888D01*
X6551491Y-14342888D02*
X6551491Y-14295269D01*
X6551491Y-14295269D02*
X6541967Y-14276222D01*
X6541967Y-14276222D02*
X6532444Y-14266698D01*
X6532444Y-14266698D02*
X6513396Y-14257174D01*
X6513396Y-14257174D02*
X6475301Y-14257174D01*
X6475301Y-14257174D02*
X6456253Y-14266698D01*
X6456253Y-14266698D02*
X6446729Y-14276222D01*
X6446729Y-14276222D02*
X6437206Y-14295269D01*
X6618158Y-14180984D02*
X6741967Y-14180984D01*
X6741967Y-14180984D02*
X6675301Y-14257174D01*
X6675301Y-14257174D02*
X6703872Y-14257174D01*
X6703872Y-14257174D02*
X6722920Y-14266698D01*
X6722920Y-14266698D02*
X6732444Y-14276222D01*
X6732444Y-14276222D02*
X6741967Y-14295269D01*
X6741967Y-14295269D02*
X6741967Y-14342888D01*
X6741967Y-14342888D02*
X6732444Y-14361936D01*
X6732444Y-14361936D02*
X6722920Y-14371460D01*
X6722920Y-14371460D02*
X6703872Y-14380984D01*
X6703872Y-14380984D02*
X6646729Y-14380984D01*
X6646729Y-14380984D02*
X6627682Y-14371460D01*
X6627682Y-14371460D02*
X6618158Y-14361936D01*
X6865777Y-14180984D02*
X6884825Y-14180984D01*
X6884825Y-14180984D02*
X6903872Y-14190508D01*
X6903872Y-14190508D02*
X6913396Y-14200031D01*
X6913396Y-14200031D02*
X6922920Y-14219079D01*
X6922920Y-14219079D02*
X6932444Y-14257174D01*
X6932444Y-14257174D02*
X6932444Y-14304793D01*
X6932444Y-14304793D02*
X6922920Y-14342888D01*
X6922920Y-14342888D02*
X6913396Y-14361936D01*
X6913396Y-14361936D02*
X6903872Y-14371460D01*
X6903872Y-14371460D02*
X6884825Y-14380984D01*
X6884825Y-14380984D02*
X6865777Y-14380984D01*
X6865777Y-14380984D02*
X6846729Y-14371460D01*
X6846729Y-14371460D02*
X6837206Y-14361936D01*
X6837206Y-14361936D02*
X6827682Y-14342888D01*
X6827682Y-14342888D02*
X6818158Y-14304793D01*
X6818158Y-14304793D02*
X6818158Y-14257174D01*
X6818158Y-14257174D02*
X6827682Y-14219079D01*
X6827682Y-14219079D02*
X6837206Y-14200031D01*
X6837206Y-14200031D02*
X6846729Y-14190508D01*
X6846729Y-14190508D02*
X6865777Y-14180984D01*
X7008634Y-14180984D02*
X7008634Y-14219079D01*
X7084825Y-14180984D02*
X7084825Y-14219079D01*
X7380063Y-14457174D02*
X7370539Y-14447650D01*
X7370539Y-14447650D02*
X7351491Y-14419079D01*
X7351491Y-14419079D02*
X7341968Y-14400031D01*
X7341968Y-14400031D02*
X7332444Y-14371460D01*
X7332444Y-14371460D02*
X7322920Y-14323841D01*
X7322920Y-14323841D02*
X7322920Y-14285746D01*
X7322920Y-14285746D02*
X7332444Y-14238127D01*
X7332444Y-14238127D02*
X7341968Y-14209555D01*
X7341968Y-14209555D02*
X7351491Y-14190508D01*
X7351491Y-14190508D02*
X7370539Y-14161936D01*
X7370539Y-14161936D02*
X7380063Y-14152412D01*
X7484825Y-14266698D02*
X7465777Y-14257174D01*
X7465777Y-14257174D02*
X7456253Y-14247650D01*
X7456253Y-14247650D02*
X7446729Y-14228603D01*
X7446729Y-14228603D02*
X7446729Y-14219079D01*
X7446729Y-14219079D02*
X7456253Y-14200031D01*
X7456253Y-14200031D02*
X7465777Y-14190508D01*
X7465777Y-14190508D02*
X7484825Y-14180984D01*
X7484825Y-14180984D02*
X7522920Y-14180984D01*
X7522920Y-14180984D02*
X7541968Y-14190508D01*
X7541968Y-14190508D02*
X7551491Y-14200031D01*
X7551491Y-14200031D02*
X7561015Y-14219079D01*
X7561015Y-14219079D02*
X7561015Y-14228603D01*
X7561015Y-14228603D02*
X7551491Y-14247650D01*
X7551491Y-14247650D02*
X7541968Y-14257174D01*
X7541968Y-14257174D02*
X7522920Y-14266698D01*
X7522920Y-14266698D02*
X7484825Y-14266698D01*
X7484825Y-14266698D02*
X7465777Y-14276222D01*
X7465777Y-14276222D02*
X7456253Y-14285746D01*
X7456253Y-14285746D02*
X7446729Y-14304793D01*
X7446729Y-14304793D02*
X7446729Y-14342888D01*
X7446729Y-14342888D02*
X7456253Y-14361936D01*
X7456253Y-14361936D02*
X7465777Y-14371460D01*
X7465777Y-14371460D02*
X7484825Y-14380984D01*
X7484825Y-14380984D02*
X7522920Y-14380984D01*
X7522920Y-14380984D02*
X7541968Y-14371460D01*
X7541968Y-14371460D02*
X7551491Y-14361936D01*
X7551491Y-14361936D02*
X7561015Y-14342888D01*
X7561015Y-14342888D02*
X7561015Y-14304793D01*
X7561015Y-14304793D02*
X7551491Y-14285746D01*
X7551491Y-14285746D02*
X7541968Y-14276222D01*
X7541968Y-14276222D02*
X7522920Y-14266698D01*
X7799110Y-14380984D02*
X7799110Y-14180984D01*
X7884825Y-14380984D02*
X7884825Y-14276222D01*
X7884825Y-14276222D02*
X7875301Y-14257174D01*
X7875301Y-14257174D02*
X7856253Y-14247650D01*
X7856253Y-14247650D02*
X7827682Y-14247650D01*
X7827682Y-14247650D02*
X7808634Y-14257174D01*
X7808634Y-14257174D02*
X7799110Y-14266698D01*
X8008634Y-14380984D02*
X7989587Y-14371460D01*
X7989587Y-14371460D02*
X7980063Y-14361936D01*
X7980063Y-14361936D02*
X7970539Y-14342888D01*
X7970539Y-14342888D02*
X7970539Y-14285746D01*
X7970539Y-14285746D02*
X7980063Y-14266698D01*
X7980063Y-14266698D02*
X7989587Y-14257174D01*
X7989587Y-14257174D02*
X8008634Y-14247650D01*
X8008634Y-14247650D02*
X8037206Y-14247650D01*
X8037206Y-14247650D02*
X8056253Y-14257174D01*
X8056253Y-14257174D02*
X8065777Y-14266698D01*
X8065777Y-14266698D02*
X8075301Y-14285746D01*
X8075301Y-14285746D02*
X8075301Y-14342888D01*
X8075301Y-14342888D02*
X8065777Y-14361936D01*
X8065777Y-14361936D02*
X8056253Y-14371460D01*
X8056253Y-14371460D02*
X8037206Y-14380984D01*
X8037206Y-14380984D02*
X8008634Y-14380984D01*
X8189587Y-14380984D02*
X8170539Y-14371460D01*
X8170539Y-14371460D02*
X8161015Y-14352412D01*
X8161015Y-14352412D02*
X8161015Y-14180984D01*
X8341968Y-14371460D02*
X8322920Y-14380984D01*
X8322920Y-14380984D02*
X8284825Y-14380984D01*
X8284825Y-14380984D02*
X8265777Y-14371460D01*
X8265777Y-14371460D02*
X8256253Y-14352412D01*
X8256253Y-14352412D02*
X8256253Y-14276222D01*
X8256253Y-14276222D02*
X8265777Y-14257174D01*
X8265777Y-14257174D02*
X8284825Y-14247650D01*
X8284825Y-14247650D02*
X8322920Y-14247650D01*
X8322920Y-14247650D02*
X8341968Y-14257174D01*
X8341968Y-14257174D02*
X8351491Y-14276222D01*
X8351491Y-14276222D02*
X8351491Y-14295269D01*
X8351491Y-14295269D02*
X8256253Y-14314317D01*
X8427682Y-14371460D02*
X8446730Y-14380984D01*
X8446730Y-14380984D02*
X8484825Y-14380984D01*
X8484825Y-14380984D02*
X8503873Y-14371460D01*
X8503873Y-14371460D02*
X8513396Y-14352412D01*
X8513396Y-14352412D02*
X8513396Y-14342888D01*
X8513396Y-14342888D02*
X8503873Y-14323841D01*
X8503873Y-14323841D02*
X8484825Y-14314317D01*
X8484825Y-14314317D02*
X8456253Y-14314317D01*
X8456253Y-14314317D02*
X8437206Y-14304793D01*
X8437206Y-14304793D02*
X8427682Y-14285746D01*
X8427682Y-14285746D02*
X8427682Y-14276222D01*
X8427682Y-14276222D02*
X8437206Y-14257174D01*
X8437206Y-14257174D02*
X8456253Y-14247650D01*
X8456253Y-14247650D02*
X8484825Y-14247650D01*
X8484825Y-14247650D02*
X8503873Y-14257174D01*
X8580063Y-14457174D02*
X8589587Y-14447650D01*
X8589587Y-14447650D02*
X8608634Y-14419079D01*
X8608634Y-14419079D02*
X8618158Y-14400031D01*
X8618158Y-14400031D02*
X8627682Y-14371460D01*
X8627682Y-14371460D02*
X8637206Y-14323841D01*
X8637206Y-14323841D02*
X8637206Y-14285746D01*
X8637206Y-14285746D02*
X8627682Y-14238127D01*
X8627682Y-14238127D02*
X8618158Y-14209555D01*
X8618158Y-14209555D02*
X8608634Y-14190508D01*
X8608634Y-14190508D02*
X8589587Y-14161936D01*
X8589587Y-14161936D02*
X8580063Y-14152412D01*
M02*
