%TF.GenerationSoftware,KiCad,Pcbnew,8.0.3*%
%TF.CreationDate,2024-06-22T14:51:58+02:00*%
%TF.ProjectId,dmx-box-rounded,646d782d-626f-4782-9d72-6f756e646564,rev?*%
%TF.SameCoordinates,Original*%
%TF.FileFunction,Legend,Bot*%
%TF.FilePolarity,Positive*%
%FSLAX46Y46*%
G04 Gerber Fmt 4.6, Leading zero omitted, Abs format (unit mm)*
G04 Created by KiCad (PCBNEW 8.0.3) date 2024-06-22 14:51:58*
%MOMM*%
%LPD*%
G01*
G04 APERTURE LIST*
%ADD10C,2.900000*%
%ADD11C,3.400000*%
%ADD12C,1.600000*%
%ADD13O,1.700000X1.700000*%
%ADD14R,1.700000X1.700000*%
%ADD15C,2.500000*%
%ADD16O,1.200000X1.900000*%
%ADD17C,1.450000*%
G04 APERTURE END LIST*
%LPC*%
D10*
%TO.C,J3*%
X83670000Y-83675000D03*
X83670000Y-88755000D03*
D11*
X79860000Y-88755000D03*
X87480000Y-88755000D03*
D12*
X79860000Y-74785000D03*
X87480000Y-79865000D03*
%TD*%
D10*
%TO.C,J2*%
X105900000Y-78100000D03*
D11*
X117960000Y-88270000D03*
D10*
X121130000Y-84455000D03*
X114150000Y-88270000D03*
X114150000Y-84455000D03*
D11*
X110340000Y-88270000D03*
D12*
X110340000Y-74930000D03*
X117960000Y-80010000D03*
%TD*%
D13*
%TO.C,J6*%
X161290000Y-99695000D03*
X163830000Y-99695000D03*
X166370000Y-99695000D03*
X168910000Y-99695000D03*
X171450000Y-99695000D03*
D14*
X173990000Y-99695000D03*
%TD*%
D10*
%TO.C,J4*%
X53190000Y-83675000D03*
D11*
X46210000Y-88755000D03*
D10*
X49380000Y-83675000D03*
X53190000Y-88755000D03*
X57000000Y-83675000D03*
D11*
X60170000Y-88755000D03*
D12*
X49380000Y-74785000D03*
X57000000Y-79865000D03*
%TD*%
D15*
%TO.C,H4*%
X171450000Y-115570000D03*
%TD*%
D16*
%TO.C,J5*%
X163505000Y-70567000D03*
D17*
X164505000Y-73267000D03*
X169505000Y-73267000D03*
D16*
X170505000Y-70567000D03*
%TD*%
D15*
%TO.C,H2*%
X171450000Y-81280000D03*
%TD*%
%TO.C,H1*%
X43180000Y-93980000D03*
%TD*%
%TO.C,H3*%
X43180000Y-115570000D03*
%TD*%
D10*
%TO.C,J1*%
X136380000Y-77955000D03*
X144630000Y-88125000D03*
D11*
X148440000Y-84310000D03*
X140820000Y-83675000D03*
D12*
X140820000Y-74785000D03*
X148440000Y-79865000D03*
%TD*%
%LPD*%
M02*
