M48
METRIC
T1C0.600
T2C0.800
T3C0.850
T4C1.000
T5C1.200
T6C1.600
T7C1.600
T8C2.500
%
G90
G05
T2
X63.5Y-106.36
X64.77Y-81.915
X67.31Y-92.71
X68.897Y-74.612
X69.85Y-94.615
X75.565Y-97.79
X75.565Y-103.505
X75.882Y-108.902
X78.74Y-103.505
X80.645Y-116.205
X83.185Y-108.585
X85.09Y-106.68
X85.725Y-111.125
X88.265Y-116.205
X90.805Y-114.935
X92.71Y-114.935
X94.615Y-114.935
X96.52Y-114.935
X98.425Y-81.28
X98.425Y-114.935
X100.33Y-114.935
X102.235Y-114.935
X104.14Y-114.935
X105.41Y-90.805
X111.76Y-102.235
X113.03Y-97.79
X114.935Y-100.965
X116.205Y-111.125
X119.38Y-93.98
X121.285Y-103.505
X121.92Y-107.95
X122.456Y-99.315
X125.095Y-110.49
X125.909Y-91.44
X128.449Y-93.345
X130.989Y-99.315
X132.398Y-108.267
X133.529Y-100.33
X133.985Y-86.995
X137.16Y-110.49
X137.16Y-114.935
X137.795Y-102.235
X139.517Y-108.132
X142.24Y-113.03
X142.875Y-106.68
X149.225Y-103.505
X153.67Y-78.105
X153.67Y-90.805
X154.94Y-102.235
X155.575Y-86.995
X156.21Y-106.045
X156.845Y-80.01
X157.48Y-84.455
X157.48Y-93.98
X157.48Y-115.57
X158.75Y-109.22
X159.385Y-73.025
X160.655Y-90.805
X161.29Y-80.645
X162.56Y-113.03
X168.035Y-84.455
X168.91Y-79.375
X173.99Y-95.885
X174.625Y-73.025
T3
X164.505Y-75.217
X169.505Y-75.217
T4
X161.29Y-99.695
X163.83Y-99.695
X166.37Y-99.695
X168.91Y-99.695
X171.45Y-99.695
X173.99Y-99.695
T5
X49.38Y-83.675
X53.19Y-83.675
X53.19Y-88.755
X57.0Y-83.675
X83.67Y-83.675
X83.67Y-88.755
X105.9Y-78.1
X114.15Y-84.455
X114.15Y-88.27
X121.13Y-84.455
X136.38Y-77.955
X144.63Y-88.125
T6
X46.21Y-88.755
X60.17Y-88.755
X79.86Y-88.755
X87.48Y-88.755
X110.34Y-88.27
X117.96Y-88.27
X140.82Y-83.675
X148.44Y-84.31
T7
X49.38Y-74.785
X57.0Y-79.865
X79.86Y-74.785
X87.48Y-79.865
X110.34Y-74.93
X117.96Y-80.01
X140.82Y-74.785
X148.44Y-79.865
T8
X43.18Y-93.98
X43.18Y-115.57
X171.45Y-81.28
X171.45Y-115.57
T1
G00X163.505Y-72.867
M15
G01X163.505Y-72.167
M16
G05
G00X170.505Y-72.167
M15
G01X170.505Y-72.867
M16
G05
T0
M30
