<?xml version="1.0" ?>
<svg height="49.63004982501252mm" version="1.1" viewBox="38.04997508749375 -170.33007473751877 138.5300498250125 49.63004982501252" width="138.5300498250125mm" xmlns="http://www.w3.org/2000/svg" xmlns:xlink="http://www.w3.org/1999/xlink">
	<g transform="scale(1,-1)">
		<g>
			<path d="M 172.45,-115.57 L 172.44518472667218,-115.66801714032955 L 172.43078528040323,-115.76509032201612 L 172.4069403357322,-115.86028467725446 L 172.37387953251127,-115.95268343236508 L 172.33192126434835,-116.04139673682599 L 172.28146961230254,-116.1255702330196 L 172.22301045336272,-116.20439328416364 L 172.15710678118654,-116.27710678118655 L 172.08439328416364,-116.34301045336272 L 172.0055702330196,-116.40146961230253 L 171.92139673682598,-116.45192126434834 L 171.8326834323651,-116.49387953251129 L 171.74028467725446,-116.5269403357322 L 171.64509032201613,-116.55078528040322 L 171.54801714032956,-116.56518472667219 L 171.45,-116.57 L 171.35198285967044,-116.56518472667219 L 171.25490967798387,-116.55078528040322 L 171.15971532274554,-116.5269403357322 L 171.0673165676349,-116.49387953251129 L 170.978603263174,-116.45192126434834 L 170.89442976698038,-116.40146961230253 L 170.81560671583634,-116.34301045336274 L 170.74289321881344,-116.27710678118655 L 170.67698954663726,-116.20439328416364 L 170.61853038769743,-116.1255702330196 L 170.56807873565162,-116.04139673682599 L 170.5261204674887,-115.95268343236508 L 170.49305966426778,-115.86028467725446 L 170.46921471959675,-115.76509032201612 L 170.4548152733278,-115.66801714032955 L 170.45,-115.57 L 170.4548152733278,-115.47198285967043 L 170.46921471959675,-115.37490967798387 L 170.49305966426778,-115.27971532274553 L 170.5261204674887,-115.18731656763491 L 170.56807873565162,-115.098603263174 L 170.61853038769743,-115.01442976698038 L 170.67698954663726,-114.93560671583634 L 170.74289321881344,-114.86289321881344 L 170.81560671583634,-114.79698954663726 L 170.89442976698038,-114.73853038769745 L 170.978603263174,-114.68807873565164 L 171.0673165676349,-114.6461204674887 L 171.1597153227455,-114.61305966426778 L 171.25490967798385,-114.58921471959677 L 171.35198285967041,-114.5748152733278 L 171.45,-114.57 L 171.54801714032953,-114.5748152733278 L 171.6450903220161,-114.58921471959677 L 171.74028467725444,-114.61305966426778 L 171.8326834323651,-114.6461204674887 L 171.92139673682598,-114.68807873565163 L 172.0055702330196,-114.73853038769745 L 172.08439328416364,-114.79698954663725 L 172.15710678118654,-114.86289321881344 L 172.22301045336272,-114.93560671583634 L 172.28146961230254,-115.01442976698038 L 172.33192126434835,-115.09860326317398 L 172.37387953251127,-115.1873165676349 L 172.4069403357322,-115.27971532274552 L 172.43078528040323,-115.37490967798385 L 172.44518472667218,-115.47198285967042 L 172.45,-115.56999999999998 L 172.45,-115.57 z" fill="#66cc99" fill-rule="evenodd" opacity="0.6" stroke="#555555" stroke-width="0.02"/>
			<path d="M 44.18,-115.57 L 44.1751847266722,-115.66801714032955 L 44.16078528040323,-115.76509032201612 L 44.136940335732206,-115.86028467725446 L 44.103879532511286,-115.95268343236508 L 44.061921264348356,-116.04139673682599 L 44.01146961230255,-116.1255702330196 L 43.95301045336274,-116.20439328416364 L 43.887106781186546,-116.27710678118655 L 43.81439328416364,-116.34301045336272 L 43.7355702330196,-116.40146961230253 L 43.651396736826,-116.45192126434834 L 43.56268343236509,-116.49387953251129 L 43.47028467725446,-116.5269403357322 L 43.37509032201613,-116.55078528040322 L 43.27801714032956,-116.56518472667219 L 43.18,-116.57 L 43.08198285967044,-116.56518472667219 L 42.98490967798387,-116.55078528040322 L 42.88971532274554,-116.5269403357322 L 42.79731656763491,-116.49387953251129 L 42.708603263174005,-116.45192126434834 L 42.6244297669804,-116.40146961230253 L 42.54560671583636,-116.34301045336274 L 42.472893218813454,-116.27710678118655 L 42.40698954663726,-116.20439328416364 L 42.34853038769746,-116.1255702330196 L 42.29807873565164,-116.04139673682599 L 42.256120467488714,-115.95268343236508 L 42.223059664267794,-115.86028467725446 L 42.19921471959677,-115.76509032201612 L 42.1848152733278,-115.66801714032955 L 42.18,-115.57 L 42.1848152733278,-115.47198285967043 L 42.19921471959677,-115.37490967798387 L 42.223059664267794,-115.27971532274553 L 42.256120467488714,-115.18731656763491 L 42.29807873565164,-115.098603263174 L 42.34853038769745,-115.01442976698038 L 42.40698954663726,-114.93560671583634 L 42.472893218813454,-114.86289321881344 L 42.54560671583636,-114.79698954663726 L 42.6244297669804,-114.73853038769745 L 42.708603263174,-114.68807873565164 L 42.79731656763491,-114.6461204674887 L 42.88971532274554,-114.61305966426778 L 42.98490967798387,-114.58921471959677 L 43.08198285967044,-114.5748152733278 L 43.18,-114.57 L 43.27801714032956,-114.5748152733278 L 43.37509032201613,-114.58921471959677 L 43.47028467725446,-114.61305966426778 L 43.562683432365084,-114.6461204674887 L 43.651396736825994,-114.68807873565163 L 43.7355702330196,-114.73853038769745 L 43.81439328416364,-114.79698954663725 L 43.887106781186546,-114.86289321881344 L 43.95301045336273,-114.93560671583634 L 44.01146961230254,-115.01442976698038 L 44.06192126434835,-115.09860326317398 L 44.103879532511286,-115.1873165676349 L 44.136940335732206,-115.27971532274552 L 44.16078528040323,-115.37490967798385 L 44.17518472667219,-115.47198285967042 L 44.18,-115.56999999999998 L 44.18,-115.57 z" fill="#66cc99" fill-rule="evenodd" opacity="0.6" stroke="#555555" stroke-width="0.02"/>
			<path d="M 38.04997508749375,-120.64999999754517 L 38.04997508749375,-71.12000000257741 L 38.05021597122863,-71.11509670138784 L 38.05093630224267,-71.11024062397665 L 38.05212914348705,-71.10547853469158 L 38.05378300724854,-71.10085629505559 L 38.05588196591498,-71.0964184197633 L 38.058405805367066,-71.0922076479796 L 38.06133021965107,-71.08826453173887 L 38.064627045059,-71.08462704540571 L 38.068264531359766,-71.08133021996221 L 38.072207647571986,-71.07840580563943 L 38.07641841933085,-71.07588196614611 L 38.08085629460258,-71.07378300743618 L 38.08547853422236,-71.07212914362937 L 38.090240623495646,-71.07093630233835 L 38.095096700899866,-71.0702159712767 L 38.10000000233226,-71.06997508749976 L 176.52999999742207,-71.06997508749373 L 176.534903298612,-71.07021597122862 L 176.5397593760233,-71.07093630224266 L 176.54452146530846,-71.07212914348705 L 176.54914370494436,-71.07378300724851 L 176.55358158023677,-71.07588196591499 L 176.5577923520203,-71.078405805367 L 176.56173546826122,-71.08133021965116 L 176.56537295459438,-71.08462704505907 L 176.56866978003777,-71.08826453135971 L 176.5715941943606,-71.09220764757204 L 176.5741180338537,-71.09641841933055 L 176.57621699256376,-71.10085629460245 L 176.57787085637048,-71.10547853422199 L 176.5790636976616,-71.11024062349543 L 176.5797840287233,-71.1150967008999 L 176.58002491250022,-71.1200000023321 L 176.58002491250625,-120.64999999742221 L 176.57978402877137,-120.6549032986122 L 176.5790636977574,-120.65975937602305 L 176.5778708565131,-120.66452146530783 L 176.57621699275154,-120.66914370494413 L 176.57411803408493,-120.67358158023686 L 176.57159419463304,-120.67779235202025 L 176.568669780349,-120.68173546826104 L 176.56537295494093,-120.68537295459437 L 176.5617354686403,-120.68866978003771 L 176.5577923524279,-120.69159419436063 L 176.5535815806692,-120.69411803385384 L 176.5491437053974,-120.6962169925638 L 176.54452146577788,-120.69787085637053 L 176.53975937650432,-120.69906369766164 L 176.53490329910014,-120.69978402872327 L 176.52999999766772,-120.70002491250023 L 38.10000000257792,-120.70002491250625 L 38.095096701388,-120.69978402877136 L 38.09024062397674,-120.69906369775732 L 38.08547853469147,-120.6978708565129 L 38.080856295055675,-120.69621699275149 L 38.07641841976334,-120.69411803408504 L 38.072207647979674,-120.69159419463296 L 38.0682645317388,-120.68866978034885 L 38.064627045405764,-120.68537295494103 L 38.06133021996217,-120.6817354686402 L 38.058405805639445,-120.67779235242801 L 38.055881966146124,-120.67358158066915 L 38.05378300743621,-120.66914370539746 L 38.052129143629394,-120.66452146577764 L 38.050936302338336,-120.65975937650428 L 38.050215971276685,-120.65490329910001 L 38.04997508749375,-120.64999999754517 z M 176.47997497749375,-120.59997508749373 L 176.47997498239982,-120.59997508737332 L 176.47997498338,-120.59997508732518 L 176.47997499314764,-120.59997508636314 L 176.47997499411835,-120.59997508621915 L 176.47997500374183,-120.59997508430493 L 176.47997500469378,-120.59997508406649 L 176.4799750140862,-120.59997508121734 L 176.47997501501018,-120.59997508088672 L 176.47997502407574,-120.59997507713163 L 176.47997502496287,-120.59997507671206 L 176.47997503361768,-120.59997507208601 L 176.47997503445941,-120.5999750715815 L 176.47997504261997,-120.59997506612878 L 176.4799750434082,-120.59997506554419 L 176.4799750509936,-120.59997505931895 L 176.47997505172074,-120.59997505865991 L 176.47997505865925,-120.59997505172144 L 176.4799750593183,-120.59997505099432 L 176.4799750655454,-120.59997504340656 L 176.47997506612998,-120.59997504261833 L 176.4799750715815,-120.5999750344594 L 176.479975072086,-120.59997503361767 L 176.4799750767115,-120.59997502496405 L 176.4799750771311,-120.59997502407693 L 176.4799750808872,-120.5999750150089 L 176.4799750812178,-120.5999750140849 L 176.47997508406604,-120.59997500469547 L 176.4799750843045,-120.59997500374352 L 176.47997508621944,-120.59997499411652 L 176.47997508636342,-120.59997499314578 L 176.47997508732502,-120.59997498338295 L 176.4799750873732,-120.59997498240278 L 176.47997508749376,-120.59997497749374 L 176.47997508749376,-71.17002502250624 L 176.4799750873732,-71.1700250175972 L 176.47997508732502,-71.17002501661703 L 176.47997508636342,-71.1700250068542 L 176.47997508621944,-71.17002500588346 L 176.4799750843045,-71.17002499625646 L 176.47997508406604,-71.17002499530452 L 176.4799750812178,-71.17002498591508 L 176.4799750808872,-71.17002498499109 L 176.4799750771311,-71.17002497592306 L 176.4799750767115,-71.17002497503593 L 176.479975072086,-71.17002496638231 L 176.4799750715815,-71.17002496554058 L 176.47997506612998,-71.17002495738166 L 176.4799750655454,-71.17002495659342 L 176.4799750593183,-71.17002494900566 L 176.47997505865925,-71.17002494827854 L 176.47997505172074,-71.17002494134007 L 176.4799750509936,-71.17002494068103 L 176.4799750434082,-71.1700249344558 L 176.47997504261997,-71.1700249338712 L 176.47997503445941,-71.17002492841848 L 176.47997503361768,-71.17002492791397 L 176.47997502496287,-71.17002492328793 L 176.47997502407574,-71.17002492286835 L 176.47997501501018,-71.17002491911326 L 176.4799750140862,-71.17002491878264 L 176.47997500469378,-71.1700249159335 L 176.47997500374183,-71.17002491569505 L 176.47997499411835,-71.17002491378084 L 176.47997499314764,-71.17002491363684 L 176.47997498338,-71.1700249126748 L 176.47997498239982,-71.17002491262666 L 176.47997497749375,-71.17002491250625 L 38.150025022506256,-71.17002491250625 L 38.15002501760014,-71.17002491262667 L 38.15002501661997,-71.17002491267482 L 38.15002500685259,-71.17002491363681 L 38.15002500588186,-71.17002491378081 L 38.15002499625784,-71.17002491569514 L 38.1500249953059,-71.17002491593358 L 38.150024985913824,-71.17002491878264 L 38.150024984989834,-71.17002491911326 L 38.150024975924545,-71.17002492286822 L 38.15002497503741,-71.1700249232878 L 38.150024966382325,-71.17002492791397 L 38.15002496554059,-71.17002492841848 L 38.150024957380396,-71.17002493387095 L 38.15002495659217,-71.17002493445554 L 38.150024949006045,-71.17002494068136 L 38.15002494827891,-71.1700249413404 L 38.15002494134039,-71.17002494827894 L 38.150024940681355,-71.17002494900606 L 38.15002493445531,-71.17002495659248 L 38.15002493387072,-71.17002495738072 L 38.15002492841883,-71.17002496554004 L 38.15002492791431,-71.17002496638177 L 38.15002492328823,-71.17002497503653 L 38.150024922868646,-71.17002497592365 L 38.15002491911304,-71.17002498499045 L 38.15002491878243,-71.17002498591444 L 38.15002491593377,-71.1700249953052 L 38.15002491569532,-71.17002499625714 L 38.150024913780676,-71.17002500588275 L 38.150024913636685,-71.17002500685349 L 38.150024912674866,-71.17002501661919 L 38.15002491262671,-71.17002501759936 L 38.150024912506254,-71.17002502250624 L 38.150024912506254,-120.59997497749374 L 38.15002491262671,-120.59997498240062 L 38.150024912674866,-120.59997498338079 L 38.150024913636685,-120.59997499314649 L 38.150024913780676,-120.59997499411723 L 38.15002491569532,-120.59997500374284 L 38.15002491593377,-120.59997500469478 L 38.15002491878243,-120.59997501408554 L 38.15002491911304,-120.59997501500953 L 38.150024922868646,-120.59997502407633 L 38.15002492328823,-120.59997502496346 L 38.15002492791431,-120.59997503361821 L 38.15002492841883,-120.59997503445994 L 38.15002493387072,-120.59997504261926 L 38.15002493445531,-120.5999750434075 L 38.150024940681355,-120.59997505099392 L 38.15002494134039,-120.59997505172105 L 38.15002494827891,-120.59997505865958 L 38.150024949006045,-120.59997505931862 L 38.15002495659217,-120.59997506554444 L 38.150024957380396,-120.59997506612903 L 38.15002496554059,-120.5999750715815 L 38.150024966382325,-120.59997507208601 L 38.15002497503741,-120.59997507671218 L 38.150024975924545,-120.59997507713176 L 38.150024984989834,-120.59997508088672 L 38.150024985913824,-120.59997508121734 L 38.1500249953059,-120.5999750840664 L 38.15002499625784,-120.59997508430484 L 38.15002500588186,-120.59997508621917 L 38.15002500685259,-120.59997508636317 L 38.15002501661997,-120.59997508732516 L 38.15002501760014,-120.59997508737331 L 38.150025022506256,-120.59997508749373 L 176.47997497749375,-120.59997508749373 z" fill="#66cc99" fill-rule="evenodd" opacity="0.6" stroke="#555555" stroke-width="0.02"/>
			<path d="M 44.18,-93.98 L 44.1751847266722,-94.07801714032956 L 44.16078528040323,-94.17509032201613 L 44.136940335732206,-94.27028467725447 L 44.103879532511286,-94.36268343236509 L 44.061921264348356,-94.451396736826 L 44.01146961230255,-94.53557023301961 L 43.95301045336274,-94.61439328416365 L 43.887106781186546,-94.68710678118656 L 43.81439328416364,-94.75301045336273 L 43.7355702330196,-94.81146961230255 L 43.651396736826,-94.86192126434835 L 43.56268343236509,-94.9038795325113 L 43.47028467725446,-94.93694033573222 L 43.37509032201613,-94.96078528040323 L 43.27801714032956,-94.9751847266722 L 43.18,-94.98 L 43.08198285967044,-94.9751847266722 L 42.98490967798387,-94.96078528040323 L 42.88971532274554,-94.93694033573222 L 42.79731656763491,-94.9038795325113 L 42.708603263174005,-94.86192126434835 L 42.6244297669804,-94.81146961230255 L 42.54560671583636,-94.75301045336275 L 42.472893218813454,-94.68710678118656 L 42.40698954663726,-94.61439328416365 L 42.34853038769746,-94.53557023301961 L 42.29807873565164,-94.451396736826 L 42.256120467488714,-94.36268343236509 L 42.223059664267794,-94.27028467725447 L 42.19921471959677,-94.17509032201613 L 42.1848152733278,-94.07801714032956 L 42.18,-93.98 L 42.1848152733278,-93.88198285967044 L 42.19921471959677,-93.78490967798388 L 42.223059664267794,-93.68971532274554 L 42.256120467488714,-93.59731656763492 L 42.29807873565164,-93.50860326317401 L 42.34853038769745,-93.4244297669804 L 42.40698954663726,-93.34560671583635 L 42.472893218813454,-93.27289321881345 L 42.54560671583636,-93.20698954663727 L 42.6244297669804,-93.14853038769746 L 42.708603263174,-93.09807873565165 L 42.79731656763491,-93.05612046748871 L 42.88971532274554,-93.02305966426779 L 42.98490967798387,-92.99921471959678 L 43.08198285967044,-92.98481527332781 L 43.18,-92.98 L 43.27801714032956,-92.98481527332781 L 43.37509032201613,-92.99921471959678 L 43.47028467725446,-93.02305966426779 L 43.562683432365084,-93.05612046748871 L 43.651396736825994,-93.09807873565164 L 43.7355702330196,-93.14853038769746 L 43.81439328416364,-93.20698954663726 L 43.887106781186546,-93.27289321881345 L 43.95301045336273,-93.34560671583635 L 44.01146961230254,-93.4244297669804 L 44.06192126434835,-93.508603263174 L 44.103879532511286,-93.5973165676349 L 44.136940335732206,-93.68971532274553 L 44.16078528040323,-93.78490967798386 L 44.17518472667219,-93.88198285967043 L 44.18,-93.97999999999999 L 44.18,-93.98 z" fill="#66cc99" fill-rule="evenodd" opacity="0.6" stroke="#555555" stroke-width="0.02"/>
			<path d="M 172.45,-81.28 L 172.44518472667218,-81.37801714032956 L 172.43078528040323,-81.47509032201613 L 172.4069403357322,-81.57028467725446 L 172.37387953251127,-81.66268343236509 L 172.33192126434835,-81.751396736826 L 172.28146961230254,-81.83557023301961 L 172.22301045336272,-81.91439328416365 L 172.15710678118654,-81.98710678118655 L 172.08439328416364,-82.05301045336273 L 172.0055702330196,-82.11146961230254 L 171.92139673682598,-82.16192126434835 L 171.8326834323651,-82.2038795325113 L 171.74028467725446,-82.23694033573221 L 171.64509032201613,-82.26078528040323 L 171.54801714032956,-82.2751847266722 L 171.45,-82.28 L 171.35198285967044,-82.2751847266722 L 171.25490967798387,-82.26078528040323 L 171.15971532274554,-82.23694033573221 L 171.0673165676349,-82.2038795325113 L 170.978603263174,-82.16192126434835 L 170.89442976698038,-82.11146961230254 L 170.81560671583634,-82.05301045336275 L 170.74289321881344,-81.98710678118655 L 170.67698954663726,-81.91439328416365 L 170.61853038769743,-81.83557023301961 L 170.56807873565162,-81.751396736826 L 170.5261204674887,-81.66268343236509 L 170.49305966426778,-81.57028467725446 L 170.46921471959675,-81.47509032201613 L 170.4548152733278,-81.37801714032956 L 170.45,-81.28 L 170.4548152733278,-81.18198285967044 L 170.46921471959675,-81.08490967798387 L 170.49305966426778,-80.98971532274554 L 170.5261204674887,-80.89731656763492 L 170.56807873565162,-80.808603263174 L 170.61853038769743,-80.72442976698039 L 170.67698954663726,-80.64560671583635 L 170.74289321881344,-80.57289321881345 L 170.81560671583634,-80.50698954663727 L 170.89442976698038,-80.44853038769746 L 170.978603263174,-80.39807873565165 L 171.0673165676349,-80.35612046748871 L 171.1597153227455,-80.32305966426779 L 171.25490967798385,-80.29921471959678 L 171.35198285967041,-80.28481527332781 L 171.45,-80.28 L 171.54801714032953,-80.28481527332781 L 171.6450903220161,-80.29921471959678 L 171.74028467725444,-80.32305966426779 L 171.8326834323651,-80.35612046748871 L 171.92139673682598,-80.39807873565164 L 172.0055702330196,-80.44853038769746 L 172.08439328416364,-80.50698954663726 L 172.15710678118654,-80.57289321881345 L 172.22301045336272,-80.64560671583635 L 172.28146961230254,-80.72442976698039 L 172.33192126434835,-80.80860326317399 L 172.37387953251127,-80.8973165676349 L 172.4069403357322,-80.98971532274552 L 172.43078528040323,-81.08490967798386 L 172.44518472667218,-81.18198285967043 L 172.45,-81.27999999999999 L 172.45,-81.28 z" fill="#66cc99" fill-rule="evenodd" opacity="0.6" stroke="#555555" stroke-width="0.02"/>
		</g>
	</g>
	 
</svg>
